<?xml version="1.0" encoding="iso-8859-1"?>
<!-- Uploaded to: SVG Repo, www.svgrepo.com, Generator: SVG Repo Mixer Tools -->
<svg version="1.1" id="Layer_1" xmlns="http://www.w3.org/2000/svg" xmlns:xlink="http://www.w3.org/1999/xlink" 
	 viewBox="0 0 512 512" xml:space="preserve">
<rect x="431.707" y="24.505" style="fill:#FBB03B;" width="31.283" height="55.538"/>
<g>
	<rect x="351.518" y="24.505" style="fill:#3FA9F5;" width="32.22" height="55.218"/>
	<rect x="423.354" y="79.72" style="fill:#3FA9F5;" width="47.885" height="103.756"/>
</g>
<rect x="423.354" y="79.72" style="fill:#2F7FB8;" width="15.662" height="103.756"/>
<rect x="343.541" y="79.72" style="fill:#FBB03B;" width="47.886" height="103.756"/>
<rect x="343.541" y="79.72" style="fill:#BF6E16;" width="15.962" height="103.756"/>
<rect x="16.321" y="263.289" style="fill:#FFA94B;" width="470.873" height="23.943"/>
<rect x="16.321" y="263.289" style="fill:#FF931E;" width="383.082" height="23.943"/>
<rect x="16.321" y="263.289" style="fill:#BF6E16;" width="87.791" height="23.943"/>
<path style="fill:#3FA9F5;" d="M40.263,287.227v30.51c0,75.712,61.377,137.09,137.09,137.09h148.811
	c75.712,0,137.09-61.377,137.09-137.09v-30.51"/>
<path style="fill:#2F7FB8;" d="M104.277,317.737v-30.454H40.668v30.454c0,75.712,60.973,137.432,136.685,137.432h63.848
	C165.489,455.169,104.277,393.45,104.277,317.737z"/>
<path style="fill:#65BAF7;" d="M399.381,317.737v-30.454h63.609v30.454c0,75.712-59.7,137.432-135.412,137.432H263.73
	C339.442,455.169,399.381,393.45,399.381,317.737z"/>
<rect y="256" width="512" height="15.642"/>
<path d="M486.974,279.984h-47.967v15.642h16.427v22.112c0,71.279-57.989,129.268-129.269,129.268H177.353
	c-71.279,0-129.269-57.989-129.269-129.268v-22.112h15.525v-15.642H16.684v15.642h15.758v22.112
	c0,68.393,47.63,125.864,111.46,141.005v20.41h15.642v-17.601c5.838,0.718,11.78,1.095,17.809,1.095h148.811
	c8.611,0,17.047-0.759,25.25-2.207v18.713h15.642v-22.389c60.055-17.694,104.019-73.318,104.019-139.026v-22.112h15.899V279.984z"/>
<rect x="80.293" y="279.984" style="fill:#FFFFFF;" width="191.87" height="15.642"/>
<path d="M127.894,215.399h-15.642v-79.809c0-17.514,14.249-31.763,31.764-31.763s31.764,14.249,31.764,31.763v23.943h-15.642
	v-23.943c0-8.89-7.233-16.121-16.122-16.121c-8.89,0-16.122,7.233-16.122,16.121C127.894,135.589,127.894,215.399,127.894,215.399z"
	/>
<rect x="63.609" y="232.016" width="15.642" height="15.642"/>
<g>
	<polygon style="fill:#FBB03B;" points="56.31,215.332 63.609,215.332 63.609,223.674 79.251,223.674 79.251,215.332 
		88.635,215.332 88.635,199.69 56.31,199.69 	"/>
	<polygon style="fill:#FBB03B;" points="127.218,223.674 111.576,223.674 111.576,232.016 95.935,232.016 95.935,247.658 
		143.902,247.658 143.902,232.016 127.218,232.016 	"/>
	<polygon style="fill:#FBB03B;" points="175.185,199.69 143.902,199.69 143.902,215.332 152.244,215.332 152.244,223.674 
		167.886,223.674 167.886,215.332 175.185,215.332 	"/>
</g>
<rect x="152.244" y="232.016" width="15.642" height="15.642"/>
<polygon points="399.381,127.739 383.739,127.739 383.739,88.114 351.413,88.114 351.413,127.739 335.772,127.739 335.772,72.473 
	399.381,72.473 "/>
<rect x="351.413" y="48.489" width="32.326" height="15.642"/>
<rect x="351.413" y="24.505" width="32.326" height="15.642"/>
<polygon points="478.631,127.739 462.99,127.739 462.99,88.114 430.664,88.114 430.664,127.739 415.022,127.739 415.022,72.473 
	478.631,72.473 "/>
<polygon points="502.615,176.749 502.615,150.761 511.164,150.733 511.114,135.092 303.61,135.75 303.66,151.391 311.788,151.365 
	311.788,167.365 327.43,167.365 327.43,151.315 486.974,150.81 486.974,176.749 478.631,176.749 478.631,159.022 462.99,159.022 
	462.99,176.749 430.664,176.749 430.664,159.022 415.022,159.022 415.022,176.749 399.381,176.749 399.381,159.022 383.739,159.022 
	383.739,176.749 351.413,176.749 351.413,159.022 335.772,159.022 335.772,176.749 303.446,176.749 303.446,192.391 512,192.391 
	512,176.749 "/>
<rect x="431.707" y="48.489" width="31.283" height="15.642"/>
<rect x="431.707" y="24.505" width="31.283" height="15.642"/>
<g>
	<rect x="335.772" y="471.853" style="fill:#FBB03B;" width="47.967" height="15.642"/>
	<rect x="128.261" y="471.853" style="fill:#FBB03B;" width="46.925" height="15.642"/>
</g>
</svg>