<?xml version="1.0" encoding="iso-8859-1"?>
<!-- Uploaded to: SVG Repo, www.svgrepo.com, Generator: SVG Repo Mixer Tools -->
<svg height="800px" width="800px" version="1.1" id="Capa_1" xmlns="http://www.w3.org/2000/svg" xmlns:xlink="http://www.w3.org/1999/xlink" 
	 viewBox="0 0 470 470" xml:space="preserve">
<g>
	<path style="fill:#FF8985;" d="M402.5,112.499h-335c-28.948,0-52.5,23.551-52.5,52.5v42.917c0,9.777,6.271,18.114,15,21.21v-23.561
		c0-20.989,17.076-38.065,38.065-38.065c12.858,0,24.248,6.409,31.144,16.2c7.379-9.829,19.13-16.2,32.339-16.2
		c13.913,0,26.207,7.066,33.479,17.799c7.774-10.773,20.436-17.799,34.705-17.799c14.621,0,27.552,7.375,35.268,18.6
		c7.716-11.225,20.646-18.6,35.268-18.6c14.27,0,26.931,7.026,34.705,17.799c7.272-10.733,19.566-17.799,33.479-17.799
		c13.209,0,24.96,6.371,32.339,16.2c6.896-9.791,18.285-16.2,31.144-16.2c20.989,0,38.065,17.076,38.065,38.065v23.561
		c8.729-3.096,15-11.432,15-21.21v-42.917C455,136.051,431.448,112.499,402.5,112.499z"/>
	<path style="fill:#FFFFFF;" d="M298.014,209.384c-0.469-14.903-12.731-26.885-27.746-26.885c-15.312,0-27.768,12.457-27.768,27.768
		c0,4.142-3.357,7.5-7.5,7.5s-7.5-3.358-7.5-7.5c0-15.311-12.456-27.768-27.768-27.768c-15.015,0-27.277,11.981-27.746,26.885
		c0.058,0.375,0.097,0.756,0.097,1.147v46.189H227.5v-18.805c0-4.142,3.357-7.5,7.5-7.5s7.5,3.358,7.5,7.5v18.805h55.417v-46.189
		C297.917,210.14,297.956,209.759,298.014,209.384z"/>
	<path style="fill:#FFFFFF;" d="M91.131,355.858v-91.638c0-0.627,0.085-1.233,0.23-1.815v-24.489c0-4.142,3.357-7.5,7.5-7.5
		s7.5,3.358,7.5,7.5v18.805h50.722v-45.16c-0.073-0.421-0.119-0.852-0.119-1.294v-2.351c0-14.015-11.401-25.417-25.416-25.417
		s-25.417,11.402-25.417,25.417c0,4.142-3.357,7.5-7.5,7.5s-7.5-3.358-7.5-7.5v-2.351c0-12.718-10.347-23.065-23.065-23.065
		S45,192.846,45,205.565v52.283C45,331.999,76.23,351.011,91.131,355.858z"/>
	<path style="fill:#FFFFFF;" d="M425,205.565c0-12.718-10.347-23.065-23.065-23.065s-23.065,10.347-23.065,23.065v2.351
		c0,4.142-3.357,7.5-7.5,7.5s-7.5-3.358-7.5-7.5c0-14.015-11.402-25.417-25.417-25.417s-25.416,11.402-25.416,25.417v2.351
		c0,0.442-0.046,0.873-0.119,1.294v45.16h50.722v-18.805c0-4.142,3.357-7.5,7.5-7.5s7.5,3.358,7.5,7.5v24.489
		c0.145,0.582,0.23,1.188,0.23,1.815v91.701C393.848,351.186,425,332.377,425,257.848V205.565z"/>
	<path style="fill:#081C1F;" d="M402.5,97.499h-335c-37.22,0-67.5,30.28-67.5,67.5v42.917c0,18.11,12.904,33.261,30,36.745v13.187
		c0,45.894,11.128,79.086,33.074,98.655c17.121,15.267,34.592,15.971,35.328,15.993c2.014,0.073,3.993-0.7,5.45-2.113
		c1.456-1.413,2.278-3.355,2.278-5.384v-93.279h56.857c0.514,0.112,1.047,0.174,1.595,0.174s1.081-0.062,1.595-0.174h67.227
		c0.514,0.112,1.047,0.174,1.595,0.174s1.081-0.062,1.595-0.174h127.274v93.279c0,2.029,0.822,3.971,2.278,5.384
		c1.401,1.359,3.275,2.116,5.222,2.116c0.076,0,0.152-0.001,0.229-0.003c0.736-0.022,18.207-0.726,35.328-15.993
		C428.872,336.934,440,303.742,440,257.848v-13.187c17.096-3.484,30-18.635,30-36.745v-42.917
		C470,127.78,439.72,97.499,402.5,97.499z M455,207.916c0,9.777-6.271,18.114-15,21.21v-23.561
		c0-20.989-17.076-38.065-38.065-38.065c-12.858,0-24.248,6.409-31.144,16.2c-7.379-9.829-19.13-16.2-32.339-16.2
		c-13.913,0-26.207,7.066-33.479,17.799c-7.774-10.773-20.436-17.799-34.705-17.799c-14.621,0-27.552,7.375-35.268,18.6
		c-7.716-11.225-20.646-18.6-35.268-18.6c-14.27,0-26.931,7.026-34.705,17.799c-7.272-10.733-19.566-17.799-33.479-17.799
		c-13.209,0-24.96,6.371-32.339,16.2c-6.896-9.791-18.285-16.2-31.144-16.2C47.076,167.499,30,184.576,30,205.565v23.561
		c-8.729-3.096-15-11.432-15-21.21v-42.917c0-28.949,23.552-52.5,52.5-52.5h335c28.948,0,52.5,23.551,52.5,52.5V207.916z
		 M242.5,256.721v-18.805c0-4.142-3.357-7.5-7.5-7.5s-7.5,3.358-7.5,7.5v18.805h-55.417v-46.189c0-0.391-0.039-0.772-0.097-1.147
		c0.469-14.903,12.731-26.885,27.746-26.885c15.312,0,27.768,12.457,27.768,27.768c0,4.142,3.357,7.5,7.5,7.5s7.5-3.358,7.5-7.5
		c0-15.311,12.456-27.768,27.768-27.768c15.015,0,27.277,11.981,27.746,26.885c-0.058,0.375-0.097,0.756-0.097,1.147v46.189H242.5z
		 M45,205.565c0-12.718,10.347-23.065,23.065-23.065s23.065,10.347,23.065,23.065v2.351c0,4.142,3.357,7.5,7.5,7.5
		s7.5-3.358,7.5-7.5c0-14.015,11.402-25.417,25.417-25.417s25.416,11.402,25.416,25.417v2.351c0,0.442,0.046,0.873,0.119,1.294
		v45.16h-50.722v-18.805c0-4.142-3.357-7.5-7.5-7.5s-7.5,3.358-7.5,7.5v24.489c-0.145,0.582-0.23,1.188-0.23,1.815v91.638
		C76.23,351.011,45,331.999,45,257.848V205.565z M378.869,355.921v-91.701c0-0.627-0.085-1.233-0.23-1.815v-24.489
		c0-4.142-3.357-7.5-7.5-7.5s-7.5,3.358-7.5,7.5v18.805h-50.722v-45.16c0.073-0.421,0.119-0.852,0.119-1.294v-2.351
		c0-14.015,11.401-25.417,25.416-25.417s25.417,11.402,25.417,25.417c0,4.142,3.357,7.5,7.5,7.5s7.5-3.358,7.5-7.5v-2.351
		c0-12.718,10.347-23.065,23.065-23.065S425,192.846,425,205.565v52.283C425,332.377,393.848,351.186,378.869,355.921z"/>
</g>
</svg>