<?xml version="1.0" encoding="UTF-8" standalone="no"?>
<!-- Uploaded to: SVG Repo, www.svgrepo.com, Generator: SVG Repo Mixer Tools -->

<svg
   width="698.51562"
   height="437.65625"
   viewBox="0 0 894.1 560.2"
   class="icon"
   version="1.1"
   id="svg27"
   sodipodi:docname="fire-truck-svgrepo-com.svg"
   inkscape:version="1.3.2 (091e20e, 2023-11-25)"
   xmlns:inkscape="http://www.inkscape.org/namespaces/inkscape"
   xmlns:sodipodi="http://sodipodi.sourceforge.net/DTD/sodipodi-0.dtd"
   xmlns="http://www.w3.org/2000/svg"
   xmlns:svg="http://www.w3.org/2000/svg">
  <defs
     id="defs27" />
  <sodipodi:namedview
     id="namedview27"
     pagecolor="#ffffff"
     bordercolor="#000000"
     borderopacity="0.25"
     inkscape:showpageshadow="2"
     inkscape:pageopacity="0.0"
     inkscape:pagecheckerboard="0"
     inkscape:deskcolor="#d1d1d1"
     inkscape:zoom="0.295"
     inkscape:cx="347.45763"
     inkscape:cy="218.64407"
     inkscape:window-width="1680"
     inkscape:window-height="1022"
     inkscape:window-x="0"
     inkscape:window-y="28"
     inkscape:window-maximized="0"
     inkscape:current-layer="svg27" />
  <path
     d="m 770.9,81.4 c -1.4,-5.1 -6.9,-9.3 -12.2,-9.3 h -56.8 c -5.3,0 -10.8,4.2 -12.2,9.3 l -12.7,46 c -1.4,5.1 1.8,9.3 7.1,9.3 h 92.5 c 5.3,0 8.5,-4.2 7.1,-9.3 z"
     fill="#ff8189"
     id="path1" />
  <path
     d="m 127.9,61.6 h 48.6 v 48.5 h -48.6 z"
     fill="#a4a9ad"
     id="path2" />
  <path
     d="m 127.9,61.6 h 48.6 v 21.2 h -48.6 z"
     fill=""
     id="path3" />
  <path
     d="M 245.4,61.6 H 294 v 48.5 h -48.6 z"
     fill="#a4a9ad"
     id="path4" />
  <path
     d="M 245.4,61.6 H 294 v 21.2 h -48.6 z"
     fill=""
     id="path5" />
  <path
     d="m 362.8,61.6 h 48.6 v 48.5 h -48.6 z"
     fill="#a4a9ad"
     id="path6" />
  <path
     d="m 362.8,61.6 h 48.6 v 21.2 h -48.6 z"
     fill=""
     id="path7" />
  <path
     d="M 30.4,463.2 V 158.3 c 0,-26.5 21.7,-48.1 48.1,-48.1 h 737.1 c 26.5,0 48.1,21.7 48.1,48.1 V 463.1 H 30.4 Z"
     fill="#ff5959"
     id="path8" />
  <path
     d="m 30.4,298.5 h 833.4 v 37.8 H 30.4 Z"
     fill="#d1d3d3"
     id="path9" />
  <path
     d="m 894.1,477.7 c 0,9.9 -8.1,17.9 -17.9,17.9 h -40.3 c -9.9,0 -17.9,-8.1 -17.9,-17.9 v -29.1 c 0,-9.9 8.1,-17.9 17.9,-17.9 h 40.3 c 9.9,0 17.9,8.1 17.9,17.9 z m -825.6,0 c 0,9.9 -8.1,17.9 -17.9,17.9 H 17.9 C 8,495.6 0,487.5 0,477.7 v -29.1 c 0,-9.9 8.1,-17.9 17.9,-17.9 h 32.6 c 9.9,0 17.9,8.1 17.9,17.9 z"
     fill="#a4a9ad"
     id="path10" />
  <path
     d="M 345.9,463.2 C 345.9,398.5 293.4,346 228.7,346 164,346 111.5,398.5 111.5,463.2 Z"
     fill=""
     id="path11" />
  <path
     d="m 228.6,463.2 m -97,0 a 97,97 0 1 0 194,0 97,97 0 1 0 -194,0 z"
     fill="#333e48"
     id="path12" />
  <path
     d="m 228.6,463.2 m -49.2,0 a 49.2,49.2 0 1 0 98.4,0 49.2,49.2 0 1 0 -98.4,0 z"
     fill="#a4a9ad"
     id="path13" />
  <path
     d="M 782.7,463.2 C 782.7,398.5 730.2,346 665.5,346 600.8,346 548.3,398.5 548.3,463.2 Z"
     fill=""
     id="path14" />
  <path
     d="m 665.5,463.2 m -97,0 a 97,97 0 1 0 194,0 97,97 0 1 0 -194,0 z"
     fill="#333e48"
     id="path15" />
  <path
     d="m 665.5,463.2 m -49.2,0 a 49.2,49.2 0 1 0 98.4,0 49.2,49.2 0 1 0 -98.4,0 z"
     fill="#a4a9ad"
     id="path16" />
  <path
     d="M 665.5,19.3 C 665.5,8.7 656.8,0 646.2,0 H 94.7 C 84.1,0 75.4,8.7 75.4,19.3 v 23.1 c 0,10.6 8.7,19.3 19.3,19.3 h 551.6 c 10.6,0 19.3,-8.7 19.3,-19.3 z"
     fill="#d1d3d3"
     id="path17" />
  <path
     d="m 675.1,232 c 0,8.5 6.9,15.4 15.4,15.4 h 112.1 c 8.5,0 15.4,-6.9 15.4,-15.4 v -66.8 c 0,-8.5 -6.9,-15.4 -15.4,-15.4 H 690.5 c -8.5,0 -15.4,6.9 -15.4,15.4 z"
     fill="#333e48"
     id="path18" />
  <path
     d="M 802.6,149.9 H 690.5 c -8.5,0 -15.4,6.9 -15.4,15.4 v 19.9 c 0,-8.5 6.9,-15.4 15.4,-15.4 h 112.1 c 8.5,0 15.4,6.9 15.4,15.4 v -19.9 c 0.1,-8.5 -6.9,-15.4 -15.4,-15.4 z"
     fill=""
     id="path19" />
  <path
     d="m 534.8,232 c 0,8.5 6.9,15.4 15.4,15.4 h 65.9 c 8.5,0 15.4,-6.9 15.4,-15.4 v -66.8 c 0,-8.5 -6.9,-15.4 -15.4,-15.4 h -65.9 c -8.5,0 -15.4,6.9 -15.4,15.4 z"
     fill="#333e48"
     id="path20" />
  <path
     d="m 616.1,149.9 h -65.9 c -8.5,0 -15.4,6.9 -15.4,15.4 v 19.9 c 0,-8.5 6.9,-15.4 15.4,-15.4 h 65.9 c 8.5,0 15.4,6.9 15.4,15.4 v -19.9 c 0,-8.5 -6.9,-15.4 -15.4,-15.4 z"
     fill=""
     id="path21" />
  <path
     d="M 374.8,275.4 H 519.4 V 463.2 H 374.8 Z"
     fill="#a4a9ad"
     id="path22" />
  <path
     d="m 418.4,324.8 m -13.5,0 a 13.5,13.5 0 1 0 27,0 13.5,13.5 0 1 0 -27,0 z"
     fill="#d1d3d3"
     id="path23" />
  <path
     d="m 475.7,324.8 m -13.5,0 a 13.5,13.5 0 1 0 27,0 13.5,13.5 0 1 0 -27,0 z"
     fill="#d1d3d3"
     id="path24" />
  <path
     d="m 475.7,386.6 h -57.3 c -8,0 -14.4,-6.5 -14.4,-14.4 0,-7.9 6.5,-14.4 14.4,-14.4 h 57.3 c 8,0 14.4,6.5 14.4,14.4 0,7.9 -6.4,14.4 -14.4,14.4 z m 0,44.1 h -57.3 c -8,0 -14.4,-6.5 -14.4,-14.4 0,-7.9 6.5,-14.4 14.4,-14.4 h 57.3 c 8,0 14.4,6.5 14.4,14.4 0,7.9 -6.4,14.4 -14.4,14.4 z"
     fill="#d1d3d3"
     id="path25" />
  <path
     d="m 863.8,430.7 h -41.2 c -5.3,0 -9.6,-4.3 -9.6,-9.6 v -24.4 c 0,-5.3 4.3,-9.6 9.6,-9.6 h 41.2 z m -833.4,0 h 41.2 c 5.3,0 9.6,-4.3 9.6,-9.6 v -24.4 c 0,-5.3 -4.3,-9.6 -9.6,-9.6 H 30.4 Z m 90.2,-246.5 h 317 v 28.9 h -317 z"
     fill="#ffb819"
     id="path26" />
  <path
     d="m 463.7,173.6 c 0,-5.3 -4.3,-9.6 -9.6,-9.6 h -32.8 c -5.3,0 -9.6,4.3 -9.6,9.6 v 50.1 c 0,5.3 4.3,9.6 9.6,9.6 h 32.8 c 5.3,0 9.6,-4.3 9.6,-9.6 z m -317.1,0 c 0,-5.3 -4.3,-9.6 -9.6,-9.6 h -32.8 c -5.3,0 -9.6,4.3 -9.6,9.6 v 50.1 c 0,5.3 4.3,9.6 9.6,9.6 H 137 c 5.3,0 9.6,-4.3 9.6,-9.6 z"
     fill="#d1d3d3"
     id="path27" />
</svg>
