<?xml version="1.0" encoding="UTF-8" standalone="no"?>
<!-- Uploaded to: SVG Repo, www.svgrepo.com, Generator: SVG Repo Mixer Tools -->

<svg
   height="493.8605"
   width="800"
   version="1.1"
   id="Layer_1"
   viewBox="0 0 512 316.07072"
   xml:space="preserve"
   sodipodi:docname="toothbrush-health-care-svgrepo-com.svg"
   inkscape:version="1.3.2 (091e20e, 2023-11-25)"
   xmlns:inkscape="http://www.inkscape.org/namespaces/inkscape"
   xmlns:sodipodi="http://sodipodi.sourceforge.net/DTD/sodipodi-0.dtd"
   xmlns="http://www.w3.org/2000/svg"
   xmlns:svg="http://www.w3.org/2000/svg"><defs
   id="defs27" /><sodipodi:namedview
   id="namedview27"
   pagecolor="#ffffff"
   bordercolor="#000000"
   borderopacity="0.25"
   inkscape:showpageshadow="2"
   inkscape:pageopacity="0.0"
   inkscape:pagecheckerboard="0"
   inkscape:deskcolor="#d1d1d1"
   showgrid="false"
   inkscape:zoom="1.01125"
   inkscape:cx="400"
   inkscape:cy="246.72435"
   inkscape:window-width="1680"
   inkscape:window-height="1022"
   inkscape:window-x="0"
   inkscape:window-y="28"
   inkscape:window-maximized="0"
   inkscape:current-layer="Layer_1" />
<g
   transform="translate(1,-96.964281)"
   id="g27">
	<g
   id="g2">
		<path
   style="fill:#ffdd09"
   d="m 357.4,404.501 h 68.267 V 319.168 H 357.4 Z"
   id="path1" />
		<path
   style="fill:#ffdd09"
   d="m 7.533,337.941 v 47.787 c 0,10.24 8.533,18.773 18.773,18.773 h 450.56 V 319.168 H 26.307 c -10.24,0 -18.774,8.533 -18.774,18.773"
   id="path2" />
	</g>
	<path
   style="fill:#ffffff"
   d="m 33.133,385.728 v -47.787 c 0,-10.24 8.533,-18.773 18.773,-18.773 h -25.6 c -10.24,0 -18.773,8.533 -18.773,18.773 v 47.787 c 0,10.24 8.533,18.773 18.773,18.773 h 25.6 c -10.239,0 -18.773,-8.533 -18.773,-18.773"
   id="path3" />
	<path
   style="fill:#fd9808"
   d="m 476.867,404.501 h 25.6 v -85.333 h -25.6 z"
   id="path4" />
	<path
   style="fill:#54c9fd"
   d="m 41.667,208.235 c -60.587,-60.587 33.28,-101.547 34.133,-102.4 0,0 -33.28,51.2 42.667,51.2 H 203.8 c 0,0 51.2,-5.973 51.2,51.2 z"
   id="path5" />
	<path
   style="fill:#33a9f8"
   d="m 229.4,157.035 h -17.067 c 14.507,0.853 42.667,8.533 42.667,51.2 h 25.6 c 0,-57.174 -51.2,-51.2 -51.2,-51.2"
   id="path6" />
	<g
   id="g15">
		<path
   style="fill:#ffdd09"
   d="m 33.133,327.701 c -5.12,0 -8.533,-3.413 -8.533,-8.533 v -102.4 c 0,-5.12 3.413,-8.533 8.533,-8.533 5.12,0 8.533,3.413 8.533,8.533 v 102.4 c 0.001,5.12 -3.413,8.533 -8.533,8.533 z"
   id="path7" />
		<path
   style="fill:#ffdd09"
   d="m 67.267,327.701 c -5.12,0 -8.533,-3.413 -8.533,-8.533 V 208.235 c 0,-5.12 3.413,-8.533 8.533,-8.533 5.12,0 8.533,3.413 8.533,8.533 v 110.933 c 0,5.12 -3.413,8.533 -8.533,8.533 z"
   id="path8" />
		<path
   style="fill:#ffdd09"
   d="m 101.4,327.701 c -5.12,0 -8.533,-3.413 -8.533,-8.533 V 208.235 c 0,-5.12 3.413,-8.533 8.533,-8.533 5.12,0 8.533,3.413 8.533,8.533 v 110.933 c 0,5.12 -3.413,8.533 -8.533,8.533 z"
   id="path9" />
		<path
   style="fill:#ffdd09"
   d="m 135.533,327.701 c -5.12,0 -8.533,-3.413 -8.533,-8.533 V 208.235 c 0,-5.12 3.413,-8.533 8.533,-8.533 5.12,0 8.533,3.413 8.533,8.533 v 110.933 c 0.001,5.12 -3.413,8.533 -8.533,8.533 z"
   id="path10" />
		<path
   style="fill:#ffdd09"
   d="m 169.667,327.701 c -5.12,0 -8.533,-3.413 -8.533,-8.533 V 208.235 c 0,-5.12 3.413,-8.533 8.533,-8.533 5.12,0 8.533,3.413 8.533,8.533 v 110.933 c 0,5.12 -3.413,8.533 -8.533,8.533 z"
   id="path11" />
		<path
   style="fill:#ffdd09"
   d="m 203.8,327.701 c -5.12,0 -8.533,-3.413 -8.533,-8.533 V 208.235 c 0,-5.12 3.413,-8.533 8.533,-8.533 5.12,0 8.533,3.413 8.533,8.533 v 110.933 c 0,5.12 -3.413,8.533 -8.533,8.533 z"
   id="path12" />
		<path
   style="fill:#ffdd09"
   d="m 237.933,327.701 c -5.12,0 -8.533,-3.413 -8.533,-8.533 V 208.235 c 0,-5.12 3.413,-8.533 8.533,-8.533 5.12,0 8.533,3.413 8.533,8.533 v 110.933 c 0.001,5.12 -3.413,8.533 -8.533,8.533 z"
   id="path13" />
		<path
   style="fill:#ffdd09"
   d="m 272.067,327.701 c -5.12,0 -8.533,-3.413 -8.533,-8.533 V 208.235 c 0,-5.12 3.413,-8.533 8.533,-8.533 5.12,0 8.533,3.413 8.533,8.533 v 110.933 c 0,5.12 -3.413,8.533 -8.533,8.533 z"
   id="path14" />
		<path
   style="fill:#ffdd09"
   d="m 306.2,327.701 c -5.12,0 -8.533,-3.413 -8.533,-8.533 V 208.235 c 0,-5.12 3.413,-8.533 8.533,-8.533 5.12,0 8.533,3.413 8.533,8.533 v 110.933 c 0,5.12 -3.413,8.533 -8.533,8.533 z"
   id="path15" />
	</g>
	<path
   d="M 280.6,216.768 H 41.667 c -2.56,0 -4.267,-0.853 -5.973,-2.56 -14.507,-14.507 -21.333,-30.72 -18.773,-47.787 5.12,-38.4 52.907,-66.56 54.613,-68.267 3.413,-1.707 7.68,-1.707 10.24,0.853 2.56,3.413 3.413,7.68 1.707,11.093 0,0 -6.827,14.507 0,24.747 5.973,9.387 20.48,13.653 43.52,13.653 h 102.4 c 4.267,0 25.6,-1.707 42.667,12.8 11.947,10.24 17.92,26.453 17.92,46.933 -0.855,5.122 -4.268,8.535 -9.388,8.535 z M 45.08,199.701 h 226.133 c -0.853,-11.093 -5.12,-19.627 -11.947,-25.6 -11.947,-10.24 -29.867,-8.533 -29.867,-8.533 H 228.546 127 c -29.013,0 -48.64,-7.68 -58.027,-22.187 -3.413,-5.973 -5.12,-11.947 -5.12,-17.92 -11.947,10.24 -27.307,25.6 -29.867,43.52 -1.706,10.24 2.561,20.48 11.094,30.72 z"
   id="path16" />
	<path
   id="SVGCleanerId_0"
   d="M 502.467,413.035 H 26.307 C 10.947,413.035 -1,401.088 -1,385.728 v -47.787 c 0,-15.36 11.947,-27.307 27.307,-27.307 h 476.16 c 5.12,0 8.533,3.413 8.533,8.533 V 404.5 c 0,5.121 -3.413,8.535 -8.533,8.535 z M 26.307,327.701 c -5.973,0 -10.24,4.267 -10.24,10.24 v 47.787 c 0,5.973 4.267,10.24 10.24,10.24 h 467.627 v -68.267 c -0.001,0 -467.627,0 -467.627,0 z" />
	<path
   d="m 24.6,327.701 c -5.12,0 -8.533,-3.413 -8.533,-8.533 v -102.4 c 0,-5.12 3.413,-8.533 8.533,-8.533 5.12,0 8.533,3.413 8.533,8.533 v 102.4 c 0,5.12 -3.413,8.533 -8.533,8.533 z"
   id="path17" />
	<path
   d="m 58.733,327.701 c -5.12,0 -8.533,-3.413 -8.533,-8.533 V 208.235 c 0,-5.12 3.413,-8.533 8.533,-8.533 5.12,0 8.533,3.413 8.533,8.533 v 110.933 c 10e-4,5.12 -3.413,8.533 -8.533,8.533 z"
   id="path18" />
	<path
   d="m 92.867,327.701 c -5.12,0 -8.533,-3.413 -8.533,-8.533 V 208.235 c 0,-5.12 3.413,-8.533 8.533,-8.533 5.12,0 8.533,3.413 8.533,8.533 v 110.933 c 0,5.12 -3.413,8.533 -8.533,8.533 z"
   id="path19" />
	<path
   d="m 127,327.701 c -5.12,0 -8.533,-3.413 -8.533,-8.533 V 208.235 c 0,-5.12 3.413,-8.533 8.533,-8.533 5.12,0 8.533,3.413 8.533,8.533 v 110.933 c 0,5.12 -3.413,8.533 -8.533,8.533 z"
   id="path20" />
	<path
   d="m 161.133,327.701 c -5.12,0 -8.533,-3.413 -8.533,-8.533 V 208.235 c 0,-5.12 3.413,-8.533 8.533,-8.533 5.12,0 8.533,3.413 8.533,8.533 v 110.933 c 0.001,5.12 -3.413,8.533 -8.533,8.533 z"
   id="path21" />
	<path
   d="m 195.267,327.701 c -5.12,0 -8.533,-3.413 -8.533,-8.533 V 208.235 c 0,-5.12 3.413,-8.533 8.533,-8.533 5.12,0 8.533,3.413 8.533,8.533 v 110.933 c 0,5.12 -3.413,8.533 -8.533,8.533 z"
   id="path22" />
	<path
   d="m 229.4,327.701 c -5.12,0 -8.533,-3.413 -8.533,-8.533 V 208.235 c 0,-5.12 3.413,-8.533 8.533,-8.533 5.12,0 8.533,3.413 8.533,8.533 v 110.933 c 0,5.12 -3.413,8.533 -8.533,8.533 z"
   id="path23" />
	<path
   d="m 263.533,327.701 c -5.12,0 -8.533,-3.413 -8.533,-8.533 V 208.235 c 0,-5.12 3.413,-8.533 8.533,-8.533 5.12,0 8.533,3.413 8.533,8.533 v 110.933 c 0.001,5.12 -3.413,8.533 -8.533,8.533 z"
   id="path24" />
	<path
   d="m 297.667,327.701 c -5.12,0 -8.533,-3.413 -8.533,-8.533 V 208.235 c 0,-5.12 3.413,-8.533 8.533,-8.533 5.12,0 8.533,3.413 8.533,8.533 v 110.933 c 0,5.12 -3.413,8.533 -8.533,8.533 z"
   id="path25" />
	<path
   d="M 425.667,413.035 H 357.4 c -5.12,0 -8.533,-3.413 -8.533,-8.533 v -85.333 c 0,-5.12 3.413,-8.533 8.533,-8.533 h 68.267 c 5.12,0 8.533,3.413 8.533,8.533 v 85.333 c 0,5.119 -3.413,8.533 -8.533,8.533 z m -59.734,-17.067 h 51.2 v -68.267 h -51.2 z"
   id="path26" />
	<g
   id="g26">
		<path
   id="SVGCleanerId_0_1_"
   d="M 502.467,413.035 H 26.307 C 10.947,413.035 -1,401.088 -1,385.728 v -47.787 c 0,-15.36 11.947,-27.307 27.307,-27.307 h 476.16 c 5.12,0 8.533,3.413 8.533,8.533 V 404.5 c 0,5.121 -3.413,8.535 -8.533,8.535 z M 26.307,327.701 c -5.973,0 -10.24,4.267 -10.24,10.24 v 47.787 c 0,5.973 4.267,10.24 10.24,10.24 h 467.627 v -68.267 c -0.001,0 -467.627,0 -467.627,0 z" />
	</g>
</g>
</svg>
