<?xml version="1.0" encoding="UTF-8" standalone="no"?>
<!-- Created with Inkscape (http://www.inkscape.org/) -->

<svg
   width="209.68541mm"
   height="73.641792mm"
   viewBox="0 0 209.68541 73.641792"
   version="1.1"
   id="svg1"
   inkscape:version="1.3.2 (091e20e, 2023-11-25)"
   sodipodi:docname="berg.svg"
   xmlns:inkscape="http://www.inkscape.org/namespaces/inkscape"
   xmlns:sodipodi="http://sodipodi.sourceforge.net/DTD/sodipodi-0.dtd"
   xmlns="http://www.w3.org/2000/svg"
   xmlns:svg="http://www.w3.org/2000/svg">
  <sodipodi:namedview
     id="namedview1"
     pagecolor="#ffffff"
     bordercolor="#000000"
     borderopacity="0.25"
     inkscape:showpageshadow="2"
     inkscape:pageopacity="0.0"
     inkscape:pagecheckerboard="0"
     inkscape:deskcolor="#d1d1d1"
     inkscape:document-units="mm"
     inkscape:zoom="1.1117849"
     inkscape:cx="385.86602"
     inkscape:cy="15.740455"
     inkscape:window-width="1672"
     inkscape:window-height="978"
     inkscape:window-x="0"
     inkscape:window-y="25"
     inkscape:window-maximized="0"
     inkscape:current-layer="layer1" />
  <defs
     id="defs1" />
  <g
     inkscape:label="Lager 1"
     inkscape:groupmode="layer"
     id="layer1"
     transform="translate(0.31587809,-223.5824)">
    <path
       style="opacity:0.65;fill:#999999;stroke-width:0.264583"
       id="path1"
       d="m 209.36953,278.63636 c -0.31286,-1.51615 -0.94355,-2.95384 -1.64744,-4.32581 -0.55962,-1.14033 -1.40128,-2.07608 -2.22586,-3.02464 -1.14081,-1.33778 -2.20543,-2.73597 -3.36751,-4.05733 -1.11635,-1.09503 -2.10114,-2.30986 -3.09805,-3.51162 -0.89186,-1.05635 -1.69084,-2.1858 -2.56817,-3.25332 -0.88216,-0.99284 -1.4142,-2.21279 -2.12405,-3.32121 -0.81861,-1.25596 -1.77473,-2.41211 -2.69374,-3.59422 -0.12748,-0.1822 -0.25251,-0.36614 -0.38244,-0.54659 -0.32844,-0.45613 -0.33895,-0.41531 -0.59286,-0.86585 -0.24669,-0.4377 -0.44928,-0.90265 -0.6591,-1.35853 -0.34007,-0.57409 -0.50548,-1.2252 -0.78371,-1.82404 -0.29443,-0.61325 -0.64829,-1.19279 -0.98665,-1.78201 -0.23272,-0.46825 -0.51689,-0.89319 -0.83167,-1.30933 -0.39617,-0.43251 -0.84509,-0.81793 -1.28324,-1.20845 -0.65409,-0.63968 -1.43285,-1.10243 -2.28689,-1.41762 -0.5864,-0.14768 -0.84097,-0.1762 -1.24252,0.28625 -0.46779,-0.0562 -0.90479,0.31239 -1.23302,0.59266 -1.09752,1.35707 -1.6682,3.03189 -2.19343,4.67167 -0.59712,1.87504 -0.92128,3.81164 -1.25292,5.74529 -0.28082,1.67209 -0.8397,3.27528 -1.33818,4.88987 -0.8037,2.4643 -1.71705,4.8906 -2.64645,7.31016 -0.90462,2.29291 -1.76308,4.60301 -2.62553,6.91182 -1.00587,2.28476 -1.90693,4.61105 -2.78444,6.94743 -0.65653,1.78686 -1.28175,3.58658 -2.03186,5.33712 -0.36791,0.70218 -0.66918,1.42693 -0.94474,2.16779 -0.1447,0.23566 -0.0472,0.5657 -0.18905,0.78266 0.0163,-0.0246 0.072,-0.0922 0.0488,-0.0739 -0.202,0.15907 -0.21347,0.91758 -0.0508,0.0941 0.0964,-0.16479 -0.55399,0.52631 -0.35988,0.45799 0.16162,-0.0569 0.30104,-0.16364 0.45157,-0.24548 -0.60807,-0.25725 -1.33738,0.0907 -1.91342,0.30948 -0.094,0.0406 -0.18538,0.0879 -0.28198,0.12184 -0.0824,0.029 -0.17085,0.0382 -0.25354,0.0664 -0.21464,0.0732 -0.42117,0.22292 -0.64532,0.26075 -0.0197,-0.005 -0.0784,-0.009 -0.059,-0.0151 0.0389,-0.0119 0.0861,0.0148 0.12196,-0.005 0.0261,-0.014 -0.0585,-0.008 -0.0876,-0.014 -0.0892,-0.0164 -0.17091,-0.0352 -0.25773,-0.0624 -0.1109,-0.0164 -0.31637,-0.0751 -0.41126,-0.0259 -0.0209,0.0109 -0.25473,0.31734 -0.33059,0.30253 -0.19889,0.0722 -0.43132,0.0122 -0.64,-0.003 -0.31604,-0.0494 -0.62502,-0.0744 -0.94517,-0.073 -0.4084,-0.0249 -0.79262,0.10197 -1.13162,0.32731 -0.39013,0.0101 0.22701,0.70144 0.49651,0.47718 -0.0128,0.0135 -0.0228,0.051 -0.0382,0.0406 -0.2329,-0.15729 -0.44583,-0.34234 -0.66639,-0.51649 -0.0293,-0.0233 -0.10619,-0.0222 -0.096,-0.0581 0.006,-0.0206 0.0399,-0.0164 0.0598,-0.0249 -0.45206,-0.0116 -0.89253,-0.11316 -1.32063,-0.25307 0.15265,0.19452 0.0404,0.0266 -0.11592,0.59468 0.0422,-0.0159 -0.18075,-0.61272 -0.22296,-0.59696 v 0 c -0.34673,0.62365 -0.46375,0.40969 -0.19508,0.70512 0.48596,0.30525 1.04672,0.39285 1.61258,0.40947 0.29548,-0.009 0.41854,0.0212 0.66275,-0.0637 0.0283,-0.01 0.34704,-0.15221 0.32242,-0.20486 -0.11995,-0.25646 -0.33595,-0.45853 -0.53597,-0.6589 -0.0204,-0.0204 -0.0447,0.0366 -0.067,0.0549 -0.451,0.34488 0.19308,1.0107 0.5535,0.64426 0.28036,-0.12227 0.5513,-0.21807 0.86441,-0.19672 -0.2039,-0.006 0.48685,0.007 0.5157,0.0696 0.48413,0.0751 1.01338,0.10239 1.41963,-0.21434 0.3387,-0.39888 0.1767,-0.18687 -0.0179,-0.11102 -0.0509,0.0199 -0.10933,-1.6e-4 -0.164,0 -0.0338,1.1e-4 0.17099,-2e-5 0.10136,0.005 0.29284,0.0172 0.5815,0.22762 0.89224,0.09 0.42216,-0.13803 0.84124,-0.28601 1.26156,-0.42926 0.30691,-0.11673 0.60772,-0.23445 0.92451,-0.32181 0.0683,-0.0188 0.16467,0.004 0.20566,-0.0535 0.0275,-0.0387 -0.097,-0.0175 -0.13464,-0.0466 -0.0202,-0.0156 0.0508,0 0.0763,0.003 0.8767,-0.17526 0.48727,0.0103 0.71475,-0.16332 0.10516,-0.22419 0.32145,-0.6685 0.19814,-0.26475 -0.0237,0.0778 -0.20128,0.23054 0.0411,-0.006 0.16212,-0.28273 0.17123,-0.59438 0.27465,-0.89752 0.28266,-0.72641 0.67609,-1.39589 1.03173,-2.08848 0.86138,-1.72533 1.45682,-3.56362 2.1912,-5.34395 0.86847,-2.33535 1.77915,-4.65474 2.71022,-6.96579 0.8911,-2.30098 1.80683,-4.59148 2.71295,-6.88629 0.90697,-2.44202 1.79476,-4.89346 2.50294,-7.40214 0.4983,-1.64561 0.96567,-3.29836 1.29454,-4.98777 0.31238,-1.90718 0.75434,-3.79172 1.29917,-5.64602 0.45325,-1.54668 0.94219,-3.12464 1.85633,-4.4708 0.21708,-0.19796 0.40788,-0.3546 0.68727,-0.45471 0.12192,-0.0437 0.26312,-0.0589 0.37918,-0.12003 0.0537,-0.0283 0.0963,-0.074 0.1444,-0.111 0.0303,-0.0334 0.0533,-0.0741 0.0885,-0.10221 0.0129,-0.0103 0.0562,-0.0154 0.0427,-0.0248 -0.0241,-0.0168 -0.11704,-0.005 -0.0878,-0.007 0.17635,-0.0108 0.21684,0.0205 0.41444,0.0699 0.78013,0.31666 1.53701,0.70378 2.1548,1.28678 0.41797,0.36387 0.83005,0.73297 1.22995,1.11525 0.29578,0.40089 0.59932,0.78309 0.79698,1.24648 0.31088,0.59316 0.65128,1.17275 0.97894,1.75604 0.29592,0.58942 0.42796,1.24541 0.74428,1.82769 0.46113,1.01896 0.99379,2.00174 1.67095,2.89561 0.90773,1.16936 1.83174,2.32859 2.67321,3.54718 0.71937,1.12595 1.30181,2.34022 2.19088,3.34851 0.84978,1.09042 1.66324,2.20952 2.55311,3.26826 0.97887,1.22374 2.02405,2.39598 3.08123,3.55236 1.18043,1.3081 2.22447,2.73069 3.43733,4.00945 0.82346,0.89601 1.6361,1.79213 2.14955,2.912 0.64657,1.36059 1.23133,2.74937 1.75635,4.16155 0.004,0.0319 0.45531,-0.0311 0.45086,-0.063 z" />
    <path
       style="opacity:0.65;fill:#999999;stroke-width:0.264583"
       id="path2"
       d="m 167.91595,280.95535 c -1.30765,-1.23828 -2.45059,-2.63517 -3.57588,-4.03828 -0.95811,-1.22817 -1.66365,-2.60837 -2.34222,-4.00082 -0.86378,-1.87672 -1.89108,-3.66697 -2.88382,-5.47643 -0.66073,-1.15951 -1.29455,-2.34018 -1.8155,-3.56982 -0.60699,-1.31048 -1.37957,-2.53096 -2.00722,-3.83148 -0.6143,-1.26006 -1.36603,-2.44277 -2.05486,-3.66138 -0.35044,-0.56786 -0.72452,-1.12168 -0.99932,-1.72982 -0.0267,-0.0584 -0.0535,-0.1167 -0.08,-0.17518 -0.15718,-0.34696 -0.11356,-0.27464 -0.71097,0.18801 -7.9e-4,8e-4 0.0839,0.14808 0.0923,0.16275 0.0539,0.11616 0.004,-0.0764 -0.0104,-0.0626 -0.19533,0.19033 -0.48821,0.89025 -0.61231,1.12906 -0.82397,1.78759 -1.6342,3.5831 -2.36105,5.41274 -0.6324,1.57181 -1.21912,3.17384 -1.5299,4.84304 -0.27193,1.36456 -0.69632,2.69301 -1.11261,4.01873 -0.76052,2.34802 -1.51457,4.69641 -2.40202,7.00011 -0.39807,0.98152 -0.82295,1.95564 -1.3293,2.88692 -0.13429,0.24892 -0.15614,0.5484 -0.29289,0.79396 -0.0689,-0.088 -0.2353,0.67818 -0.26076,0.60772 0.005,-0.0175 0.0321,-0.0615 0.0161,-0.0526 -0.2046,0.11346 -0.35013,0.57727 -0.40622,0.75975 -0.21528,0.57386 -0.39683,1.17155 -0.70169,1.70583 -0.22358,0.35544 -0.0655,0.14859 0.0806,0.67516 0.0255,0.0918 -0.12738,-0.14571 -0.16577,-0.23291 -0.14773,0.36147 -0.40233,0.50347 -0.32317,0.9321 0.0235,0.078 0.047,0.156 0.0705,0.23399 -0.002,0.0135 0.18851,0.035 0.19003,0.0214 v 0 c 0.0392,-0.0385 0.0785,-0.077 0.11772,-0.11547 0.39086,-0.12692 0.56648,-0.57224 0.66515,-0.94287 0.002,-0.13441 0.0371,-0.84783 -0.16023,-0.50292 -0.0647,0.11303 0.0728,0.25207 0.0819,0.38198 0.002,0.0346 -0.0823,0.0837 -0.0487,0.0918 0.0906,0.022 0.0975,-0.25509 0.18095,-0.21302 0.34785,-0.57854 0.58806,-1.20944 0.76509,-1.86087 0.0594,-0.25098 0.12118,-0.42349 0.30818,-0.6042 0.083,-0.22246 0.1323,-0.44164 0.28745,-0.6354 0.092,-0.24193 0.13712,-0.49977 0.27689,-0.72414 0.56983,-0.94204 1.18332,-1.85607 1.58423,-2.89229 0.15753,-0.37028 0.32767,-0.73543 0.47258,-1.11083 0.75475,-1.95513 1.23677,-4.00121 1.91127,-5.98307 0.35597,-1.35768 0.70625,-2.71648 0.96573,-4.09633 0.4172,-1.60991 1.11873,-3.12626 1.68818,-4.68446 0.69994,-1.81569 1.43746,-3.61599 2.17334,-5.41731 0.17774,-0.39051 0.615,-1.15943 0.5334,-1.60832 -0.006,-0.0166 -0.0647,-0.18448 -0.0686,-0.18436 -0.76042,0.023 -0.82149,-0.0565 -0.67454,0.3269 0.0237,0.0618 0.0482,0.12319 0.0723,0.18479 0.26414,0.62971 0.58982,1.2359 0.93531,1.82427 0.65849,1.22288 1.42589,2.38431 2.02517,3.63871 0.651,1.28507 1.38411,2.51743 2.06162,3.78654 0.59392,1.21389 1.07932,2.47791 1.74807,3.65557 0.99439,1.80441 2.08858,3.55285 3.02754,5.38755 0.73592,1.41235 1.45309,2.83279 2.41012,4.11515 1.16978,1.41737 2.35756,2.87149 3.8939,3.90906 0.0188,0.0209 0.31306,-0.24564 0.29422,-0.26644 z" />
    <circle
       id="path3"
       style="fill:#999999;stroke:#000000;stroke-width:0.264583"
       cx="143.0264"
       cy="275.81964"
       r="0.007924757" />
    <path
       style="opacity:0.65;fill:#999999;stroke-width:0.264583"
       id="path4"
       d="m 142.23244,273.55503 c -1.5104,-3.3097 -3.86149,-6.12899 -6.15464,-8.91624 -2.08549,-2.36459 -4.24671,-4.66762 -6.47511,-6.89841 -2.19108,-2.19341 -2.11481,-1.96458 -4.21247,-4.14217 -0.61009,-0.63335 -1.1933,-1.29206 -1.78995,-1.93809 -1.26679,-1.36929 -2.42572,-2.8391 -3.33671,-4.4712 -0.62289,-1.11596 -1.09301,-2.31098 -1.58114,-3.48906 -0.4272,-1.14317 -0.71546,-2.33094 -1.18724,-3.45701 -0.55754,-1.1321 -1.23835,-2.1987 -1.88159,-3.28338 -0.40579,-0.76566 -0.9448,-1.44202 -1.45782,-2.13503 -0.38181,-0.45551 -0.69122,-0.963 -1.05295,-1.43465 -0.60037,-0.8174 -1.08515,-1.69566 -1.52253,-2.60779 -0.49965,-1.38197 -1.18198,-2.63446 -1.98051,-3.8639 -0.71794,-0.99333 -1.4592,-1.96683 -2.05321,-3.04124 -0.20707,-0.38675 -0.14341,-0.42081 -0.72382,0.13105 -0.031,0.0295 0.0557,0.0651 0.0817,0.0991 0.10776,0.14108 0.091,0.0769 0.0679,0.23019 -0.14024,1.00031 -0.57798,1.9319 -0.83945,2.90283 -0.0867,0.32198 -0.15159,0.64945 -0.22739,0.97417 -0.51086,2.33463 -0.53223,4.73786 -0.59017,7.11657 -0.14835,3.22691 -0.22592,6.45616 -0.30307,9.68545 -0.19158,4.02965 -0.25988,8.06422 -0.44892,12.09365 -0.0397,2.5937 -0.67002,5.09796 -1.21453,7.61491 -0.32391,1.61446 -0.5265,3.24276 -0.70834,4.87736 -0.27147,1.98458 -0.54942,3.9679 -0.77123,5.95897 -0.0587,0.88911 -0.22429,1.77234 -0.50617,2.61781 -0.16278,0.42122 -0.29422,0.85953 -0.37607,1.30403 -0.0566,0.54134 -0.25041,1.05566 -0.39565,1.57702 -0.369,1.23595 -0.636989,2.49883 -1.063085,3.71721 -0.0582,0.15306 -0.1164,0.30615 -0.174601,0.45921 -0.04269,0.11065 -0.08578,0.22117 -0.128071,0.33198 -0.02246,0.0588 -0.122127,0.21658 -0.07724,0.1724 0.04198,-0.0413 0.180375,-0.15087 0.131662,-0.11779 -0.07978,0.0542 -0.150249,0.12096 -0.225374,0.18145 -0.316791,0.60449 -0.518189,1.28466 -0.685403,1.94667 -0.270545,0.92636 -0.477708,1.86865 -0.729306,2.79979 -0.03511,0.33068 -0.189434,0.60024 -0.342982,0.88138 -0.21531,0.56079 -0.440788,1.11808 -0.604964,1.69643 -0.248518,0.66432 -0.165492,1.3443 -0.137647,2.03325 -0.0024,0.0145 0.204861,0.0483 0.207243,0.0337 v 0 c 0.154985,-0.34407 0.354687,-0.66897 0.483073,-1.02381 0.10046,-0.27768 0.08838,-0.58785 0.20977,-0.86063 0.154569,-0.53134 0.349223,-1.04924 0.514453,-1.57726 0.174527,-0.31531 0.355047,-0.62831 0.431766,-0.9856 0.323627,-0.92181 0.532754,-1.88331 0.78396,-2.82623 0.140346,-0.56192 0.284358,-1.14162 0.459637,-1.68518 -0.0374,0.0204 -0.147175,0.085 -0.112197,0.0608 0.06704,-0.0464 0.145809,-0.0757 0.20869,-0.12759 0.332636,-0.27453 0.397736,-0.8034 0.620656,-1.14318 0.45821,-1.23137 0.7347,-2.52042 1.01104,-3.80312 0.1202,-0.54393 0.30291,-1.07535 0.37339,-1.62965 0.0681,-0.41455 0.17525,-0.81246 0.36211,-1.19131 0.33915,-0.87733 0.51792,-1.80827 0.65283,-2.73643 0.33852,-1.98601 0.58791,-3.98939 0.78468,-5.9939 0.1191,-1.60969 0.38229,-3.20333 0.74745,-4.77599 0.56061,-2.56202 1.33466,-5.09204 1.44418,-7.73163 0.0997,-1.54121 0.17058,-2.46793 0.22552,-4.02637 0.0951,-2.69746 0.0575,-5.39802 0.16826,-8.09518 0.10944,-3.23155 0.0754,-6.46701 0.18777,-9.69914 0.009,-1.25312 0.055,-2.49493 0.12129,-3.74607 0.0572,-1.08038 0.0895,-2.16574 0.36476,-3.21997 0.0624,-0.30902 0.11433,-0.62037 0.18732,-0.92707 0.25094,-1.05437 0.71215,-2.07651 0.69514,-3.18043 -0.001,-0.005 -0.13188,-0.69431 -0.26943,-0.68827 -0.88145,0.0387 -0.81413,0.10766 -0.64058,0.61131 0.5207,1.14195 1.26984,2.14802 2.00052,3.16348 0.42595,0.6328 0.84258,1.27621 1.20016,1.95124 0.3748,0.70754 0.22799,0.50175 0.52994,1.21031 0.083,0.19483 0.17708,0.38476 0.26561,0.57714 0.44888,0.96198 0.99252,1.87626 1.60346,2.74466 0.35408,0.44771 0.7083,0.89817 1.07446,1.33265 0.39301,0.75637 0.9664,1.41393 1.34022,2.18393 0.62966,1.05631 1.29755,2.08715 1.87882,3.17155 0.47207,1.12402 0.68477,2.31371 1.03978,3.47767 0.43739,1.25639 0.90141,2.49611 1.51598,3.67991 0.88993,1.71421 1.98867,3.31121 3.23717,4.78349 0.59497,0.66778 1.17545,1.34875 1.78492,2.00332 3.47183,3.72875 7.29309,7.1213 10.65192,10.95737 2.00412,2.281 4.03794,4.5675 5.85245,7.00628 0.32468,0.43637 0.59554,0.9109 0.91842,1.34871 0.0163,0.0397 0.57775,-0.19074 0.56146,-0.23043 z" />
    <path
       style="opacity:0.65;fill:#999999;stroke-width:0.264583"
       id="path5"
       d="m 116.87256,246.91628 c -0.0932,0.85256 -0.0626,1.71078 -0.0776,2.56618 -0.004,0.24448 -0.0129,1.07297 -0.10322,1.37112 -0.0216,0.0713 -0.0983,0.112 -0.14753,0.16799 -0.0128,-0.0636 -5.3e-4,-0.13813 -0.0385,-0.19069 -0.10272,-0.14219 -0.25077,-0.24555 -0.36975,-0.37443 -0.63189,-0.68448 -1.21075,-1.3906 -1.90431,-2.01647 -1.03845,-0.80266 -1.21693,0.38696 -1.38816,1.15416 -0.0461,0.0956 -0.0722,0.20378 -0.13832,0.28685 -0.35819,0.45029 -1.11231,-0.014 -1.49334,-0.15956 -1.39263,-0.60957 -1.87545,-0.25809 -2.91958,0.74836 -0.49838,0.54226 -1.09571,0.9368 -1.8393,1.01708 -0.16876,0.0182 -0.33925,-0.0127 -0.50883,-0.02 -0.0552,-0.0221 -0.11033,-0.0442 -0.1655,-0.0662 -0.0106,-0.0159 -0.2356,0.13392 -0.225,0.14983 v 0 c 0.0591,0.11379 0.11824,0.22758 0.17737,0.34137 0.11422,0.0498 0.2195,0.13059 0.34268,0.14953 1.0686,0.16434 1.99666,-0.46627 2.68977,-1.20332 0.67679,-0.69189 0.14372,-0.17947 0.82703,-0.75949 0.0664,-0.0563 0.11017,-0.1465 0.19148,-0.17761 0.37587,-0.14381 0.8181,0.16931 1.14865,0.27502 0.9443,0.35126 1.93814,0.70374 2.39622,-0.49392 0.0545,-0.25713 0.0928,-0.51779 0.15544,-0.77306 0.0217,-0.0885 0.0865,-0.16881 0.0847,-0.2599 -7.9e-4,-0.0438 -0.10033,-0.051 -0.0919,-0.0941 0.0265,-0.13574 0.64369,0.22507 0.3678,0.192 0.46394,0.49482 0.91945,0.99701 1.38078,1.49415 0.16346,0.17615 0.79212,0.87603 1.05149,0.982 0.19678,0.0804 0.42418,0.0287 0.63627,0.043 0.0932,-0.11313 0.22185,-0.2047 0.27973,-0.3394 0.14445,-0.33612 0.1778,-1.13025 0.18706,-1.4444 0.0252,-0.85476 -0.0139,-1.71412 -0.0777,-2.56619 0,-0.0302 -0.42788,-0.0302 -0.42788,0 z" />
    <path
       style="opacity:0.65;fill:#999999;stroke-width:0.264583"
       id="path6"
       d="m 154.06268,262.02428 c -0.0797,0.33648 -0.13872,2.08076 -0.69913,1.96774 -0.10674,-0.0215 -0.17493,-0.12973 -0.26239,-0.1946 -0.51811,-0.32743 -0.87153,-0.82721 -1.27293,-1.27536 -0.0939,-0.10489 -0.35076,-0.44706 -0.57227,-0.41876 -0.13848,0.0177 -0.24878,0.12673 -0.37317,0.19009 -0.32115,0.51321 -0.33219,1.29169 -0.88471,1.64094 -0.0821,0.0519 -0.17824,0.0771 -0.26736,0.11564 -0.45354,0.11969 -0.22582,0.0556 -0.68306,0.19259 -0.0147,0.005 0.0612,0.21326 0.0759,0.20789 v 0 c 0.571,0.0151 0.29463,0.0494 0.82998,-0.0956 0.11253,-0.0594 0.23496,-0.1029 0.33757,-0.17811 0.5358,-0.39269 0.65868,-1.08628 0.8559,-1.67557 -0.0208,-0.0385 -0.0928,-0.0841 -0.0625,-0.11565 0.0324,-0.0337 0.0995,0.01 0.13386,0.0414 0.10099,0.0931 0.17402,0.21261 0.25884,0.32066 0.31972,0.40732 0.46443,0.64852 0.86945,1.00057 0.17019,0.14793 0.36706,0.26204 0.55059,0.39307 0.2271,0.0457 0.4506,0.15821 0.68129,0.13717 0.78605,-0.0717 0.76454,-1.71637 0.78173,-2.25411 0,-0.021 -0.29761,-0.021 -0.29761,0 z" />
    <path
       style="opacity:0.65;fill:#999999;stroke-width:0.264583"
       id="path7"
       d="m 177.95441,258.52811 c 0.32469,1.51821 0.83071,3.00048 1.50619,4.39801 0.59934,0.97532 1.13044,0.45868 1.52462,-0.296 0.5978,-1.19705 1.25659,-2.35943 1.91506,-3.52445 0.24329,-0.47274 0.48606,-0.94496 0.73711,-1.4135 0.0979,-0.18274 0.21925,-0.3753 0.25642,-0.5832 -0.11869,0.0518 -0.28865,0.0448 -0.35609,0.15541 -0.0745,0.12212 -0.008,0.28632 -5.3e-4,0.42914 0.0129,0.2284 0.0369,0.45612 0.0631,0.68338 0.10112,0.87749 0.28108,1.71584 0.50349,2.56944 0.24294,0.94136 0.67915,1.81311 0.97981,2.73421 0.20312,0.6223 0.37788,1.25351 0.56745,1.88004 0.29618,1.04744 0.2494,0.87342 0.52336,1.87363 0.059,0.21526 0.11438,0.4315 0.17563,0.64613 0.0312,0.10944 -0.007,0.35968 0.10174,0.32587 0.59381,-0.18482 0.49951,-1.10776 0.53811,-1.47405 0.30537,-2.79477 0.43109,-5.60636 0.76541,-8.3981 0.0192,-0.13714 0.0383,-0.27429 0.0575,-0.41144 0.0142,-0.0188 0.063,-0.0681 0.0426,-0.0563 -0.0386,0.0223 -0.0918,0.0454 -0.0997,0.0893 -10e-4,0.008 0.17745,0.2472 0.19354,0.28134 0.15743,0.55835 0.57195,-0.52034 0.60182,-0.58752 0.22051,-0.38947 0.37937,-0.81796 0.62153,-1.1957 0.0409,-0.0638 0.089,-0.12372 0.14346,-0.17646 0.0217,-0.0211 0.10266,-0.0621 0.081,-0.0409 -0.0303,0.0296 -0.072,0.0448 -0.10795,0.0672 0.28725,0.39919 0.55702,0.93477 1.07022,1.08024 0.0957,0.0271 0.19805,0.0197 0.29707,0.0295 0.26785,-0.0446 0.51857,-0.11909 0.60878,-0.4031 0.0173,-0.0544 0.0133,-0.11344 0.0166,-0.17043 8e-4,-0.0125 3e-5,-0.0488 -0.005,-0.0372 -0.0128,0.0322 -0.014,0.0678 -0.0211,0.10171 0.23557,-0.21314 0.37384,-0.49582 0.51991,-0.77145 0.0112,-0.0234 -0.32006,-0.18177 -0.33125,-0.15834 v 0 c -0.14136,0.21801 -0.28861,0.43354 -0.39779,0.67041 -0.10898,0.15835 -0.1115,0.28731 -0.2865,0.39217 -0.59989,0.0636 -0.86341,-0.64974 -1.24005,-0.99903 -0.11469,-0.0263 -0.22651,-0.0839 -0.34407,-0.0789 -0.40671,0.0172 -0.87228,1.27865 -1.0192,1.56062 -0.005,0.015 -0.26393,0.69988 -0.23209,0.77382 0.23424,0.54412 0.48238,-0.0209 0.34741,-0.17603 -0.29592,-0.68554 -0.84669,-0.63863 -1.02549,0.13855 -0.67778,2.76015 -0.74909,5.62711 -0.81556,8.45613 0.006,0.29398 -0.1836,1.27048 0.40889,1.43122 0.11308,0.0307 -0.0115,-0.2344 -0.0286,-0.35031 -0.1285,-0.8736 -0.37223,-1.72599 -0.62888,-2.56882 -0.22921,-0.73289 -0.35706,-1.1774 -0.62459,-1.89383 -0.33345,-0.89291 -0.77288,-1.74686 -0.95186,-2.69286 -0.21488,-0.83527 -0.38798,-1.6684 -0.54908,-2.51542 -0.041,-0.21559 -0.0905,-0.42963 -0.12635,-0.64614 -0.0204,-0.12337 0.0145,-0.26144 -0.0425,-0.37273 -0.0631,-0.12312 -0.19799,-0.19325 -0.29698,-0.28987 -0.43268,0.58492 -0.69529,1.29346 -1.0787,1.90832 -0.69212,1.15427 -1.35544,2.32013 -1.8602,3.57155 -0.1082,0.2272 -0.12764,0.31203 -0.28446,0.49483 -0.0443,0.0516 -0.10614,0.0868 -0.14882,0.1398 -0.0154,0.0191 0.004,0.073 -0.0207,0.0708 -0.18511,-0.0172 -0.29515,-0.32533 -0.34917,-0.41601 -0.58391,-1.42343 -1.08112,-2.87969 -1.62114,-4.31994 -0.005,-0.0194 -0.27858,0.0459 -0.27397,0.0652 z" />
    <path
       style="opacity:0.65;fill:#999999;stroke-width:0.264583"
       id="path11"
       d="m 181.54467,242.93663 c -0.1243,-1.14133 -0.29834,-2.27643 -0.45791,-3.41326 -0.0541,-0.64491 -0.0787,-1.28575 -0.15375,-1.92876 -0.0345,-0.28571 -0.0598,-0.5724 -0.0881,-0.85875 -0.0188,-0.18995 -0.0227,-0.25512 -0.0284,-0.25443 -0.14916,0.018 -0.28695,0.0891 -0.43042,0.13371 0.13379,0.5788 0.97315,0.62052 1.44123,0.69504 0.69244,0.038 1.45275,0.165 2.1276,-0.0588 0.0262,-0.012 0.0819,-0.007 0.0786,-0.0359 -0.016,-0.13978 -0.0603,-0.279 -0.12864,-0.40201 -0.0327,-0.059 -0.35678,0.0219 -0.3875,0.0401 -0.12371,0.49589 1.5e-4,1.02768 0.0156,1.54234 0.0183,0.2963 -0.085,0.46742 0.39482,0.20046 0.002,-0.001 -0.0192,-0.17223 -0.0207,-0.18542 -0.008,-0.23555 -0.43886,-0.11068 -0.35529,0.17676 0.51942,-0.32236 0.0315,-0.31292 -0.20503,-0.26712 -0.13434,0.026 -0.29338,0.12393 -0.41859,0.18092 -0.28946,0.0552 -0.54865,0.20023 -0.8337,0.27111 -0.24027,0.0527 -0.48861,2.6e-4 -0.72995,-0.0288 -0.25808,-0.0264 -0.47474,-0.079 -0.68404,0.091 -0.0116,0.004 0.0391,0.16773 0.0507,0.16415 v 0 c -0.008,0.0304 -0.038,0.063 -0.0242,0.0912 0.0508,0.1042 0.42969,-0.007 0.51622,0.0559 0.3552,0.0304 0.71484,0.0973 1.06639,-0.001 0.29439,-0.0915 0.57326,-0.2225 0.87042,-0.3042 0.0783,-0.0333 0.29489,-0.0821 0.3486,-0.14561 0.13892,-0.1642 -0.21103,0.093 -0.005,-0.0493 0.14337,-0.0284 0.28673,-0.0568 0.43009,-0.0852 0.0197,-0.28222 -0.46229,-0.41479 -0.42903,-0.12434 5.3e-4,0.0183 0.005,0.2005 0.0147,0.2061 0.3892,0.21706 0.42598,0.20773 0.44598,-0.0654 0.005,-0.0639 0.005,-0.12803 0.007,-0.19205 -0.005,-0.17618 -0.0271,-1.184 -0.12698,-1.26906 -0.0346,-0.0295 -0.0811,0.0414 -0.1216,0.0621 -0.10046,0.0806 0.10583,-0.0767 -0.1009,0.0261 -0.0166,0.008 0.037,0.003 0.0555,0.005 0.0261,0.002 0.0689,0.0292 0.0783,0.005 0.15372,-0.40067 0.18168,-0.38762 0.0177,-0.37416 -0.58551,0.0176 -1.17154,0.0432 -1.75582,-0.0216 -0.0765,-0.01 -1.15835,-0.15609 -1.16788,-0.17034 -0.0214,-0.0321 -0.0122,-0.0762 -0.0183,-0.11428 -0.15738,-0.0186 -0.3144,-0.0711 -0.47214,-0.0558 -0.0589,0.006 0.0441,1.0666 0.0689,1.17589 0.10343,0.64501 0.0456,1.2747 0.0816,1.9269 0.10885,1.15256 0.31229,2.29157 0.54536,3.42486 0.005,0.0345 0.49343,-0.0337 0.48861,-0.0682 z" />
    <path
       style="opacity:0.65;fill:#999999;stroke-width:0.264583"
       id="path12"
       d="m 45.799935,295.03602 c -0.440049,-1.79855 -1.123561,-3.5203 -1.845,-5.22144 -0.48723,-1.30522 -1.173964,-2.52262 -1.705621,-3.8081 -0.26018,-0.6291 -0.492651,-1.26931 -0.739886,-1.90359 -0.879332,-2.29349 -1.632495,-4.63426 -2.375445,-6.97498 -0.77675,-2.28721 -1.646396,-4.5416 -2.498733,-6.80148 -0.817496,-2.01184 -1.643689,-4.0196 -2.397323,-6.05647 -0.679982,-1.92036 -1.361945,-3.83958 -2.013461,-5.76982 -0.701876,-2.11932 -1.381495,-4.24459 -2.113883,-6.35366 -0.690636,-2.15478 -1.482122,-4.27526 -2.287796,-6.38907 -0.117116,-0.29989 -0.229471,-0.60167 -0.351341,-0.89965 -0.36137,-0.88358 -0.36118,-0.77403 -0.680183,-1.66832 -0.35643,-0.99922 -0.659886,-2.01988 -0.964743,-3.03553 -0.686501,-2.29206 -1.419921,-4.56982 -2.113966,-6.85973 -0.273149,-0.6749 -0.338317,-1.58028 -1.267266,-0.69588 -0.03877,0.0369 0.09245,0.56726 0.09891,0.59594 0.01034,0.0719 0.03402,0.14316 0.031,0.21575 -0.01556,0.37382 -0.255253,0.78948 -0.360946,1.13692 -0.151492,0.498 -0.262656,0.99243 -0.385431,1.49869 -0.438718,2.17016 -0.590504,4.38115 -0.706118,6.58777 0.0236,2.02699 -0.2637,3.86067 -0.907503,5.77753 -0.570621,1.81855 -1.43647,3.51723 -2.24247,5.23744 -0.726465,1.51681 -1.261813,3.1152 -1.92121,4.66183 -0.709183,1.73136 -1.565899,3.38247 -2.619208,4.92866 -0.837666,1.2901 -1.793797,2.48843 -2.868634,3.58645 -0.8919502,0.83799 -1.1690904,1.9985 -1.5118734,3.13145 -0.4255357,1.26629 -0.6298314,2.59323 -1.0147755,3.86985 -0.077147,0.25585 -0.4534548,1.31585 -0.5525236,1.59715 -0.4751503,1.25265 -1.1753161,2.40292 -1.8238181,3.57066 -0.4987922,0.83002 -0.7710977,1.75916 -1.1372413,2.64771 -0.2879921,0.96748 -0.7395091,1.87071 -1.1355395,2.79519 -0.3191341,0.92663 -0.7370813,1.80277 -1.1652694,2.68253 -0.1838589,0.44231 -0.4224983,0.93102 -0.482068,1.41566 -0.02631,0.21404 0.017293,0.43098 0.02594,0.64648 -0.00763,0.0295 0.4104871,0.13748 0.4181189,0.10792 v 0 c 0.1280087,-0.16936 0.2762842,-0.32517 0.384026,-0.5081 0.1245204,-0.21143 0.4767184,-1.07942 0.5708294,-1.30551 0.4107074,-0.89598 0.7886644,-1.80242 1.1619039,-2.71433 0.4028459,-0.93097 0.8359002,-1.85143 1.1215351,-2.82829 0.3225636,-0.86752 0.667847,-1.72294 1.1480149,-2.5196 0.6882413,-1.19817 1.3445466,-2.41972 1.8905694,-3.68999 0.2407896,-0.61912 0.4117946,-1.02428 0.6039977,-1.67299 0.377567,-1.27431 0.6040339,-2.59185 0.9756525,-3.86815 0.150392,-0.61259 0.244244,-1.3358 0.512342,-1.91601 0.161633,-0.34978 0.493152,-0.58293 0.742419,-0.86196 1.168362,-1.09291 2.189838,-2.32153 3.056537,-3.66926 0.424573,-0.64628 0.685001,-1.01508 1.057843,-1.69188 0.605124,-1.09843 1.085557,-2.26105 1.588804,-3.40764 0.627571,-1.54413 1.166252,-3.12443 1.894148,-4.62592 0.848983,-1.74063 1.716858,-3.48219 2.286062,-5.34028 0.196898,-0.63294 0.401288,-1.24286 0.545486,-1.89078 0.299439,-1.34546 0.351016,-2.72275 0.411147,-4.09485 0.14595,-2.16264 0.264069,-4.32759 0.619707,-6.46944 0.08512,-0.43888 0.186403,-1.00298 0.299834,-1.44486 0.145511,-0.56684 0.392952,-1.12412 0.304289,-1.72329 -0.03655,-0.17739 -0.08726,-0.43176 -0.09529,-0.43236 -0.245734,-0.0186 -0.484442,0.0965 -0.730061,0.11657 -0.02154,0.002 -0.03959,-0.0753 -0.0358,-0.0541 0.05088,0.28597 0.200864,0.54976 0.223279,0.84228 0.566251,2.33825 1.235783,4.64247 2.026176,6.91602 0.62193,1.90353 1.266726,3.79743 2.056239,5.63974 0.784273,2.11316 1.470067,4.26208 2.232951,6.38309 0.740032,2.10248 1.429872,4.22224 2.167157,6.32559 0.644128,1.94409 1.324594,3.87714 2.065922,5.78662 0.77012,2.03294 1.495375,4.08166 2.331173,6.08974 0.895792,2.22671 1.856319,4.42788 2.586558,6.71724 0.747745,2.36445 1.56513,4.70368 2.543117,6.98458 0.796026,1.92024 1.664661,3.80595 2.524249,5.69801 0.720022,1.69452 1.422795,3.39651 2.16553,5.08119 0.0074,0.0268 0.386393,-0.0782 0.378968,-0.10499 z" />
    <path
       style="opacity:0.65;fill:#999999;stroke-width:0.264583"
       id="path13"
       d="m 10.773758,268.62214 c -0.08396,-0.17314 -0.16159,-0.34951 -0.251875,-0.51945 -0.299484,-0.5637 -0.5710008,-0.97936 -0.896406,-1.53932 -0.5409232,-0.93083 -1.0350974,-1.88466 -1.5302664,-2.84022 -0.664646,-1.29392 -1.1188009,-2.68358 -1.7689266,-3.9833 -0.5804358,-1.45775 -1.4564042,-2.75777 -2.24141,-4.10644 -0.4803098,-0.7591 -0.7916614,-1.61087 -1.0847583,-2.45624 -0.049187,-0.13425 -0.096674,-0.26913 -0.1475621,-0.40274 -0.06869,-0.18036 -0.132161,-0.34668 -0.2223366,-0.51544 -0.017372,-0.0325 -0.024606,-0.10292 -0.060064,-0.0928 -0.7389123,0.20987 -0.7109313,0.0863 -0.6301446,0.45912 -0.3750065,1.03333 -0.8851998,2.0138 -1.24978049,3.05363 -0.1313335,0.37458 -0.24000933,0.75672 -0.36001401,1.13508 -0.39960001,1.58145 -0.95755528,3.65119 -0.43182656,5.27187 0.05142803,0.15853 0.14734416,0.299 0.22101624,0.44851 0.12307128,0.0701 0.24614256,0.1402 0.36921387,0.21031 0.003758,0.004 0.066591,-0.0487 0.0628334,-0.0531 v 0 c -0.0399943,-0.0773 -0.0799886,-0.15465 -0.11998296,-0.23197 -0.0353161,-0.63488 0.0748684,-1.25903 0.17156605,-1.88686 0.18164944,-1.17942 0.3809348,-2.35982 0.68792946,-3.51405 0.271116,-0.92108 0.3551161,-1.24514 0.6630359,-2.14281 0.2233672,-0.65118 0.5539298,-1.32099 0.6755681,-2.00483 0.024623,-0.13843 0.011361,-0.28098 0.017041,-0.42146 -0.093898,-0.38797 -0.00124,-0.2561 -0.7534984,-0.0586 -0.022693,0.006 0.00983,0.0459 0.016612,0.0684 0.056041,0.18556 0.1051126,0.31304 0.1728994,0.50474 0.046393,0.13119 0.092526,0.26248 0.1387885,0.39372 0.2973938,0.88515 0.650227,1.7588 1.0827636,2.58675 0.7192201,1.38155 1.5698973,2.68853 2.3030222,4.06295 0.6992419,1.27761 1.0332524,2.72022 1.7129276,4.00944 0.8880025,1.66449 1.8552554,3.30478 3.0788557,4.74805 0.01293,0.0265 0.38771,-0.15637 0.374779,-0.18288 z" />
    <path
       style="opacity:0.65;fill:#999999;stroke-width:0.264583"
       id="path14"
       d="m 4.9769786,259.89731 c -0.457399,1.49436 -0.6398218,3.04671 -0.935618,4.57416 -0.022302,-0.14567 0.1201417,-0.27253 0.1012103,-0.41301 -0.032545,-0.24149 -0.1447446,-0.46538 -0.2130002,-0.69929 -0.089608,-0.30709 -0.1762366,-0.61506 -0.260564,-0.92364 -0.4889712,-1.78931 -0.052817,-0.29282 -0.5693167,-2.02119 -0.095013,-0.15103 -0.4473911,-2.22692 -1.0243033,-1.11096 -0.081669,0.15797 0.00858,0.35557 0.013135,0.53335 0.00558,0.21791 0.011513,0.43581 0.017269,0.65372 -0.023817,0.23381 0.1004558,1.19327 -0.420896,1.16829 -0.079662,-0.004 -0.1376211,-0.0808 -0.2040523,-0.12493 -0.1672587,-0.11111 -0.331218,-0.22711 -0.496827,-0.34067 -0.012477,-0.0154 -0.22952749,0.1611 -0.21705067,0.17645 v 0 c 0.17060106,0.20484 0.27715467,0.48802 0.51180317,0.61453 0.2260503,0.12188 0.5159395,0.12984 0.7667977,0.0748 0.6959966,-0.15256 0.6588732,-1.09527 0.6522068,-1.59762 -0.020066,-0.2233 -0.031852,-0.44749 -0.0602,-0.66989 -0.054798,-0.4299 0.011688,-0.62505 -0.5283217,-0.63043 -0.04898,-5.3e-4 0.016188,0.0967 0.027799,0.14429 0.1201242,0.49235 0.1972189,0.73386 0.3489123,1.26034 0.2889957,0.98583 0.5521111,1.98679 0.9006742,2.9539 0.148545,0.41215 0.3207576,1.05889 0.8236101,1.23863 0.1251257,0.0447 0.2393762,-0.11543 0.3590644,-0.17317 0.4759495,-1.49517 0.6573745,-3.08368 0.8430194,-4.63558 0.00369,-0.0308 -0.431665,-0.0829 -0.4353518,-0.0521 z" />
    <path
       style="opacity:0.65;fill:#999999;stroke-width:0.264583"
       id="path15"
       d="m 26.725642,246.49862 c -0.0074,1.12519 0.05237,2.24988 0.144814,3.37096 0.07579,0.91909 0.237633,1.82897 0.167349,2.7511 -0.199999,-0.22962 0.128135,0.17842 -0.08768,-0.35183 -0.08067,-0.19821 -0.217517,-0.36874 -0.318397,-0.55747 -0.05703,-0.1067 -0.483874,-1.00408 -0.620933,-1.14577 -0.07454,-0.0771 -0.199204,-0.0794 -0.298806,-0.11902 -0.124784,0.17157 -0.313159,0.31157 -0.374352,0.5147 -0.09304,0.30884 -0.0288,1.89831 -0.01991,2.08201 0.05153,1.06469 0.162549,2.12001 0.185983,3.18621 -0.01969,0.13534 -0.0051,0.28037 -0.05907,0.40602 -0.03516,0.0818 0.04031,-0.18804 -6.62e-4,-0.26708 -0.124332,-0.2399 -0.325335,-0.43177 -0.477319,-0.65518 -0.781417,-1.14864 -1.464288,-2.3578 -2.155691,-3.56137 -0.301366,-0.51136 -0.687182,-1.18033 -1.018535,-1.69951 -0.06702,-0.10501 -0.09161,-0.33801 -0.212377,-0.30749 -0.532447,0.13458 -0.26203,0.76572 -0.225265,1.02688 0.03399,0.24146 0.05551,0.4845 0.08326,0.72675 0.01292,0.34047 0.09042,1.48307 -0.299958,1.72747 -0.231058,0.14465 -0.630419,-0.38425 -0.671083,-0.42456 -0.220295,-0.21833 -0.441068,-0.43619 -0.661602,-0.65429 -0.64817,-0.63838 -1.066442,-1.4543 -1.635076,-2.15306 -0.0044,-0.0175 -0.251442,0.045 -0.247029,0.0624 v 0 c -0.0032,0.11806 -0.03632,0.23916 -0.0095,0.35417 0.197678,0.84759 0.851545,1.50974 1.383825,2.15355 0.537199,0.47854 0.953649,1.00342 1.733429,1.09458 1.112841,0.13009 1.039923,-1.60892 0.983691,-2.23307 -0.04737,-0.25608 -0.151081,-1.87847 -0.859794,-1.50436 -0.111678,0.0589 0.07444,0.24185 0.124303,0.35787 0.259401,0.60352 0.585725,1.19104 0.888942,1.77035 0.714679,1.27357 0.709193,1.33024 1.546625,2.54946 0.244968,0.35665 0.486195,0.71771 0.764459,1.04904 0.349322,0.41594 0.783344,1.11222 1.468269,0.69037 0.149154,-0.0919 0.108597,-0.33309 0.162895,-0.49964 0.06538,-1.15463 -0.0037,-2.07874 -0.117993,-3.23174 -0.03846,-0.388 -0.08,-0.7757 -0.120562,-1.16349 -0.0285,-0.27251 -0.0043,-0.55607 -0.08663,-0.81741 -0.03394,-0.10774 -0.16312,-0.15629 -0.24468,-0.23443 0.157489,-0.17325 0.01742,-0.0407 0.270952,0.46968 0.270661,0.54492 0.636842,1.5455 1.366819,1.65189 0.141311,0.0206 0.246012,-0.14509 0.369017,-0.21763 0.05031,-0.19455 0.133159,-0.38348 0.150926,-0.58364 0.02975,-0.33521 0.0066,-0.6734 -0.0095,-1.00954 -0.07483,-1.55709 -0.309121,-3.10052 -0.54896,-4.63866 -0.0024,-0.0293 -0.41665,0.005 -0.414192,0.0348 z" />
    <path
       style="opacity:0.65;fill:#999999;stroke-width:0.264583"
       id="path16"
       d="m 23.978773,237.31121 c 1.464058,0.58781 2.930458,1.16983 4.392685,1.76228 0.226291,0.0951 0.455563,0.18333 0.678874,0.2852 0.639228,0.2916 1.258448,0.60727 1.92656,0.83403 0.447011,0.15172 0.76553,0.21778 1.219936,0.32693 1.598298,0.36124 3.23465,0.50472 4.864362,0.64062 1.368753,0.0886 2.735061,0.18077 4.101758,0.29566 1.278763,0.21689 2.571436,0.31817 3.860628,0.44975 1.246413,0.14821 2.482178,0.34561 3.738145,0.39708 1.427358,0.11042 2.853944,0.2079 4.285879,0.22128 1.521569,-0.006 3.043706,-0.0227 4.564775,-0.0651 1.170183,-0.002 2.340297,5.3e-4 3.510526,-0.01 1.179205,0.0514 2.34566,-0.13344 3.518786,-0.21581 1.630201,-0.0391 3.249694,-0.18242 4.866814,-0.38487 2.592203,-0.2904 5.163413,-0.71563 7.731729,-1.16334 0.902279,-0.0686 1.51467,-0.70607 2.281655,-1.06495 1.349521,-0.59505 2.796384,-0.92014 4.237736,-1.20502 1.25403,-0.18149 2.429833,-0.62276 3.574436,-1.14986 1.209532,-0.65411 2.454738,-1.23612 3.694875,-1.82926 1.029081,-0.53722 2.112737,-0.92379 3.211261,-1.28692 0.9038,-0.2033 1.689756,-0.65338 2.457024,-1.15214 0.585824,-0.43022 1.27971,-0.78604 1.863196,-1.20759 0.4656,-0.33638 0.909499,-0.70182 1.364252,-1.05273 0.620515,-0.43361 1.241035,-0.86723 1.861545,-1.30084 0.0383,-0.0353 -0.46079,-0.57688 -0.49909,-0.54159 v 0 c -0.65287,0.41385 -1.312814,0.81676 -1.958614,1.24156 -1.089385,0.71658 -2.114825,1.52336 -3.215283,2.22256 -0.710636,0.4752 -1.462688,0.84813 -2.306166,1.02481 -1.138719,0.36191 -2.247847,0.78072 -3.333073,1.28352 -1.233678,0.5858 -2.442305,1.2199 -3.654324,1.84898 -1.117489,0.47439 -2.223368,0.94012 -3.453416,1.01567 -1.501598,0.30972 -3.023902,0.64315 -4.364445,1.42137 -0.261811,0.15381 -0.517044,0.34304 -0.786657,0.48257 -0.411019,0.2127 -0.894521,0.2272 -1.337336,0.31819 -2.589731,0.29434 -5.165839,0.71416 -7.733085,1.1601 -1.591056,0.25875 -3.190161,0.37684 -4.799997,0.44313 -0.99899,0.10918 -1.989979,0.30857 -2.998251,0.24534 -1.323652,-0.0329 -2.647558,-0.0506 -3.971565,-0.0301 -1.36372,-0.004 -2.726557,0.0519 -4.090228,0.0628 -1.426633,-0.0181 -2.850454,-0.0821 -4.272983,-0.19546 -1.241042,-0.0391 -2.466026,-0.14826 -3.694515,-0.3326 -1.292217,-0.17979 -2.59575,-0.24341 -3.887864,-0.42619 -1.361694,-0.14444 -2.725172,-0.25042 -4.090072,-0.35984 -1.611366,-0.12904 -3.232375,-0.18097 -4.826828,-0.47136 -0.316267,-0.0684 -0.846974,-0.17601 -1.15384,-0.27236 -0.899507,-0.28244 -1.73853,-0.72724 -2.6039,-1.09351 -1.488982,-0.60883 -2.997578,-1.19754 -4.564423,-1.57348 -0.02837,-0.0149 -0.239852,0.38626 -0.211482,0.40121 z" />
    <path
       style="opacity:0.65;fill:#999999;stroke-width:0.264583"
       id="path17"
       d="m 102.45886,230.22008 c -1.11555,0.86022 -2.25394,1.70387 -3.490955,2.38153 -0.702024,0.41397 -1.494205,0.53519 -2.278906,0.68397 -0.73546,0.18748 -1.42947,0.49832 -2.154375,0.72122 -1.08939,0.28801 -2.183265,0.57 -3.255989,0.91648 -1.071613,0.34641 -2.114249,0.7714 -3.173529,1.15246 -1.034203,0.34138 -1.983134,0.87798 -2.931356,1.40327 -0.904478,0.49511 -1.88233,0.8331 -2.855941,1.16283 -1.210689,0.38105 -2.426343,0.74211 -3.63392,1.13544 -1.225775,0.42355 -2.496918,0.67272 -3.744267,1.02163 -1.419778,0.47252 -2.876375,0.81122 -4.31999,1.19935 -1.265068,0.40682 -2.573091,0.60286 -3.894553,0.6899 -1.624004,0.15697 -3.241447,0.39001 -4.859078,0.60618 -1.793594,0.12919 -3.569821,0.37741 -5.341474,0.67585 -1.147972,0.26178 -2.289135,0.20662 -3.448926,0.11429 -1.178544,-0.0315 -2.342912,-0.21555 -3.513002,-0.3412 -1.27965,-0.0894 -2.554873,-0.23862 -3.837673,-0.27583 -0.789429,-0.0156 -1.539597,-0.24387 -2.306508,-0.39447 -0.900046,-0.19881 -1.785448,-0.45599 -2.697178,-0.59671 -1.080723,-0.17009 -2.133703,-0.49408 -3.17744,-0.81724 -0.727755,-0.30202 -1.490818,-0.46962 -2.256387,-0.63783 -0.746774,-0.2174 -1.494812,-0.42935 -2.232332,-0.67677 -0.941912,-0.33321 -1.870123,-0.6961 -2.787129,-1.09297 -1.607227,-0.77922 -3.261217,-1.43583 -4.961357,-1.98047 -0.04541,-0.0313 -0.487997,0.61088 -0.442588,0.64218 v 0 c 0.272885,0.15953 0.537194,0.33473 0.818656,0.47859 0.668138,0.34149 1.134233,0.47976 1.833554,0.74874 1.506368,0.57939 0.106312,0.0437 1.515332,0.6459 0.231177,0.0988 0.467563,0.18494 0.701347,0.27741 0.946422,0.37837 1.899478,0.73825 2.870787,1.04805 0.760701,0.27186 1.535486,0.50498 2.312514,0.72519 0.745313,0.15292 1.489308,0.26425 2.172512,0.62627 1.080619,0.36654 2.182495,0.67896 3.31746,0.824 0.904338,0.11779 1.77075,0.3984 2.667375,0.55952 0.798674,0.16695 1.594036,0.36595 2.408796,0.43683 1.27209,0.0778 2.539997,0.21905 3.814561,0.24511 1.180595,0.0834 2.346077,0.31119 3.532082,0.34128 1.339493,0.0627 2.684145,0.11134 4.012832,-0.11968 1.764009,-0.2745 3.531259,-0.53573 5.309418,-0.70028 1.603235,-0.20635 3.196939,-0.47762 4.800706,-0.67722 1.353558,-0.13183 2.690878,-0.33986 3.993271,-0.74597 1.435521,-0.40782 2.876383,-0.79937 4.298516,-1.2523 1.246833,-0.36671 2.519664,-0.63873 3.755488,-1.0427 1.205709,-0.39633 2.406626,-0.8001 3.617224,-1.18093 0.991654,-0.34846 1.971707,-0.74804 2.90539,-1.23125 0.935641,-0.49602 1.846236,-1.05597 2.864284,-1.37365 1.057616,-0.37248 2.095619,-0.79903 3.16806,-1.13049 1.069454,-0.33547 2.144464,-0.6532 3.218074,-0.97473 0.708329,-0.21595 1.369248,-0.55676 2.085925,-0.7427 0.840337,-0.11958 1.670849,-0.30508 2.435145,-0.68933 1.256014,-0.69526 2.462674,-1.51828 3.453934,-2.56505 0.0158,-0.0204 -0.27257,-0.24409 -0.28839,-0.2237 z" />
    <path
       style="opacity:0.65;fill:#999999;stroke-width:0.264583"
       id="path18"
       d="m 61.35539,233.67821 c -0.116152,-0.14834 -1.088996,-1.30918 -0.322088,-1.09734 0.217017,0.11545 0.966073,0.82597 0.552273,1.03311 -0.449929,0.007 -0.870575,-0.26975 -1.07388,-0.66555 0.171637,0.13101 0.437599,0.29154 0.590301,0.49358 -0.0551,0.0806 -0.140266,0.14326 -0.211199,0.20992 -0.01026,0.01 0.128826,0.15522 0.139108,0.14539 v 0 c 0.21632,-0.12087 0.350893,-0.21903 0.320233,-0.4926 -0.161613,-0.25177 -0.751329,-0.81339 -1.065086,-0.43561 -0.03966,0.0478 -0.02799,0.12094 -0.04199,0.1814 0.262652,0.61818 0.926089,1.02882 1.588617,0.74786 0.05238,-0.0715 0.126963,-0.13115 0.157133,-0.21449 0.151381,-0.41811 -0.284501,-0.96708 -0.618411,-1.15357 -0.129857,-0.0725 -0.282583,-0.0929 -0.423873,-0.13939 -0.107902,0.024 -0.229822,0.0137 -0.323707,0.0721 -0.578183,0.3594 0.231611,1.24354 0.492459,1.50146 0.01318,0.017 0.253277,-0.16927 0.240109,-0.18625 z" />
    <path
       style="opacity:0.65;fill:#999999;stroke-width:0.264583"
       id="path19"
       d="m 60.363414,233.45151 c 0.0173,-0.37547 0.0249,-0.75651 0.160692,-1.1128 0.02653,-0.0696 0.05805,-0.14024 0.107604,-0.19586 0.0131,-0.0147 0.06587,-0.008 0.05826,0.01 -0.01707,0.0407 -0.06609,0.0585 -0.09914,0.0878 0.07497,0.36888 -7.94e-4,1.15608 -0.529693,1.05555 -0.147212,-0.24155 0.08157,-0.44457 0.323342,-0.48392 0.09154,-0.0149 0.185023,0.0131 0.277535,0.0196 0.350279,0.25497 0.656021,0.62799 0.476842,1.08499 -0.03862,0.0985 -0.08977,0.1998 -0.171291,0.26726 -0.06223,0.0515 -0.155223,0.0448 -0.232833,0.0672 -0.537639,-0.4354 -0.66892,-1.13069 -0.3263,-1.72405 0.06064,-0.0314 0.114863,-0.0813 0.181911,-0.0942 0.165651,-0.0319 0.385477,0.48306 0.397217,0.59705 0.0059,0.0571 -0.01839,0.11332 -0.02759,0.16999 -0.197197,0.15637 -0.597207,0.17882 -0.81752,0.0338 0.02021,0.035 0.02773,0.0816 0.06068,0.10506 0.229463,0.16337 0.6208,0.0428 0.955297,0.36512 -0.03353,-0.0274 -0.06041,-0.066 -0.100579,-0.0821 -0.07475,-0.03 -0.386675,-0.0668 -0.454827,-0.0825 -0.238125,-0.055 -0.471725,-0.12662 -0.678539,-0.25782 -0.0064,-0.0124 -0.181883,0.0783 -0.175467,0.0907 v 0 c 0.02673,0.0752 0.02935,0.16407 0.08019,0.22559 0.248608,0.30089 1.186646,0.48668 1.48826,0.21401 0.07721,-0.0698 0.06632,-0.19732 0.09948,-0.29597 -0.293976,-0.33841 -0.699865,-0.48062 -1.153284,-0.4388 -0.105381,0.01 -0.226581,0.0155 -0.305644,0.0859 -0.06488,0.0577 -0.04816,0.16689 -0.07224,0.25034 0.03622,0.045 0.0614,0.10183 0.108664,0.13509 0.300098,0.21117 0.883375,0.17369 1.155973,-0.0714 0.07308,-0.0657 0.106449,-0.16521 0.159676,-0.24781 0.006,-0.0958 0.03037,-0.19219 0.01791,-0.28734 -0.08706,-0.66448 -0.686546,-1.07237 -1.245936,-0.56689 -0.0606,0.10679 -0.14137,0.20444 -0.181811,0.32038 -0.190188,0.54525 -0.04313,1.46847 0.528468,1.76119 0.156128,0.0799 0.345167,0.0627 0.51775,0.0941 0.119594,-0.0689 0.263289,-0.10697 0.358783,-0.2066 0.45617,-0.47594 0.280117,-1.31917 -0.244711,-1.66429 -0.149225,-0.0981 -0.333338,-0.12835 -0.500007,-0.19253 -0.134937,0.0161 -0.27673,0.003 -0.40481,0.0482 -0.343804,0.12187 -0.704164,0.68513 -0.319373,0.98728 0.08753,0.0687 0.210913,0.0711 0.31637,0.1067 0.09135,-0.0116 0.188291,-10e-4 0.274056,-0.0349 0.581464,-0.22738 0.619318,-1.03039 0.421857,-1.51763 -0.102868,-0.0582 -0.191593,-0.15792 -0.308605,-0.17472 -0.468572,-0.0673 -0.534133,1.28724 -0.485201,1.54952 0,0.0218 0.3086,0.0218 0.3086,0 z" />
    <path
       style="opacity:0.65;fill:#999999;stroke-width:0.264583"
       id="path20"
       d="m 60.307563,234.6817 c 0.01037,0.50208 0.07909,0.99983 0.143817,1.49692 0.02093,0.16077 0.02511,0.51495 0.12386,0.67349 0.122409,-0.0676 0.292996,-0.0842 0.367228,-0.20274 0.06901,-0.11016 0.005,-0.25997 0.0041,-0.38996 -0.0041,-0.56835 -0.02527,-1.13692 -0.07783,-1.70284 -0.0084,-0.0536 0.02914,-0.16375 -0.02506,-0.16087 -0.133033,0.007 -0.275455,0.0752 -0.356262,0.18112 -0.06878,0.0901 -0.0041,1.01358 0.0036,1.19021 0.01712,0.19745 0.01069,0.40203 0.371014,0.0803 0.01963,-0.0175 0.0011,-0.59028 -5.29e-4,-0.65426 0.05103,-0.18157 -0.176877,-0.50825 -0.267515,0.005 -0.019,0.10765 0.0906,0.19898 0.135895,0.29847 0.0013,0.008 0.117528,-0.0117 0.116115,-0.0199 v 0 c 0.0029,-0.10667 0.06316,-0.22817 0.0088,-0.32 -0.318439,-0.53823 -0.339878,-0.11967 -0.345141,0.0386 -5.29e-4,0.064 -0.01061,0.63686 0.0093,0.65417 0.367602,0.31918 0.356267,0.11037 0.36794,-0.0876 0.0024,-0.17735 0.03592,-1.10356 -0.03739,-1.19212 -0.08511,-0.10281 -0.23082,-0.16535 -0.364281,-0.16617 -0.05489,-2.6e-4 -0.01101,0.10923 -0.01651,0.16384 -0.01572,0.56965 0.0069,1.13875 0.05044,1.70696 0.0099,0.1297 -0.04339,0.28597 0.03664,0.38851 0.08397,0.10758 0.254572,0.0985 0.381858,0.14769 0.063,-0.15739 -0.01426,-0.54367 -0.02859,-0.67845 -0.05354,-0.50401 -0.110775,-1.00949 -0.240673,-1.50086 -0.0036,-0.0255 -0.364468,0.0249 -0.360905,0.0504 z" />
    <path
       style="opacity:0.65;fill:#999999;stroke-width:0.264583"
       id="path21"
       d="m 60.690987,236.61984 c 0.614653,0.85456 1.221769,1.7244 1.928868,2.50672 0.0862,-0.12741 0.238003,-0.2298 0.258593,-0.38225 0.0164,-0.1215 -0.106802,-0.22075 -0.162388,-0.33003 -0.186947,-0.36752 -0.385022,-0.72982 -0.604433,-1.07901 -0.07081,0.11091 -0.209293,0.20117 -0.212428,0.33272 -0.0029,0.123 0.790625,0.94271 0.928973,1.11579 -0.40667,-0.11615 0.147235,-0.21363 0.0881,-0.29911 -0.04754,-0.0687 -0.453633,-0.35119 -0.563589,-0.45386 -0.09615,-0.10279 -0.103809,-0.13288 -0.196543,0.25275 -0.0074,0.0306 0.05773,0.0252 0.08604,0.039 0.02331,0.0113 0.111649,0.0861 0.06777,0.0168 0.612944,-0.0273 0.07305,-0.32347 0.03804,-0.26615 -0.05477,0.0897 -0.08596,0.19173 -0.128936,0.2876 7.93e-4,0.009 0.125722,-7.9e-4 0.125039,-0.01 v 0 c -0.05312,-0.0144 -0.1045,-0.0389 -0.159374,-0.0431 -0.08428,-0.006 1.047641,0.46683 0.421894,-0.10802 -0.116369,-0.1922 -0.781635,-0.55832 -0.559793,0.0575 0.178171,0.20809 0.65082,0.73649 0.970508,0.63601 0.100523,-0.0316 0.121483,-0.1722 0.182226,-0.2583 -0.02074,-0.0606 -0.03069,-0.12605 -0.06225,-0.18179 -0.09781,-0.17275 -0.765686,-1.00009 -0.914652,-1.03525 -0.154834,-0.0365 -0.314518,0.0481 -0.471778,0.0722 0.163099,0.38005 0.358074,0.74614 0.566692,1.10306 0.06312,0.10799 0.08255,0.26623 0.195276,0.32041 0.143433,0.069 0.31828,0.002 0.477419,0.003 -0.505396,-0.935 -1.254569,-1.73615 -1.983713,-2.49768 -0.01421,-0.0223 -0.329742,0.17851 -0.315542,0.20082 z" />
    <path
       style="opacity:0.65;fill:#999999;stroke-width:0.264583"
       id="path22"
       d="m 60.407398,236.50609 c -0.235299,0.63273 -0.658034,1.2236 -0.81784,1.88461 0.13952,-0.0283 0.299601,-0.007 0.41856,-0.0848 0.0664,-0.0436 0.0417,-0.15337 0.06107,-0.23043 0.115907,-0.46121 0.221274,-0.3327 -0.299005,-0.34575 -0.322408,0.44196 -0.57368,0.9315 -0.814237,1.42123 -0.01463,0.0298 -0.331274,0.67908 -0.343024,0.79518 -0.0062,0.0616 0.05024,0.11327 0.07536,0.16991 0.124592,-0.0368 0.249184,-0.0735 0.373777,-0.11023 0.0058,-0.006 -0.07354,-0.0872 -0.0793,-0.0816 v 0 c -0.0099,0.059 -0.01974,0.11806 -0.02961,0.17709 0.180049,0.0194 0.06742,0.027 0.248727,-0.29793 0.350393,-0.62799 0.659141,-1.28181 0.928367,-1.94824 -0.08754,-0.10391 -0.151283,-0.23385 -0.26262,-0.31173 -0.05013,-0.0351 -0.298288,0.61468 -0.261368,0.69089 0.06723,0.13877 0.221207,0.21489 0.331811,0.32234 0.417391,-0.46994 0.62847,-1.36788 0.86101,-1.942 0.0077,-0.0277 -0.384001,-0.13621 -0.391674,-0.10851 z" />
    <path
       style="opacity:0.65;fill:#999999;stroke-width:0.264583"
       id="path23"
       d="m 61.523892,235.63545 c 0.834893,-0.37533 1.597486,-0.88967 2.367976,-1.37981 5.29e-4,-0.002 0.0011,-0.004 0.0016,-0.006 -0.118695,-0.0665 -0.222102,-0.17585 -0.356084,-0.19939 -0.01992,-0.003 -0.425665,0.2858 -0.489958,0.32972 -0.343374,0.007 -0.695659,0.17986 -0.966616,0.39437 -0.01495,0.034 -0.02989,0.068 -0.04483,0.10201 -0.0123,0.0125 0.164711,0.18666 0.177025,0.17414 v 0 c 0.03194,-0.001 0.06388,-0.003 0.09582,-0.004 0.321204,-0.12794 0.627989,-0.2943 0.961882,-0.38948 0.07815,-0.036 1.287831,-0.69017 0.377394,-0.72732 -0.853061,0.3372 -1.576845,0.92407 -2.358938,1.39087 -0.02225,0.0166 0.212413,0.33125 0.234662,0.31466 z" />
    <path
       style="opacity:0.65;fill:#999999;stroke-width:0.264583"
       id="path24"
       d="m 59.572379,235.75659 c -0.74522,-0.27474 -1.519158,-0.41494 -2.308334,-0.46239 -0.03221,-0.0131 -0.217233,0.44243 -0.185025,0.45551 v 0 c 0.738809,0.2032 1.490638,0.33528 2.242018,0.48371 0.03372,0.0178 0.285057,-0.45906 0.251341,-0.47683 z" />
    <path
       style="opacity:0.65;fill:#999999;stroke-width:0.264583"
       id="path25"
       d="m 87.493125,294.07231 c -0.178176,-1.61145 -0.491607,-3.21448 -0.866775,-4.7924 -0.05583,-0.21984 -0.130839,-0.49406 -0.174829,-0.72597 -0.0074,-0.0389 0.02511,-0.11922 -0.01445,-0.11784 -0.04187,0.003 0.0034,0.12332 -0.03837,0.1197 -0.535631,-0.0467 -0.326784,-0.35481 -0.493943,0.0217 -0.139819,0.70358 -0.05212,1.43269 0.0061,2.14175 0.01019,0.32499 0.05655,0.65217 0.367395,0.80611 0.01273,0.01 0.149122,-0.17029 0.136398,-0.17992 v 0 c -0.05195,-0.21296 -0.05114,-0.43143 -0.05396,-0.65024 -0.02984,-0.65934 -0.09451,-1.32186 -0.05212,-1.98136 0.0638,-0.1874 0.12147,-0.27085 -0.231212,-0.44632 -0.05888,-0.0293 -0.07887,0.10805 -0.09892,0.17068 -0.09426,0.29445 0.100301,0.65505 0.08603,0.942 0.299961,1.58937 0.60832,3.17857 1.038455,4.73895 0.0033,0.0276 0.393568,-0.019 0.390264,-0.0467 z" />
    <path
       style="opacity:0.65;fill:#999999;stroke-width:0.264583"
       id="path26"
       d="m 84.850927,289.68591 c -0.718497,1.37213 -1.393582,2.80805 -1.671712,4.34248 0.0066,0.0508 -0.02826,0.1344 0.01971,0.15232 0.125232,0.0468 0.282704,0.0672 0.40106,0.005 0.20488,-0.10766 0.421878,-1.40872 0.45188,-1.6097 0.02267,-1.24158 0.263633,-2.45813 0.543372,-3.66254 -0.06923,-0.003 0.233169,-0.81603 0.170026,-0.83183 -0.401637,-0.10051 -0.594722,0.23284 -0.863978,0.45331 -0.737074,0.48096 -1.365483,1.14118 -2.161225,1.52848 -0.221536,-0.0201 0.11467,0.11792 0.174209,0.0907 0.08164,-0.0373 0.07426,-0.16353 0.107281,-0.24701 0.228899,-0.57856 0.389959,-1.17496 0.559668,-1.77284 0.438256,-1.33914 0.624123,-2.72645 0.740849,-4.12361 0.0064,-0.006 0.02635,-0.71546 -0.04822,-0.70599 -0.408887,0.0519 -0.359071,0.24895 -0.397118,0.55531 -0.240001,0.93205 -0.716738,1.78475 -1.162164,2.63141 0.649634,-0.24678 -0.400785,0.44056 -0.240551,0.4205 0.120616,-0.0151 0.270243,-0.0369 0.337465,-0.13819 0.09146,-0.13779 0.0515,-0.32676 0.07934,-0.48977 0.04295,-0.25148 0.08515,-0.50313 0.133027,-0.75374 0.06232,-0.32618 0.131683,-0.65098 0.197525,-0.97647 0.407807,-1.47225 0.618799,-3.03358 1.209839,-4.45149 -0.04863,0.0293 -0.127693,0.0341 -0.145875,0.0878 -0.02297,0.0679 0.02756,0.14081 0.04503,0.21037 0.03618,0.14404 0.07427,0.28765 0.11589,0.43021 0.277688,0.95115 0.64743,1.83351 1.059683,2.73373 0.464979,0.99909 1.017426,1.95823 1.644888,2.86417 0.202406,0.29226 0.432919,0.69945 0.795755,0.81325 0.04498,-0.1292 0.135795,-0.25078 0.134946,-0.38757 -7.94e-4,-0.10765 -0.0885,-0.19647 -0.139152,-0.29149 -0.256882,-0.48175 -0.608637,-0.77321 -1.078503,-1.03539 -0.183531,-0.0641 -0.803881,-0.317 -0.892035,0.0398 -0.04621,0.18703 0.05938,0.59052 0.08617,0.7311 0.06615,0.23503 0.127953,0.47132 0.198451,0.70511 0.293399,0.97293 0.223801,0.67868 0.54088,1.6233 0.06801,0.20264 0.142975,0.40354 0.194834,0.6109 0.152704,0.61057 0.01437,0.24151 -0.01029,0.17996 -0.0024,-0.0455 -0.005,-0.0909 -0.0075,-0.13641 -0.01643,-0.0169 -0.256583,0.21555 -0.240141,0.23254 v 0 c 0.136212,0.0611 0.272423,0.12213 0.408633,0.18317 0.08119,-0.0604 0.197024,-0.0914 0.243573,-0.18129 0.140589,-0.27147 -0.04428,-0.82487 -0.101727,-1.02653 -0.221653,-0.77809 -0.529881,-1.53276 -0.843638,-2.27698 -0.04834,-0.1352 -0.09195,-0.27218 -0.145036,-0.40558 -0.0947,-0.23797 -0.01437,-0.10168 -0.09491,-0.10329 -0.116163,-0.003 0.663702,0.0378 0.4407,0.10604 0.298127,0.15489 0.596297,0.3234 0.800024,0.60272 0.03906,0.0536 0.284289,0.54168 0.306972,0.55377 0.08258,0.044 0.185949,-0.0214 0.278923,-0.0321 0.16373,0.10578 0.09549,0.0786 -0.07141,-0.2054 -0.106551,-0.18134 -0.212945,-0.36274 -0.319392,-0.54414 -0.203655,-0.34703 -0.871035,-1.48045 -1.037114,-1.78213 -0.190539,-0.3461 -0.367323,-0.69958 -0.550984,-1.04939 -0.270846,-0.55118 -0.683281,-1.37615 -0.936577,-1.94537 -0.08048,-0.18085 -0.455242,-1.35602 -0.670894,-1.48061 -0.09374,-0.0542 -0.215852,0.0169 -0.323781,0.0254 -0.321278,0.43238 -0.4894,0.93697 -0.650846,1.44864 -0.317936,1.00762 -0.567253,2.03939 -0.771638,3.07534 -0.03529,0.23317 -0.343758,2.02731 -0.255061,2.2833 0.05085,0.14673 0.173979,0.27836 0.315094,0.34324 0.167847,0.0772 0.190154,-0.6659 0.328904,-0.44606 0.492308,-0.86895 0.949227,-1.7671 1.107755,-2.76498 0.0077,-0.0682 0.01365,-0.13668 0.02315,-0.20468 0.0081,-0.0579 0.06269,-0.12467 0.02957,-0.17285 -0.375743,-0.54666 -0.279149,0.36923 -0.310682,0.4658 -0.14705,1.37559 -0.433183,2.7237 -0.79195,4.05955 -0.175927,0.75015 -0.139402,0.62228 -0.321411,1.30374 -0.08302,0.31083 -0.341474,0.74639 -0.05363,1.01687 0.03942,0.037 0.107567,-0.0114 0.161348,-0.0172 0.857465,-0.33073 1.53593,-1.0079 2.239833,-1.57673 0.18043,-0.16938 0.738058,-0.49413 0.315447,-0.76181 -0.02689,-0.0169 -0.274934,0.83587 -0.279918,0.83079 -0.301332,1.21449 -0.53421,2.43591 -0.591096,3.68948 -0.06046,0.46334 -0.04744,0.49025 -0.159157,0.91337 -0.01532,0.058 -0.173426,0.55428 -0.168423,0.56457 0.209111,0.43069 0.252359,0.23558 0.29509,0.11467 0.515024,-1.44375 1.078158,-2.86973 1.6359,-4.29726 0.0095,-0.0257 -0.355494,-0.15957 -0.364953,-0.13377 z" />
    <path
       style="opacity:0.65;fill:#999999;stroke-width:0.264583"
       id="path27"
       d="m 66.427368,291.18068 c -0.15901,1.85959 -0.204809,3.73041 -0.04081,5.58993 0,0.0351 0.496081,0.0351 0.496081,0 v 0 c 0.163994,-1.85952 0.118192,-3.73034 -0.04081,-5.58993 0,-0.0293 -0.414451,-0.0293 -0.414451,0 z" />
    <path
       style="opacity:0.65;fill:#999999;stroke-width:0.264583"
       id="path28"
       d="m 64.473367,291.39848 c -0.199959,1.31924 -0.338312,2.66576 -0.282551,4.00241 0.01624,0.3893 0.07401,0.77578 0.111014,1.16366 2.64e-4,0.0238 0.334983,0.0198 0.334708,-0.004 v 0 c 0.118179,-1.70569 0.22987,-3.41215 0.269745,-5.12183 0.0029,-0.0306 -0.430061,-0.071 -0.432916,-0.0404 z" />
    <path
       style="opacity:0.65;fill:#999999;stroke-width:0.264583"
       id="path29"
       d="m 66.24671,290.60925 c 1.035571,1.05447 2.155018,2.03349 3.420838,2.80189 0.07152,0.0304 0.172392,0.15645 0.21455,0.0912 0.33237,-0.51461 0.02761,-0.75572 -0.239458,-1.16173 -0.170842,-0.25969 -0.348142,-0.51509 -0.524576,-0.77102 -0.37741,-0.54745 -0.875253,-1.25259 -1.2588,-1.79792 -0.421077,-0.5012 -0.725313,-1.10747 -1.176206,-1.58642 -0.0077,-0.008 -0.0043,0.0222 -0.007,0.0331 -0.02154,0.0904 -0.113625,0.19158 -0.06546,0.27112 0.09296,0.15348 0.285113,0.21793 0.427667,0.32691 0.575964,0.41344 1.182098,0.78402 1.812539,1.10829 0.08367,0.043 0.616977,0.30501 0.658858,0.2844 0.13961,-0.0686 0.202758,-0.23601 0.304138,-0.35401 -0.108789,-0.15917 -0.20579,-0.32708 -0.326363,-0.47752 -1.042255,-1.30037 -2.349148,-2.38318 -3.495363,-3.5887 -0.40545,0.53155 -0.241816,-0.6554 -0.477893,-0.57529 -0.07118,0.0241 -0.01863,0.1492 -0.02627,0.22397 -0.0065,0.0638 -0.0531,0.13933 -0.01619,0.1918 0.03612,0.0514 0.983626,0.91075 0.990455,0.91697 0.492384,0.42637 0.990033,0.85299 1.529146,1.22052 0.160649,0.10954 0.319431,0.19105 0.32948,0.17367 0.09142,-0.15811 0.124042,-0.34359 0.186063,-0.51535 -0.933926,-1.5747 -1.934348,-3.10486 -2.72701,-4.7592 -0.07617,-0.17494 -0.154993,-0.34874 -0.228502,-0.52482 -0.05838,-0.13984 -0.131281,-0.58592 -0.39647,-0.0818 -0.0311,0.0591 0.06755,0.11552 0.09595,0.17598 0.04124,0.0878 0.07514,0.17891 0.112712,0.26836 0.03376,1.18362 -0.952048,2.09558 -1.671772,2.92272 -0.728502,0.96938 -1.893938,1.73871 -2.293763,2.92852 0.0154,0.0731 -0.01992,0.18447 0.04619,0.21918 0.521888,0.27405 1.797288,-0.59235 2.22296,-0.82614 0.427942,-0.26924 0.875691,-0.50617 1.302562,-0.77713 0.05571,-0.0354 0.222113,-0.10959 0.157041,-0.12052 -0.151789,-0.0254 -0.304612,-0.0444 -0.456917,-0.0666 -0.938953,1.12937 -1.673847,2.40422 -2.305224,3.72531 0.343175,-0.0491 -0.336902,0.4301 -0.177501,0.52088 0.154188,0.0878 0.34636,0.14989 0.520035,0.11356 0.164881,-0.0345 0.271397,-0.19984 0.401895,-0.30633 0.356735,-0.29118 0.699677,-0.59883 1.05079,-0.89676 0.371477,-0.27193 0.681857,-0.61981 1.128937,-0.75453 0.02508,-0.0114 -0.137229,-0.36603 -0.162301,-0.35455 v 0 c -0.133154,0.022 -0.27437,0.0154 -0.399465,0.0661 -0.224631,0.091 -0.831334,0.56168 -0.984835,0.67508 -0.641781,0.56121 -0.426447,0.35809 -1.014888,0.92819 -0.110533,0.10707 -0.300649,0.17216 -0.329563,0.32329 -0.02471,0.1292 0.1006,0.25583 0.202991,0.33838 0.133207,0.10739 0.07348,-0.97978 0.261313,-0.44186 0.698477,-1.24412 1.375688,-2.49891 2.165046,-3.68935 -0.01892,-0.17393 -0.0084,-0.35367 -0.05677,-0.52181 -0.04036,-0.14025 -1.580864,0.74544 -1.659303,0.79272 -0.481235,0.26538 -0.957911,0.5379 -1.43809,0.80499 -0.07251,0.0403 -0.206867,0.0425 -0.215238,0.12502 -0.0114,0.11239 0.304546,0.11999 0.180028,0.28718 0.65111,-1.02471 1.64016,-1.78501 2.375214,-2.74389 0.687084,-0.83405 1.613649,-1.83385 1.645042,-2.98852 0.0041,-0.15065 -0.03453,-0.2994 -0.05179,-0.4491 -0.175659,-0.36156 -0.247827,-0.72353 -0.778473,-0.54761 -0.178131,0.0591 0.181049,1.06156 0.198874,1.0791 0.714547,1.72657 1.725721,3.29382 2.864557,4.772 0.162374,-0.0154 0.325702,-0.0228 0.487129,-0.0462 0.0087,0 -0.008,-0.0161 -0.01434,-0.0222 -0.06112,-0.0586 -0.123727,-0.11568 -0.187539,-0.17132 -0.484156,-0.42225 -0.98238,-0.82854 -1.478802,-1.23611 -0.300574,-0.24855 -1.200425,-1.11651 -1.644012,-1.06185 -0.455306,0.0561 0.170931,1.04987 0.256998,1.02389 1.1723,1.39279 2.532205,2.61252 3.889671,3.82137 0.123211,-0.0376 0.290399,-0.0114 0.369634,-0.11295 0.04596,-0.0589 -0.129522,-0.0746 -0.194334,-0.11181 -0.73709,-0.4232 -1.47405,-0.84677 -2.204741,-1.28098 -0.174223,-0.0927 -0.329886,-0.2359 -0.522669,-0.27821 -0.725649,-0.1592 -0.569608,0.18317 -0.357195,0.53647 0.258008,0.42915 0.607343,0.9417 0.876564,1.34678 0.851718,1.22828 0.383231,0.57827 1.292101,1.78493 0.185745,0.24662 0.372414,0.49252 0.556437,0.74044 0.349316,0.47053 0.287541,0.65561 0.918504,0.62111 0.06318,-0.003 -0.0998,-0.0778 -0.149704,-0.11674 -1.153411,-0.91487 -2.294588,-1.84769 -3.505105,-2.68681 -0.01543,-0.0164 -0.248481,0.20179 -0.233047,0.21828 z" />
    <path
       style="opacity:0.65;fill:#999999;stroke-width:0.264583"
       id="path30"
       d="m 50.998619,292.23033 c -0.0063,1.14493 0.13039,2.27999 0.424707,3.38434 0.0035,0.0273 0.388861,-0.0222 0.385355,-0.0496 v 0 c -0.04757,-1.13176 -0.216294,-2.24827 -0.393764,-3.36651 -0.0021,-0.0294 -0.418544,0.003 -0.416298,0.0317 z" />
    <path
       style="opacity:0.65;fill:#999999;stroke-width:0.264583"
       id="path31"
       d="m 48.627762,292.15117 c -0.0027,1.70836 0.219448,3.40918 0.625777,5.06589 0.0031,0.0243 0.347826,-0.0193 0.344736,-0.0437 v 0 c -0.09888,-1.69471 -0.284411,-3.3858 -0.572114,-5.05936 -0.0026,-0.0282 -0.401023,0.009 -0.398399,0.0371 z" />
    <path
       style="opacity:0.65;fill:#999999;stroke-width:0.264583"
       id="path32"
       d="m 51.040045,290.89977 c 0.527214,0.5398 1.113351,1.017 1.708669,1.47873 0.343458,0.26638 0.692504,0.57113 1.098108,0.73816 0.08688,-0.10401 0.257982,-0.17653 0.260644,-0.31205 0.0031,-0.15677 -0.1616,-0.26884 -0.24664,-0.40061 -0.138094,-0.21394 -0.281627,-0.42434 -0.422666,-0.63635 -0.542891,-0.8161 -1.077807,-1.63443 -1.594668,-2.46732 -0.06779,0.0399 -0.586986,-1.09762 -0.612587,-1.08669 -0.517078,0.22063 0.07183,0.53636 0.258591,0.7072 0.557416,0.43532 1.137306,0.86344 1.779957,1.16713 0.05929,0.028 0.128472,0.10562 0.18373,0.0703 0.119782,-0.0765 0.16569,-0.23101 0.248533,-0.34652 -1.077346,-1.4037 -2.381644,-2.61067 -3.549038,-3.93735 -0.443712,0.14417 -0.261049,-0.60134 -0.539496,-0.67378 -0.05893,-0.0154 0.0093,0.12144 0.01191,0.18227 0.0031,0.0718 -0.03905,0.15904 0.0053,0.21558 0.07433,0.0947 1.005356,0.79065 1.038916,0.81616 0.148402,0.0868 2.150223,1.79062 1.574091,0.36848 -0.07541,-0.18613 -0.257339,-0.30842 -0.386009,-0.46262 -0.966938,-1.09672 -1.896851,-2.25015 -3.005876,-3.21016 -0.587668,-0.21548 -0.478758,1.19623 -0.501676,1.39136 -0.07926,0.6748 -0.20053,1.13544 -0.349033,1.80727 -0.388268,1.44846 -0.850347,2.88271 -1.487795,4.24198 -0.11095,0.23858 -0.290512,0.46535 0.378876,0.26829 0.09072,-0.0267 0.106254,-0.15653 0.162719,-0.23239 0.286313,-0.38462 0.275941,-0.35007 0.643776,-0.7525 0.173881,-0.19002 0.350303,-0.37777 0.521644,-0.57009 0.772936,-0.8676 0.213485,-0.27946 0.93421,-1.04445 0.102243,-0.10853 0.206036,-0.21558 0.310181,-0.32229 0.03704,-0.0379 0.162039,-0.0906 0.11334,-0.11162 -0.116075,-0.05 -0.252764,-0.003 -0.379148,-0.003 -0.856594,1.26499 -1.649301,2.57344 -2.305968,3.95358 -0.0066,0.003 -0.394494,0.89395 -0.152911,0.94044 0.351433,0.0676 0.696336,-0.30562 0.948082,-0.48175 0.334986,-0.22069 0.661426,-0.48252 1.044307,-0.61966 0.102138,-0.0366 0.231913,-0.11014 0.281184,-0.003 -0.241324,0.0351 -0.323959,0.31887 0.01892,0.4074 0.08962,0.023 0.181687,-0.0355 0.272529,-0.0532 0.0058,0.003 0.02695,-0.0804 0.02117,-0.0819 v 0 c -0.06596,-0.018 -0.133591,-0.0774 -0.197879,-0.0541 -0.04252,0.0153 -0.0059,0.16352 0.02738,0.1329 0.178782,-0.16438 0.234723,-0.33935 0.166479,-0.57552 -0.05421,-0.0546 -0.09132,-0.13491 -0.162613,-0.16393 -0.64072,-0.26083 -1.334683,0.35319 -1.809745,0.67961 -0.12306,0.10093 -0.520046,0.40859 -0.515421,0.47646 0.006,0.0881 0.17064,0.0631 0.23336,0.1252 0.02962,0.0293 -0.0159,0.14798 0.01802,0.12377 0.194447,-0.13885 0.0021,-0.59981 0.321595,-0.64061 0.732738,-1.36448 1.578722,-2.67345 2.194854,-4.09678 -0.101034,-0.12271 -0.162055,-0.29485 -0.303099,-0.36817 -0.06604,-0.0343 -0.43874,0.28131 -0.577543,0.40966 -0.539369,0.49871 -1.000228,1.07288 -1.463786,1.64017 -0.04834,0.0596 -0.837925,1.01931 -0.809392,1.12729 0.04242,0.16052 0.209553,0.26326 0.345006,0.3593 0.0886,0.0628 0.134861,-0.48646 0.202909,-0.25492 0.82337,-1.32514 1.279679,-2.84859 1.675014,-4.34565 0.15622,-0.87165 0.29419,-1.70053 0.244718,-2.58871 -0.0092,-0.16471 0.0624,-0.37201 -0.05045,-0.49231 -0.0934,-0.0996 -0.27306,0 -0.409593,0.003 0.0078,0.0167 0.01556,0.0336 0.02331,0.0504 0.919199,1.13435 1.955043,2.17221 2.958943,3.23006 0.135412,0.13367 0.230659,0.32766 0.406228,0.40101 0.101682,0.0425 0.206214,-0.0834 0.315209,-0.0996 0.05342,-0.008 0.185018,0.0765 0.159398,0.029 -0.118062,-0.21905 -1.093967,-0.76517 -1.242557,-0.95049 -0.362016,-0.25077 -1.255826,-1.01166 -1.747094,-0.90969 -0.491035,0.10189 0.311065,1.12178 0.325281,1.11787 1.125181,1.36099 2.404843,2.57611 3.694436,3.77997 0.119134,-0.0573 0.272073,-0.0709 0.357396,-0.17188 0.03512,-0.0416 -0.09107,-0.0596 -0.136586,-0.0894 -0.09641,-0.0631 -0.192873,-0.12623 -0.289208,-0.18952 -0.480126,-0.31535 -0.959027,-0.63259 -1.440167,-0.94641 -0.122282,-0.0851 -0.247552,-0.16608 -0.366852,-0.2553 -0.08102,-0.0606 -0.132826,-0.18473 -0.233596,-0.19386 -0.909462,-0.0824 0.04034,1.18904 0.113628,1.39764 0.507707,0.85984 1.044046,1.68465 1.647505,2.48145 0.15616,0.20618 0.316156,0.40962 0.482563,0.60764 0.08432,0.10035 0.143306,0.24979 0.269058,0.28675 0.113725,0.0334 0.225835,-0.0721 0.338751,-0.10816 -0.920258,-0.72435 -1.751613,-1.57438 -2.78465,-2.15082 -0.01706,-0.0188 -0.283768,0.22267 -0.266692,0.24151 z" />
    <path
       style="opacity:0.65;fill:#999999;stroke-width:0.264583"
       id="path33"
       d="m 119.72379,290.66381 c -0.10297,0.92043 -0.0655,1.84978 -0.003,2.77146 0.008,0.12139 0.10375,1.37477 0.18021,1.6012 0.0529,0.15661 0.17927,0.27776 0.2689,0.41664 0.009,0.0244 0.35433,-0.10284 0.34533,-0.12726 v 0 c -0.1168,-0.5928 -0.0448,-0.13375 -0.0871,-1.00113 -0.0596,-1.22243 -0.17214,-2.44105 -0.26727,-3.66091 0,-0.0309 -0.43696,-0.0309 -0.43696,0 z" />
    <path
       style="opacity:0.65;fill:#999999;stroke-width:0.264583"
       id="path34"
       d="m 121.64568,291.09884 c -0.1325,1.19144 -0.11902,2.40353 0.1171,3.57976 0,0.0119 0.16666,0.0119 0.16666,0 v 0 c 0.23612,-1.17623 0.2496,-2.38832 0.11711,-3.57976 0,-0.0283 -0.40087,-0.0283 -0.40087,0 z" />
    <path
       style="opacity:0.65;fill:#999999;stroke-width:0.264583"
       id="path35"
       d="m 121.11933,284.51765 c 0.6281,1.1549 1.29319,2.32431 2.19621,3.29035 0.0885,-0.0486 0.19864,-0.10284 0.14334,-0.26701 -0.0405,-0.12023 -1.09846,-0.68813 -1.26445,-0.77055 -0.85889,-0.25786 -1.00452,0.44387 -0.96222,1.11498 0.1069,0.92046 0.61857,1.70299 1.05778,2.4973 0.18761,0.31792 0.32387,0.56163 0.52456,0.86098 0.0803,0.11972 0.17212,0.24098 0.18609,0.22886 0.26125,-0.22674 0.20969,-0.19174 0.0486,-0.36713 -0.18535,-0.19593 -0.47265,-0.64516 -0.78112,-0.278 -0.10603,0.12621 -0.0812,0.58526 -0.0823,0.70927 0.0438,0.50816 0.003,0.26545 0.1144,0.72927 0.003,0.0259 0.3686,-0.0177 0.36551,-0.0437 v 0 c -0.0191,-0.45035 -0.003,-0.21791 -0.0517,-0.69713 -0.009,-0.11316 -0.0145,-0.22664 -0.0268,-0.33948 -0.006,-0.0572 0.0102,-0.12804 -0.0288,-0.17032 -0.0384,-0.0415 -0.11065,-0.0238 -0.16503,-0.0394 -0.0205,-0.006 0.0466,-0.003 0.0632,0.0103 0.12066,0.0977 0.19228,0.24792 0.32596,0.3328 0.21305,0.18454 0.1582,0.21687 0.50284,0.0433 0.0227,-0.0114 -0.0365,-0.17505 -0.0878,-0.29205 -0.0566,-0.12909 -0.11812,-0.25611 -0.18223,-0.38168 -0.0885,-0.17333 -0.18362,-0.3432 -0.27544,-0.5148 -0.432,-0.73748 -1.00075,-1.44532 -1.13698,-2.30955 -0.0222,-0.30176 -0.008,-0.51724 0.12602,-0.78722 0.007,-0.0148 -0.002,-0.0477 0.0143,-0.0478 0.0739,0 0.14451,0.0308 0.21677,0.0463 0.20306,0.11144 0.43744,0.23804 0.63475,0.35555 0.14384,0.0857 1.07728,0.79629 1.06043,0.17626 -0.64048,-1.13858 -1.41014,-2.20332 -2.1827,-3.25424 -0.0116,-0.0249 -0.36468,0.13954 -0.35305,0.16452 z" />
    <path
       style="opacity:0.65;fill:#999999;stroke-width:0.264583"
       id="path36"
       d="m 119.79344,284.09283 c -1.31343,1.5775 -2.41787,3.33285 -3.34885,5.16038 -0.0985,0.24921 -0.55897,0.95062 0.22218,0.81439 0.16282,-0.0284 0.26363,-0.19944 0.39646,-0.29782 0.61403,-0.45471 0.64627,-0.47273 1.30907,-0.94503 0.61608,-0.52126 1.307,-0.95684 1.90986,-1.49448 0.10082,-0.0899 -0.24492,-0.11409 -0.36887,-0.16777 -1.24416,1.03193 -2.20861,2.31201 -3.00358,3.70856 -0.12209,0.32372 -1.16888,2.02123 -0.0181,1.77321 0.13683,-0.0295 0.24325,-0.13856 0.36487,-0.20783 1.01488,-0.51181 1.97205,-1.12906 2.95245,-1.70275 0.0326,-0.0265 -0.34156,-0.48744 -0.37415,-0.46099 v 0 c -1.00391,0.54317 -1.97417,1.13946 -2.89737,1.81264 -0.0957,0.0728 -0.24869,0.1044 -0.28706,0.21833 -0.0257,0.0763 0.12233,0.26766 0.14741,0.19119 0.15785,-0.48122 0.39311,-0.9293 0.63417,-1.37372 0.81118,-1.33405 1.73187,-2.57386 2.79441,-3.71959 -0.0374,-0.13771 -0.0402,-0.28993 -0.11216,-0.41314 -0.0202,-0.0346 -0.0814,0.003 -0.11881,0.0177 -0.7723,0.29618 -1.38058,0.9415 -2.05407,1.39261 -0.55064,0.43251 -0.77014,0.58084 -1.25658,1.04611 -0.10073,0.0963 -0.26916,0.16809 -0.28426,0.30665 -0.013,0.11925 0.11326,0.22977 0.21974,0.28504 0.19091,0.0991 0.029,-1.23947 0.34546,-0.54507 1.06146,-1.73141 2.11063,-3.47036 3.19216,-5.18943 0.0148,-0.0257 -0.34962,-0.23493 -0.36441,-0.20916 z" />
    <circle
       id="path37"
       style="fill:#999999;stroke:#000000;stroke-width:0.264583"
       cx="135.17303"
       cy="249.87971"
       r="0.007924757" />
    <path
       style="opacity:0.65;fill:#999999;stroke-width:0.264583"
       id="path38"
       d="m 122.84204,251.82077 c -0.8418,0.032 -1.75805,0.0748 -2.48018,0.56976 -0.11321,0.0776 -0.20638,0.18097 -0.30957,0.27146 -0.50993,0.69203 -0.56032,1.57677 -0.45888,2.40417 0.0701,0.2849 0.10256,0.43468 0.47881,0.4083 0.0715,-0.005 0.12157,-0.0765 0.18568,-0.10867 0.21286,-0.10672 0.30711,-0.12207 0.54962,-0.1958 0.74528,-0.15752 1.49739,-0.2272 2.20968,-0.51055 0.2887,-0.11377 0.42892,-0.36095 0.18725,-0.61977 0.008,0.0452 -0.0615,-0.0733 -0.0656,-0.0468 -0.0154,0.0981 -0.074,0.21586 -0.0172,0.29728 0.007,0.0101 0.52805,-0.0926 0.72217,-0.1293 0.31492,-0.10563 0.65239,-0.2664 0.59648,-0.64226 -0.0818,-0.3675 -0.25158,-0.72261 -0.43478,-1.05055 -0.36934,-0.48592 -0.91654,-0.80512 -1.49074,-0.99074 -0.36098,-0.0336 -0.17612,-0.0528 -0.55167,0.0808 -0.0147,0.008 0.0916,0.21577 0.10636,0.20826 v 0 c 0.13015,0.0154 0.0442,0.004 0.25639,0.044 0.49096,0.16154 0.96121,0.44969 1.32768,0.81273 0.16297,0.31495 0.33878,0.6394 0.43146,0.98072 0.0113,-0.075 -0.21522,0.16664 -0.40737,0.18029 -0.1958,0.0405 -0.98971,0.0901 -0.80482,0.49105 0.004,0.004 0.0809,0.093 0.0812,0.0926 0.26136,-0.35019 -0.0707,-0.13108 -0.17671,-0.10381 -0.72264,0.23866 -1.4887,0.26831 -2.21393,0.49962 -0.336,0.1377 -0.32259,0.11023 -0.59149,0.28925 -0.0287,0.0191 -0.0971,0.0364 -0.0795,0.0661 0.24509,0.41295 0.16854,-0.0482 0.14387,-0.0868 -0.0399,-0.70107 -0.0504,-1.4667 0.35445,-2.07069 0.6588,-0.54662 1.53697,-0.58826 2.34834,-0.73918 0.0284,0.007 0.13149,-0.39427 0.1031,-0.40156 z" />
    <path
       style="opacity:0.65;fill:#999999;stroke-width:0.264583"
       id="path39"
       d="m 124.25735,253.69199 c -0.84974,-0.27414 -1.93527,-0.52212 -2.7434,0.0159 -0.1238,0.0824 -0.21907,0.20121 -0.32861,0.30181 -0.44056,0.71346 -0.25354,1.55834 0.25068,2.18246 0.49597,0.49238 0.96696,0.31942 1.51691,0.0256 0.65313,-0.38369 1.21122,-0.85546 1.64128,-1.48005 0.0621,-0.11301 0.20986,-0.24964 0.15583,-0.39038 0.009,-0.0129 -0.17325,-0.14106 -0.18231,-0.12817 v 0 c -0.16085,0.0424 -0.24561,0.17371 -0.36512,0.28651 -0.43116,0.53945 -0.93678,0.99605 -1.52028,1.36901 -0.31438,0.17243 -0.62178,0.40935 -0.9305,0.10656 -0.3132,-0.34965 -0.53615,-0.98217 -0.41031,-1.45469 0.0257,-0.0964 0.0913,-0.17743 0.13693,-0.26615 0.0875,-0.0751 0.16363,-0.16608 0.26253,-0.22545 0.71287,-0.42788 1.60326,-0.18741 2.35658,-0.0399 0.0214,0.0113 0.18122,-0.29184 0.15979,-0.30314 z" />
    <path
       style="opacity:0.65;fill:#999999;stroke-width:0.264583"
       id="path40"
       d="m 124.12735,254.91741 c -0.82001,0.62279 -1.34365,1.47459 -1.42686,2.50272 0.19387,0.98855 1.00567,0.69045 1.68595,0.40311 0.78214,-0.44123 1.50672,-0.97588 2.09611,-1.6555 0.17087,-0.26642 0.26184,-0.36458 -0.22124,-0.47446 -0.073,-0.0166 -0.26015,0.18855 -0.31004,0.23544 -0.11189,0.22277 -0.26622,0.27221 -0.48442,0.42243 -0.65436,0.54108 -1.09188,1.02089 -1.24648,1.87579 8e-4,0.15573 -0.0186,0.46114 0.0558,0.61926 0.36042,0.76631 1.47427,0.18834 1.97196,-0.0426 0.85557,-0.60168 0.45594,-0.28046 1.20321,-0.95829 0.0216,-0.0237 -0.31423,-0.32849 -0.33578,-0.30475 v 0 c -0.76056,0.57589 -0.36739,0.29918 -1.18051,0.82871 -0.36447,0.17863 -0.51178,0.27063 -0.85938,0.38785 -0.5,0.1686 -0.41472,-0.0452 -0.42799,-0.46555 0.13961,-0.77422 0.54454,-1.14262 1.0955,-1.66877 0.17929,-0.14737 0.36252,-0.33403 0.47968,-0.45858 0.0742,-0.0595 0.0647,-0.0557 0.15242,-0.10819 0.0257,-0.0154 0.089,-0.0154 0.0786,-0.0434 -0.14514,-0.39036 -0.17643,-0.25961 -0.32281,-0.10284 -0.6034,0.58999 -1.30564,1.06501 -2.01745,1.51384 -0.74876,0.34374 0.0541,-0.009 -0.58457,0.23273 -0.22739,0.0862 -0.33107,0.0845 -0.3956,-0.20032 0.1101,-0.91464 0.58402,-1.67271 1.25784,-2.29142 0.0175,-0.0187 -0.24641,-0.26584 -0.26389,-0.24718 z" />
    <path
       style="opacity:0.65;fill:#999999;stroke-width:0.264583"
       id="path41"
       d="m 133.66203,264.1445 c -1.04519,0.5589 -1.84905,1.28645 -2.36989,2.35682 -0.03,0.12192 -0.085,0.24032 -0.0899,0.36576 -0.0242,0.62344 0.70502,0.60002 1.11741,0.45659 0.15931,-0.0554 0.30744,-0.13885 0.46116,-0.20828 0.83499,-0.5207 1.57796,-1.19364 2.26093,-1.90013 0.18494,-0.25006 0.35039,-0.37777 -0.15812,-0.49326 -0.11377,-0.0259 -0.34275,0.29263 -0.40843,0.3601 -0.5579,0.62843 -1.06063,1.29238 -1.45436,2.03554 -0.20038,0.48607 -0.4852,1.41211 0.24391,1.63886 0.12609,0.0392 0.2623,0.0307 0.39344,0.0461 0.21993,-0.0496 0.44666,-0.0752 0.65978,-0.14877 1.05838,-0.36521 2.22719,-1.19798 3.03518,-1.96882 0.0504,-0.073 0.12196,-0.13512 0.1512,-0.21884 0.099,-0.28339 -0.17552,-0.30615 -0.42289,-0.28773 -0.29308,0.0217 -1.01203,0.52588 -1.24545,0.68445 -0.78347,0.64108 -1.62097,1.33868 -1.95766,2.3228 -0.0682,0.68075 0.2725,0.76581 0.84676,0.74501 0.84918,0.005 1.61975,-0.24373 2.34928,-0.66378 0.20791,-0.0853 0.96491,-0.80095 0.39305,-0.97303 -0.0861,-0.0259 -0.17924,0.013 -0.26885,0.0196 -0.21505,0.0858 -0.39065,0.20772 -0.42411,0.44606 -0.52641,0.41145 -0.9807,0.89133 -1.37804,1.42605 -0.18725,0.31035 -0.53745,0.82283 -0.22287,1.18165 0.21597,0.24638 0.50239,0.25911 0.80032,0.33624 0.25637,0.003 0.51417,0.0341 0.76913,0.007 1.0867,-0.11496 2.19171,-0.80896 2.88831,-1.63142 0.17413,-0.20558 0.29637,-0.45003 0.44456,-0.67503 0.26564,-0.81362 0.22785,-0.42249 0.17654,-1.16557 0.001,-0.009 -0.13122,-0.0274 -0.13249,-0.018 v 0 c -0.26763,0.58412 -0.10829,0.2767 -0.49349,0.91405 -0.92478,1.07286 -1.97889,1.93268 -3.44611,2.04153 -0.22852,-0.003 -0.62884,0.0337 -0.65475,-0.0468 -0.0748,-0.2326 0.21354,-0.51904 0.30105,-0.684 0.42521,-0.55378 0.98676,-1.03431 1.3069,-1.65204 0.001,-0.0257 0.0958,-0.0885 0.22266,-0.1403 -0.0739,-0.0414 -0.0706,-0.0225 -0.0746,-0.14399 -5.3e-4,-0.0135 0.0272,-0.0468 0.0183,-0.0365 -0.14984,0.17161 -0.29933,0.32594 -0.50967,0.43341 -0.6982,0.34965 -1.41319,0.57777 -2.19581,0.63847 -0.25206,0.0895 -0.36932,0.0695 -0.32249,-0.23733 0.3632,-0.88832 1.1699,-1.5004 1.86883,-2.12143 0.43355,-0.30123 0.38696,-0.28213 0.82967,-0.53991 0.087,-0.0507 0.21137,-0.0598 0.26485,-0.14513 0.0327,-0.0521 -0.0546,-0.11207 -0.0656,-0.17266 -0.005,-0.0283 0.0459,-0.0942 0.0189,-0.0842 -0.0693,0.0259 -0.11424,0.094 -0.17136,0.14097 -1.01878,0.75838 -2.08365,1.47212 -3.24815,1.98827 -0.089,0.0151 -0.17692,0.0412 -0.26715,0.0451 -0.56165,0.0241 -0.15401,-0.91059 -0.0733,-1.12393 0.37571,-0.714 0.84507,-1.35808 1.33445,-1.998 0.0692,-0.0743 0.12604,-0.16139 0.20481,-0.22548 0.0275,-0.0225 0.10086,-0.0159 0.0936,-0.0507 -0.0924,-0.4429 -0.19586,-0.20629 -0.34749,-0.0666 -0.70284,0.63014 -1.42303,1.2572 -2.20544,1.78517 -0.77556,0.39415 -0.0217,0.0435 -0.67596,0.27313 -0.3482,0.12224 -0.24028,0.0423 -0.13714,-0.34216 0.51047,-0.95922 1.32396,-1.63107 2.1995,-2.25112 0.0193,-0.0165 -0.21363,-0.29013 -0.23298,-0.27366 z" />
    <circle
       id="path42"
       style="fill:#999999;stroke:#000000;stroke-width:0.264583"
       cx="133.98314"
       cy="261.77875"
       r="0.007924757" />
    <path
       style="opacity:0.65;fill:#999999;stroke-width:0.264583"
       id="path43"
       d="m 136.71044,264.61344 c 0.58533,-0.59611 1.1754,-1.1847 1.73038,-1.80955 0.16272,-0.1883 0.29062,-0.39332 0.35346,-0.63177 0.003,0.0124 1.9e-4,0.0454 0.0102,0.0373 0.0977,-0.0786 0.28158,-0.43905 0.35124,-0.55459 0.25106,-0.2681 0.41419,-0.60167 0.63907,-0.88824 0.21885,-0.22475 0.40173,-0.43724 0.49374,-0.74295 0.0832,-0.19422 0.19284,-0.36158 0.33459,-0.51735 0.15455,-0.20011 0.30352,-0.33995 0.36722,-0.59789 0.0824,-0.1188 -0.1436,-0.53894 -0.045,-0.59939 0.1528,-0.23876 0.25263,-0.49185 0.28162,-0.77398 -0.0527,-0.27645 0.0608,-0.45035 0.14891,-0.70343 0.0879,-0.27865 0.0874,-0.5667 0.0432,-0.85261 -0.0111,-0.11438 -0.05,-0.22334 -0.0461,-0.33764 0.0185,-0.132 0.0186,-0.26558 0.0239,-0.39855 -0.001,-0.10133 -0.009,-0.20035 -0.004,-0.30095 -0.0229,-0.23606 -0.18606,-0.43654 -0.28611,-0.64841 -0.008,-0.20037 -0.0584,-0.37339 -0.14516,-0.5557 -0.0376,-0.43663 -0.71885,-0.1808 -0.53137,0.10869 0.11208,0.17008 0.15043,0.0178 0.4637,-0.26958 0.0298,-0.0274 -0.0629,-0.14351 -0.0642,-0.10305 -0.003,0.0871 0.0122,0.17395 0.0183,0.26093 0.54785,-0.0832 1.09591,-0.25856 1.61216,-0.46746 0.55049,-0.21301 0.45225,-0.52851 0.20224,-0.96307 -0.20162,-0.35766 -0.15646,-0.56921 -0.56267,-0.75197 -0.59128,-0.13393 -1.20343,-0.0602 -1.79831,0.012 -0.52708,0.009 -0.81525,0.40857 -1.09164,0.80163 0.13279,-0.0766 -0.1973,0.24236 -0.11351,0.22825 0.1434,-0.0241 0.31842,-0.0394 0.40828,-0.15369 0.0518,-0.0659 -0.30192,-0.84127 -0.34492,-0.93707 -0.25761,-0.55033 -0.57326,-1.06677 -0.83389,-1.61544 -0.12402,-0.37701 -0.25964,-0.70848 -0.54683,-0.98737 -0.42451,-0.52573 -0.95399,-0.94107 -1.49312,-1.34281 -0.51561,-0.35434 -1.00904,-0.82255 -1.63658,-0.96204 -0.35242,-0.0297 -0.6657,-0.17826 -0.99421,-0.29555 -0.25649,-0.13971 -0.49229,-0.29558 -0.78716,-0.33436 -0.22901,0.006 -0.4327,0.0901 -0.65785,0.11705 -0.0143,-7e-5 -0.0574,-2.1e-4 -0.043,-2.1e-4 0.43233,-9e-5 -0.42014,-0.0357 0.33982,0.36685 0.0905,0.0479 0.17511,-0.56056 0.17811,-0.58836 9e-5,-0.50784 0.008,-1.02833 -0.21348,-1.49393 -0.35222,-0.47811 -0.89114,-0.14904 -1.29552,0.0754 -0.57952,0.32737 -0.57162,0.89406 -0.47796,1.48109 0.0741,0.4606 0.16906,0.91705 0.23363,1.37919 0.0856,-0.0846 0.22474,-0.13786 0.25667,-0.25389 0.0161,-0.0584 -0.11961,-0.0239 -0.18021,-0.0239 -0.57233,-5.3e-4 -1.09697,0.13391 -1.64109,0.29549 -0.85409,0.17086 -1.62463,0.56447 -2.36661,1.00452 -0.6778,0.37034 -1.02873,1.05679 -1.52642,1.61039 -0.63404,0.79312 -1.24272,1.59856 -1.80215,2.44599 -0.21585,0.32181 -0.23623,0.48984 -0.15183,0.84989 -0.001,0.0225 0.31749,0.0419 0.31886,0.0194 v 0 c 0.14249,-0.17902 0.30291,-0.34206 0.41316,-0.54556 0.58472,-0.80519 1.15855,-1.61796 1.74779,-2.4196 0.42492,-0.53774 0.76243,-1.16133 1.3827,-1.50019 0.71618,-0.40574 1.46149,-0.75375 2.27094,-0.92931 0.38618,-0.11198 0.79638,-0.25407 1.19256,-0.3108 0.0588,-0.008 0.12307,0.0199 0.17817,-0.002 0.15067,-0.0606 0.28267,-0.16001 0.42401,-0.24002 0.0428,-0.48941 -0.11399,-0.97963 -0.19506,-1.45692 -0.0732,-0.41654 -0.17913,-0.76196 0.26991,-0.96897 0.0496,-0.027 0.51737,-0.20661 0.52884,-0.24794 0.012,-0.0434 -0.0959,0.006 -0.13399,-0.018 -0.0122,-0.008 -0.0428,-0.15297 0.0144,-0.0408 0.16709,0.39156 0.12996,0.82788 0.15425,1.24533 -0.0184,0.28897 -0.16739,0.90303 0.30941,0.7636 0.0513,-0.007 0.6401,-0.12114 0.31737,-0.094 0.25243,-0.0416 0.44496,0.20844 0.67524,0.27571 0.35132,0.11093 0.68392,0.28441 1.05751,0.29657 0.53357,0.0783 0.97251,0.67588 1.42466,0.92132 0.53901,0.37966 1.09785,0.73681 1.52383,1.24934 0.29096,0.23255 0.31977,0.49981 0.44395,0.84635 0.25187,0.55227 0.55702,1.07045 0.81841,1.61784 0.0917,0.19725 0.19418,0.38966 0.27774,0.59049 0.0322,0.0773 0.0177,0.18388 0.0821,0.23727 0.47395,0.3926 0.41313,0.3186 0.59031,0.0714 0.2256,-0.31728 0.40758,-0.62401 0.83998,-0.60821 0.479,-0.0366 0.95917,-0.0628 1.43972,-0.0537 0.0318,0.002 0.0646,0.0131 0.0953,0.005 0.0154,-0.004 0.0195,-0.0515 0.0285,-0.0383 0.0573,0.0841 0.0695,0.5451 0.18581,0.61274 0.0475,0.096 0.0596,0.22221 0.14507,0.28681 0.0167,0.0127 0.0232,-0.035 0.0366,-0.0512 0.0199,-0.0239 0.0856,-0.0471 0.0633,-0.0688 -0.0726,-0.0705 -0.23586,0.2591 -0.28632,0.10074 -0.55553,0.19688 -1.13956,0.30905 -1.67482,0.56088 -0.0447,0.12102 -0.0987,0.23904 -0.13425,0.36306 -0.0716,0.24947 0.77616,0.1881 0.58029,-0.0745 -0.1657,-0.36583 -0.72543,-0.26445 -0.52674,0.2198 0.0146,0.0355 0.0308,0.0702 0.0462,0.10528 0.0191,0.0363 0.0353,0.0742 0.0573,0.10883 0.009,0.0138 0.0439,0.002 0.0454,0.0185 0.012,0.13345 -0.0322,0.27094 0.0358,0.40032 0.0435,0.10996 0.12286,0.39796 0.24279,0.44564 0.0111,0.004 0.0155,-0.0349 0.0239,-0.0265 0.012,0.0118 1.6e-4,0.0336 2.4e-4,0.0504 0.006,0.097 0.0114,0.19267 0.007,0.29037 0.003,0.1277 -0.008,0.25522 -0.0126,0.38271 -0.007,0.14185 0.0147,0.28379 0.0336,0.42404 0.0299,0.22024 0.0374,0.4295 -0.0443,0.64097 -0.0771,0.26614 -0.21555,0.51064 -0.15631,0.79762 -0.0327,0.26236 -0.18075,0.47102 -0.26985,0.71594 -0.032,0.21917 0.0129,0.40218 0.0413,0.61743 0.002,0.15876 -0.23904,0.21337 -0.27016,0.36785 -0.19403,0.20792 -0.32519,0.44742 -0.43465,0.709 -0.0628,0.24437 -0.27963,0.38915 -0.43276,0.58133 -0.22647,0.30988 -0.41991,0.64371 -0.65661,0.94724 -0.12057,0.22938 -0.27238,0.44216 -0.37051,0.68359 0.006,-0.009 0.0222,-0.0382 0.0184,-0.0277 -0.0594,0.1611 -0.22526,0.27295 -0.31322,0.41296 -0.53922,0.62011 -1.163,1.16847 -1.64703,1.83678 -0.0202,0.026 0.34748,0.31117 0.36765,0.28519 z" />
    <path
       style="opacity:0.65;fill:#999999;stroke-width:0.264583"
       id="path44"
       d="m 137.5668,255.74956 c -0.58285,-0.98494 -1.22686,-1.92132 -1.96504,-2.79597 -0.28299,-0.31615 -0.87371,-1.00629 -1.09015,-0.20966 -0.20286,0.11916 -0.33256,0.0732 -0.52272,-0.0464 -0.0436,0.0112 -0.0873,0.0224 -0.13087,0.0336 -0.005,-0.009 -0.13421,0.0616 -0.12921,0.0707 v 0 c -0.0102,0.0605 -0.0204,0.12095 -0.0306,0.18143 0.39665,0.32664 0.94549,0.31896 1.21263,-0.16012 0.0368,-0.18953 0.037,-0.0599 -0.0535,-0.0552 -0.0478,0.002 -0.0924,-0.0338 -0.14025,-0.0314 -0.0293,0.002 0.0589,0.0151 0.081,0.0344 0.0649,0.0566 0.37334,0.4332 0.38669,0.4492 0.69327,0.90742 1.31897,1.8617 2.02671,2.75558 0.016,0.0251 0.37128,-0.201 0.35529,-0.22612 z" />
    <path
       style="opacity:0.65;fill:#999999;stroke-width:0.264583"
       id="path46"
       d="m 131.89318,250.01389 c -0.58676,-0.85206 -1.22416,-1.76587 -2.11633,-2.32895 -0.13197,-0.0833 -0.28022,-0.13744 -0.42033,-0.20616 -0.41273,-0.11448 -0.85867,-0.0291 -0.95876,0.46463 -0.0334,0.16489 0.0153,0.33615 0.0229,0.50423 -0.002,0.0181 0.25305,0.0533 0.25554,0.0352 v 0 c 0.0555,-0.12255 0.11525,-0.24326 0.16648,-0.36766 0.0242,-0.0588 0.0613,-0.11765 0.0595,-0.1812 -7.9e-4,-0.03 -0.0959,-0.0547 -0.0665,-0.0606 0.0658,-0.0132 0.13226,0.0228 0.1984,0.0341 1.01768,0.53457 1.68003,1.5392 2.42787,2.38074 0.0194,0.0305 0.45051,-0.24389 0.43111,-0.27438 z" />
    <path
       style="opacity:0.65;fill:#999999;stroke-width:0.264583"
       id="path47"
       d="m 130.58977,252.61561 c -0.36528,0.39973 -1.25825,1.00518 -1.69764,0.34605 -0.0691,-0.10368 -0.0789,-0.23637 -0.11837,-0.35456 0.0159,-0.14275 5.3e-4,-0.29258 0.0477,-0.42825 0.18364,-0.52852 0.8874,-1.031 1.46256,-0.92757 0.0791,0.0142 0.13091,0.0932 0.19636,0.13976 0.0588,0.0928 0.1406,0.17461 0.17634,0.27852 0.20917,0.60816 -0.0531,1.42848 -0.48333,1.88099 -0.0958,0.1008 -0.22381,0.16519 -0.33571,0.24779 -0.49676,0.0391 -0.45887,-0.13802 -0.69334,-0.54945 -0.0113,-0.0232 -0.33954,0.13689 -0.32822,0.1601 v 0 c 0.38038,0.61071 0.51331,0.85225 1.29682,0.65808 0.13715,-0.10677 0.29337,-0.19276 0.41144,-0.32031 0.52231,-0.56429 0.77039,-1.52859 0.44963,-2.25243 -0.0659,-0.14869 -0.19037,-0.26375 -0.28556,-0.39562 -0.17604,-0.0663 -0.34158,-0.17462 -0.52812,-0.19883 -0.73551,-0.0955 -1.54071,0.57268 -1.71307,1.25844 -0.0453,0.18042 -0.0111,0.37189 -0.0167,0.55784 0.15466,0.36806 0.17835,0.63994 0.60237,0.80296 0.70661,0.27168 1.42554,-0.19052 1.82861,-0.7305 0.0122,-0.0192 -0.25962,-0.19224 -0.27185,-0.17301 z" />
    <path
       style="opacity:0.65;fill:#999999;stroke-width:0.264583"
       id="path48"
       d="m 128.80975,253.52385 c 0.006,0.71213 0.0999,1.42434 0.22113,2.12529 0.018,0.10413 0.18962,1.0106 0.28054,1.18127 0.0487,0.0914 0.15456,0.13782 0.23185,0.20674 7.9e-4,0.004 0.059,-0.007 0.0582,-0.0107 v 0 c 0.0432,-0.0855 0.11715,-0.16142 0.12948,-0.25636 0.0216,-0.16673 -0.0146,-0.33611 -0.0308,-0.50345 -0.0911,-0.94033 -0.28678,-1.86664 -0.45696,-2.79463 -0.004,-0.0307 -0.43708,0.0213 -0.43341,0.0519 z" />
    <path
       style="opacity:0.65;fill:#999999;stroke-width:0.264583"
       id="path49"
       d="m 129.27652,253.02325 c -0.70761,-0.16473 -1.42968,-0.27244 -2.15639,-0.2871 -0.4269,-0.01 -0.85127,0.0391 -1.27477,0.0848 -0.0225,0.007 0.0824,0.32547 0.10494,0.31805 v 0 c 0.35895,-0.0193 0.71722,-0.0472 1.07588,-0.071 0.71439,0.028 1.41712,0.19184 2.12924,0.24983 0.0208,0.009 0.14193,-0.286 0.1211,-0.29456 z" />
  </g>
</svg>
