<?xml version="1.0" encoding="UTF-8" standalone="no"?>
<!-- Created with Inkscape (http://www.inkscape.org/) -->

<svg
   version="1.1"
   id="svg1"
   width="316.6629"
   height="117.76396"
   viewBox="0 0 316.6629 117.76396"
   sodipodi:docname="mus.svg"
   inkscape:version="1.3.2 (091e20e, 2023-11-25)"
   xmlns:inkscape="http://www.inkscape.org/namespaces/inkscape"
   xmlns:sodipodi="http://sodipodi.sourceforge.net/DTD/sodipodi-0.dtd"
   xmlns="http://www.w3.org/2000/svg"
   xmlns:svg="http://www.w3.org/2000/svg">
  <defs
     id="defs1" />
  <sodipodi:namedview
     id="namedview1"
     pagecolor="#ffffff"
     bordercolor="#000000"
     borderopacity="0.25"
     inkscape:showpageshadow="2"
     inkscape:pageopacity="0.0"
     inkscape:pagecheckerboard="0"
     inkscape:deskcolor="#d1d1d1"
     inkscape:zoom="2.6187991"
     inkscape:cx="58.423725"
     inkscape:cy="-27.875372"
     inkscape:window-width="1680"
     inkscape:window-height="861"
     inkscape:window-x="0"
     inkscape:window-y="25"
     inkscape:window-maximized="0"
     inkscape:current-layer="layer1" />
  <g
     inkscape:groupmode="layer"
     id="layer1"
     inkscape:label="Image 1"
     transform="translate(-56.933981,-99.728209)">
    <path
       style="opacity:0.65;fill:#000000"
       id="path1"
       d="m 175.76817,162.04971 c 1.77449,-1.95766 2.76496,-4.40339 3.66312,-6.84661 0.22315,-0.85935 0.41237,-1.74004 0.4676,-2.62919 0.0268,-0.43146 -0.0454,-0.8502 -0.0338,-1.27958 0.18137,-0.91478 0.49391,-1.80601 0.80135,-2.68688 0.53625,-1.92663 1.13519,-3.84469 1.82535,-5.72165 0.56779,-1.99131 1.27073,-3.93495 1.88068,-5.91199 0.44045,-1.37472 0.82757,-2.74704 1.48602,-4.03731 0.81273,-1.31123 1.93794,-2.35021 3.14094,-3.29333 1.69903,-1.31094 3.62776,-2.27973 5.51226,-3.29127 1.21035,-0.56264 2.30208,-1.34755 3.50588,-1.92328 0.63777,-0.30503 1.3043,-0.54588 1.95694,-0.81763 1.63371,-0.56853 3.20057,-1.33258 4.84076,-1.88202 0.89027,-0.29823 1.80217,-0.52754 2.70277,-0.79297 1.39615,-0.53909 2.90642,-0.71865 4.30317,-1.25101 0.56543,-0.21551 1.10753,-0.48844 1.6693,-0.71331 2.10987,-1.11972 4.12847,-2.39916 6.13964,-3.68473 2.19728,-1.46403 4.47184,-2.80599 6.68905,-4.23913 1.34679,-0.81421 2.71111,-1.59044 3.99711,-2.49994 1.30901,-0.84898 2.39088,-1.96305 3.50509,-3.03879 0.921,-0.86735 1.95681,-1.55549 3.16156,-1.94446 0.10992,-0.0239 0.21738,-0.0666 0.32976,-0.0717 0.10448,-0.005 0.40271,-0.007 0.31078,0.0431 -0.12761,0.0692 -0.57982,0.0177 -0.43481,0.0242 0.97981,0.0441 1.95227,-0.009 2.93116,0.0208 2.75467,0.0499 5.49584,-0.27593 8.24793,-0.35864 1.34968,0.0152 2.43879,-0.33388 3.70001,0.0114 1.75687,1.03068 3.73911,1.60162 5.68242,2.16556 2.41058,0.70341 4.91156,1.00261 7.3537,1.56786 0.82351,0.1906 1.51901,0.4187 2.3191,0.66539 1.69305,0.56897 3.22319,1.50992 4.64549,2.57434 1.16005,0.90566 2.43184,1.62366 3.81415,2.12177 0.9314,0.31115 1.87578,0.58307 2.79516,0.9299 0.56814,0.24706 1.04628,0.63249 1.65239,0.81158 0.6647,0.25193 1.37165,0.34335 2.05449,0.52804 1.02667,0.34992 2.14,0.47653 3.21462,0.29564 0.86334,-0.0527 1.72924,-0.006 2.57669,-0.17787 0.74703,-0.21332 0.7444,-0.52495 0.86063,-1.25691 0.061,-0.10882 -1.47792,-0.97213 -1.53896,-0.86331 v 0 c -0.003,-0.49891 0.0794,-0.73927 -0.45396,-0.68777 -0.78772,0.0427 -1.5751,0.0589 -2.35572,0.18198 -0.0943,-0.005 -0.37695,-0.0223 -0.28284,-0.0148 1.25679,0.10027 -0.47132,0.0366 -0.6353,-0.0901 -0.3024,-0.0921 -0.59849,-0.20779 -0.90687,-0.27723 -0.44615,-0.10046 -0.93227,-0.028 -1.35154,-0.25101 -0.0424,0.002 -0.0848,0.005 -0.12726,0.007 -0.0355,0.0169 -0.0673,0.0481 -0.1065,0.0508 -0.26665,0.0183 -0.6194,-0.47906 -0.82583,-0.57626 -0.92099,-0.55696 -1.91838,-0.99054 -2.99192,-1.1436 -0.2799,-0.11237 -0.5703,-0.19786 -0.84825,-0.31499 -0.86076,-0.36274 -1.49673,-1.07692 -2.29465,-1.54282 -0.76911,-0.54731 -1.50983,-1.15931 -2.31159,-1.65848 -0.89038,-0.55434 -1.86198,-0.96741 -2.76454,-1.50005 -3.12095,-1.47674 -6.51588,-2.30098 -9.91715,-2.83013 -0.61839,-0.0862 -1.2352,-0.18477 -1.85519,-0.25866 -1.29314,-0.15413 -2.56162,-0.17565 -3.69381,-0.90241 -2.05018,-1.102981 -4.15698,-1.066264 -6.43841,-1.056319 -2.7244,0.149824 -5.43684,0.399539 -8.14533,0.725869 -0.26417,0.0328 -0.52744,0.0738 -0.79251,0.0983 -0.19454,0.0179 -0.39351,-0.008 -0.58539,0.0288 -0.0848,0.0162 0.34318,0.0331 0.25682,0.0341 -0.92923,0.011 -1.76565,-0.0679 -2.65616,0.22397 -1.64371,0.56468 -2.93183,1.28119 -4.13766,2.56986 -1.06197,0.95963 -2.03983,2.02684 -3.2766,2.77049 -1.1922,0.87473 -2.51964,1.50175 -3.84133,2.16007 -2.4878,1.16323 -4.75877,2.71431 -7.02717,4.25318 -1.77835,1.25819 -3.58225,2.496 -5.47671,3.57063 -1.88184,0.80002 -3.96028,0.98027 -5.91913,1.53625 -2.66232,0.86458 -5.29017,1.86637 -7.81763,3.07063 -1.82034,0.99963 -3.66906,1.94822 -5.51773,2.89411 -2.05099,1.10931 -4.06121,2.3294 -5.83863,3.84798 -1.3428,1.29169 -2.78111,2.51093 -3.59565,4.23385 -0.69156,1.40382 -1.08557,2.91165 -1.63188,4.37431 -0.71674,1.95773 -1.55284,3.87406 -2.12332,5.88296 -0.55389,1.97147 -1.15345,3.93588 -1.48302,5.96113 -0.19533,1.08005 -0.46244,2.15113 -0.50229,3.25118 -0.0409,1.08217 -0.12896,2.14639 -0.59486,3.15344 -0.78755,2.27172 -1.85365,4.42172 -2.85816,6.60304 -0.076,0.14114 1.92014,1.21594 1.99613,1.07479 z" />
    <path
       style="opacity:0.65;fill:#000000"
       id="path2"
       d="m 278.12829,131.63517 c 1.47113,-1.89949 2.48011,-4.09708 3.50476,-6.25573 0.64584,-1.38941 1.76812,-2.32472 2.88267,-3.31656 0.8235,-0.91061 1.82677,-1.6011 2.66679,-2.49459 0.86792,-1.00317 1.82417,-1.92223 2.74059,-2.87942 0.46608,-0.4445 0.91833,-0.91289 1.31105,-1.4248 0.26636,-0.34719 0.40774,-0.70356 0.77414,-0.94851 0.84074,-0.57434 1.62133,-1.22684 2.50963,-1.72798 0.678,-0.33685 1.27102,-0.82714 1.97092,-1.1234 0.26214,-0.11096 0.53761,-0.18767 0.80289,-0.29092 -0.0292,-0.15025 1.00334,-0.14197 0.81056,-0.12685 -0.14299,0.0112 -0.30811,-0.0705 -0.43026,0.005 -0.0996,0.0613 0.2324,0.0275 0.3479,0.0461 0.1691,0.0272 0.33711,0.0606 0.50566,0.091 1.64685,0.19916 3.29686,0.27722 4.93045,0.58284 2.472,0.48307 4.80147,1.43623 7.15799,2.29125 0.88025,0.40545 1.90417,0.47171 2.76285,0.93089 0.18566,0.0993 0.59727,0.39718 0.76681,0.5166 1.79852,1.52354 3.83286,2.66075 5.96638,3.63833 1.6949,0.82293 3.46263,1.18605 5.30637,1.4253 0.94154,0.16996 1.88879,0.26098 2.82215,0.4756 1.39233,0.14843 2.65831,0.71986 3.93219,1.26022 0.91393,0.36347 1.67764,0.91794 2.32732,1.64532 0.80597,1.05554 1.47264,2.20754 2.23934,3.29814 0.77288,1.23445 1.49847,2.49811 2.21878,3.76382 0.43394,0.87651 0.85369,1.76401 1.13817,2.7013 0.44191,1.18053 0.51644,2.44668 0.79457,3.66751 0.0917,1.13512 0.0514,2.28967 -0.0257,3.42718 0.10268,1.82725 -0.43598,1.26587 2.52683,1.13438 0.0251,-0.27303 -0.0305,-0.29785 -0.26966,-0.42747 0.008,-0.13242 -1.86454,-0.2479 -1.87271,-0.11548 v 0 c -0.23793,-0.0381 -0.28443,-0.0719 -0.35391,0.15749 2.81511,0.32303 2.21232,0.98169 2.56942,-0.57357 0.12169,-1.31595 0.28089,-2.62917 0.0808,-3.9492 -0.12157,-1.35785 -0.42854,-2.70774 -0.90851,-3.98422 -0.33738,-1.05134 -0.81884,-2.04956 -1.17839,-3.0936 -0.0917,-0.19761 -0.57689,-1.24855 -0.65369,-1.38947 -0.49207,-0.90293 -1.17874,-1.68901 -1.62424,-2.62006 -0.77802,-1.2522 -1.67995,-2.41822 -2.56457,-3.59582 -0.89103,-0.85461 -1.68721,-1.81617 -2.81822,-2.37135 -1.42191,-0.68867 -2.8953,-1.34178 -4.48473,-1.50221 -0.98096,-0.11828 -1.95396,-0.25874 -2.93221,-0.40068 -1.48471,-0.23414 -3.0456,-1.02879 -4.41719,-1.5943 -2.01727,-0.89938 -4.07088,-1.76555 -5.95511,-2.9235 -1.16197,-0.80716 0.12481,0.0657 -0.98203,-0.62576 -0.89881,-0.56147 -1.65662,-1.25648 -2.73103,-1.54569 -2.49014,-1.02399 -5.04438,-2.02148 -7.71464,-2.43952 -1.71001,-0.21153 -3.4136,-0.39233 -5.13985,-0.34486 -1.20751,-0.0428 -2.43073,-0.249 -3.59577,0.19203 -1.13964,0.39796 -2.16301,1.00211 -3.18603,1.63657 -0.995,0.64525 -1.90777,1.41468 -2.80606,2.18681 -0.68937,0.81205 -1.34254,1.65877 -2.0944,2.41364 -0.94995,0.94614 -1.789,1.98868 -2.65772,3.00821 -0.79042,0.85068 -1.616,1.66681 -2.41301,2.50915 -1.47131,1.44141 0.812,-0.77284 -0.9786,0.87502 -0.94207,0.86697 -1.67694,1.91777 -2.28058,3.04149 -1.11286,2.102 -2.04453,4.29946 -2.70922,6.58606 -0.0409,0.0997 1.36909,0.67841 1.41001,0.57871 z" />
    <path
       style="opacity:0.65;fill:#000000"
       id="path19"
       d="m 343.52265,138.28515 c 1.56355,1.6663 3.43789,2.99935 5.13866,4.51741 0.92775,0.87777 1.89322,1.81415 2.34011,3.03605 0.21327,1.48474 0.54329,2.94629 0.99831,4.37501 0.59026,1.4898 1.2547,2.93203 1.74641,4.45997 0.49355,1.91894 1.06957,3.81413 1.70977,5.68939 0.58581,1.63145 1.41299,3.15906 1.9889,4.79514 0.61705,1.93596 1.16637,3.87953 1.90867,5.7731 0.76354,2.2319 1.61979,4.42832 2.61882,6.56509 0.84976,2.34078 2.05933,4.5068 3.25529,6.68118 0.83564,1.55007 1.90563,2.95568 2.8052,4.46567 0.46736,0.79102 0.685,1.68667 0.95754,2.55599 0.23301,0.99808 0.59441,1.95017 0.93962,2.91186 0.23551,0.6836 0.35235,1.38896 0.51702,2.08735 0.092,0.40047 0.37215,0.74674 0.34506,1.16236 -0.20674,-0.0717 -0.56576,0.50955 -0.72067,0.664 -0.18653,0.0733 -0.30822,0.24323 -0.47844,0.33949 -0.26865,0.15192 -0.91973,-0.0175 0.16753,0.13135 0.10468,0.12712 0.20125,0.26136 0.31404,0.38134 0.0183,0.0195 -0.01,-0.055 -0.0267,-0.0757 -0.14445,-0.17742 -0.28232,-0.36353 -0.45401,-0.51473 -0.29671,-0.2613 -0.79249,-0.43926 -1.12898,-0.64993 -1.13318,-0.86162 -2.00021,-1.99107 -2.9814,-3.0078 -1.12296,-1.32075 -2.35116,-2.54699 -3.60983,-3.74295 -1.01218,-1.1469 -1.96797,-2.3288 -3.05368,-3.41015 -1.09383,-0.88447 -2.27698,-1.68706 -3.50984,-2.36832 -1.26421,-0.82288 -2.67618,-1.38414 -4.0937,-1.88129 -1.32634,-0.44834 -2.65796,-0.80997 -3.89515,-1.47874 -0.80842,-0.43233 -1.46298,-1.07908 -2.27023,-1.51532 -0.3516,-0.19 -0.86685,-0.40436 -1.23571,-0.56424 -0.895,-0.21878 -1.77928,-0.4929 -2.68008,-0.69246 -0.91526,-0.26959 -1.86521,-0.27905 -2.79062,-0.0712 -0.13245,0.0122 -0.22283,0.12032 -0.34232,0.16027 -0.0296,0.01 -0.0756,-0.0788 -0.0446,-0.0822 0.12649,-0.0139 0.25452,2.7e-4 0.38177,4.1e-4 -0.99243,-0.13091 -1.59221,0.19649 -2.31366,0.78617 -0.7854,0.70319 -1.42043,1.54884 -2.18513,2.27555 -0.85642,0.78619 -1.83533,1.44013 -2.6772,2.24211 -0.32475,0.30936 -0.61756,0.65094 -0.93896,0.96377 -0.40548,0.30405 -0.76818,0.63773 -1.17407,0.92056 -0.37159,0.19704 -0.76637,0.44367 -1.16114,0.68062 -0.76582,0.65625 -1.61831,1.1743 -2.51222,1.63584 -0.92475,0.28347 -1.68922,0.92587 -2.58243,1.27621 -0.2101,0.0824 -0.44026,0.0997 -0.65922,0.1544 -0.5645,0.0807 -1.12182,0.22189 -1.62582,0.49699 -1.44886,0.752 -2.91537,1.45598 -4.33895,2.26729 -1.48191,0.9318 -0.78062,0.39923 -2.09805,1.60535 -0.10515,0.0708 0.89627,1.55791 1.00142,1.4871 v 0 c 2.15841,-0.30933 1.17053,-0.006 2.98587,-0.83496 1.33516,-0.80536 2.68363,-1.60404 3.88958,-2.59663 0.41381,-0.0616 0.78421,-0.2354 1.22465,-0.19974 1.39298,-0.28543 2.67011,-0.93497 3.82727,-1.7532 0.84766,-0.57771 1.63819,-1.21376 2.35483,-1.94914 0.35899,-0.28094 0.78132,-0.47429 1.13439,-0.76646 0.47374,-0.33269 1.0043,-0.57137 1.46065,-0.94831 1.287,-1.05741 2.71478,-1.99015 3.68883,-3.37227 0.62581,-0.75764 1.26593,-1.50219 1.93101,-2.22531 0.0778,-0.0737 0.22269,-0.22808 0.33514,-0.29068 0.0365,-0.0203 0.15862,-0.0368 0.11744,-0.0441 -0.99603,-0.17641 -0.46838,0.0136 -0.23086,-0.002 0.52843,0.011 0.71592,-0.0152 1.16495,-0.13232 0.0463,-0.0121 0.0426,0.2422 0.14193,0.0217 0.51408,-0.0597 0.0914,0.003 1.09036,0.10699 0.80444,0.27376 1.64856,0.37212 2.4463,0.65065 1.17674,0.48262 2.21929,1.23277 3.28279,1.91951 1.26762,0.85615 2.7524,1.30353 4.2158,1.71647 1.33132,0.44776 2.65625,0.95203 3.88232,1.64242 1.1183,0.62335 2.206,1.32803 3.21476,2.11452 1.18857,0.935 1.9419,2.25749 2.96611,3.35977 0.55076,0.57376 0.75223,0.7993 1.34438,1.34983 0.6236,0.57979 1.33149,1.10373 1.91538,1.72529 0.14223,0.15139 0.2555,0.32759 0.38324,0.49138 0.97817,1.24199 2.09278,2.42883 3.40578,3.3173 0.13777,0.0791 1.30377,0.76113 1.41234,0.56091 0.0635,-0.11709 -0.0937,-0.2494 -0.14067,-0.37403 -0.01,-0.0264 0.0197,0.0528 0.0295,0.0792 0.12151,0.17304 0.24302,0.34607 0.36453,0.51911 0.2561,0.0523 0.50818,0.13115 0.76829,0.1569 0.71247,0.0705 1.40579,-0.55776 1.84417,-1.02639 0.36219,-0.51142 0.85795,-0.93397 0.95703,-1.58231 0.0103,-0.53719 -0.0777,-1.05758 -0.25389,-1.56541 -0.17882,-0.73262 -0.27865,-1.4851 -0.48186,-2.21306 -0.28164,-0.99071 -0.66172,-1.94993 -0.9274,-2.9457 -0.34366,-0.94257 -0.53284,-1.93276 -1.00371,-2.82381 -0.76202,-1.57657 -1.54978,-3.12867 -2.51211,-4.59747 -0.56436,-1.07021 -1.04144,-2.17912 -1.60036,-3.25148 -0.56509,-1.08421 -1.22859,-2.11946 -1.70979,-3.24732 -0.88806,-2.16478 -1.59882,-4.39959 -2.56199,-6.53466 -0.41279,-0.96881 -0.86495,-1.93975 -1.19914,-2.93982 -0.79212,-2.3704 0.31344,0.63725 -0.53314,-1.83599 -0.10317,-0.3014 -0.23143,-0.59363 -0.34714,-0.89045 -0.63631,-1.59195 -1.40613,-3.12343 -1.96352,-4.74738 -0.63763,-1.87128 -1.15259,-3.7836 -1.88158,-5.62466 -0.50929,-1.50856 -1.17216,-2.95088 -1.69987,-4.45351 -0.45495,-1.44403 -0.98975,-2.86442 -1.29965,-4.34882 -0.19858,-0.55799 -0.37119,-1.14779 -0.66694,-1.66462 -0.45396,-0.79331 -1.09582,-1.46681 -1.72646,-2.11806 -1.67422,-1.62614 -3.42347,-3.21424 -5.51026,-4.29925 -0.0692,-0.0764 -1.14975,0.90213 -1.08056,0.97853 z" />
    <path
       style="opacity:0.65;fill:#000000"
       id="path20"
       d="m 339.1127,159.11245 c -2.01241,1.33827 -3.54598,3.33781 -4.43176,5.58041 -0.16556,0.41915 -0.27825,0.8573 -0.41738,1.28595 -0.0675,0.32775 -0.34466,1.89281 0.2328,2.1346 0.98471,0.4123 1.24652,-0.0977 1.66824,-0.77592 0.26453,-0.46994 0.29031,-1.03238 0.47802,-1.52598 0.12834,-0.3375 0.34741,-0.54127 0.57805,-0.81877 1.21614,-1.36727 2.47609,-2.50848 4.24091,-3.07592 0.18972,-0.0206 0.37856,-0.0714 0.56916,-0.0619 0.0477,0.002 0.0642,0.0739 0.10664,0.0957 0.57274,0.29373 0.79167,0.36003 1.13972,0.93906 0.003,0.0184 0.006,0.0736 0.008,0.0551 0.0744,-0.62778 0.57721,-0.28922 0.34778,-0.44597 0.0453,0.36563 -0.38771,0.73459 -0.79622,0.37885 -0.0645,0.0175 -0.13971,0.0128 -0.19347,0.0524 -0.1271,0.0938 -0.21497,0.2323 -0.33361,0.33661 -0.70405,0.61902 -1.44481,1.20029 -2.14868,1.82166 0.64862,-0.0136 -0.64269,0.33958 -0.45249,0.4154 1.13106,0.45087 1.0457,-0.39564 1.31106,-1.24696 0.0495,-0.19104 0.10352,-0.38098 0.14855,-0.57313 0.0817,-0.34862 0.1744,-0.74332 0.0853,-0.7561 -1.03898,-0.14908 -0.89445,-0.38559 -1.05234,0.11195 -0.36537,0.98181 0.37765,1.22279 1.25226,1.00983 0.0731,-0.0272 0.27394,-0.0258 0.21939,-0.0816 -0.066,-0.0675 -0.20009,0.0625 -0.28274,0.0168 -0.14,-0.0773 -0.19506,-0.25989 -0.32536,-0.35262 -0.12816,-0.0912 -0.75806,0.3412 -0.84217,0.38296 -0.13483,0.019 -0.26836,0.0606 -0.40449,0.0571 -0.0224,-5.7e-4 0.0197,-0.0506 0.005,-0.0672 -0.28367,-0.31209 -0.40291,-0.20185 -0.15347,-0.70521 0.0728,-0.11382 0.24577,-0.40828 0.36091,-0.50217 0.0648,-0.0528 0.63503,-0.19165 -0.15627,0.0196 0.0697,0.0318 0.51911,-0.95435 0.44938,-0.98612 v 0 c -0.3099,-0.0127 -0.62565,-0.0994 -0.92972,-0.0382 -0.5439,0.10946 -0.83815,0.87145 -1.01266,1.29216 -0.0224,0.22827 -0.086,0.45624 -0.0671,0.68482 0.122,1.47015 1.60323,1.73699 2.73443,1.17219 0.16248,-0.12181 0.33982,-0.22598 0.48745,-0.36541 0.68978,-0.65152 0.78474,-1.80476 -0.50639,-1.51841 -0.0668,0.007 -0.14167,-0.0117 -0.20052,0.0207 -0.031,0.0171 0.0882,0.001 0.1003,0.0345 0.0722,0.19807 0.0662,0.41894 0.13738,0.61737 0.0563,0.15672 0.1133,-0.64077 0.14647,-0.47759 0.10221,-0.52124 0.13711,-0.32026 -0.8707,-0.64417 -0.0813,-0.0261 -0.30663,0.4757 -0.4142,0.77414 -0.0687,0.19063 -0.12436,0.38572 -0.18655,0.57858 -0.0769,0.31539 -0.4645,1.66551 -0.23636,1.93968 0.59759,0.71816 1.02622,0.37109 1.57938,0.0588 1.10114,-0.78832 2.21723,-1.75972 2.73718,-3.03775 -0.0165,-0.0893 -0.0414,-0.75412 -0.34941,-0.74776 -0.88438,0.0183 -1.008,0.37698 -0.70227,0.94941 0.67533,0.8104 1.77491,0.50405 1.62834,-0.63221 -0.58485,-1.64999 -1.98763,-2.12812 -3.65922,-1.87962 -0.30826,0.0944 -0.62687,0.15992 -0.92477,0.28313 -1.63162,0.67482 -2.88391,2.01474 -3.85047,3.45097 -0.11566,0.22969 -0.24665,0.45227 -0.34698,0.68906 -0.24749,0.58411 -0.24431,1.23961 -0.55268,1.80076 -0.0988,0.21055 -0.22607,0.47021 -0.21047,0.48394 0.159,0.13999 0.39,0.16906 0.57083,0.27944 0.13577,0.0829 -0.21581,0.75767 0.15179,-0.32469 0.092,-0.27077 0.19686,-0.53697 0.29529,-0.80545 1.01561,-2.42843 2.46904,-4.50499 4.06031,-6.58993 0.0542,-0.0579 -0.76461,-0.82486 -0.81885,-0.76696 z" />
    <path
       style="opacity:0.65;fill:#000000"
       id="path21"
       d="m 358.25075,166.55964 c 0.38311,-0.16452 0.76911,-0.32248 1.14933,-0.49357 2.2927,-1.03165 1.27458,-0.64546 3.82667,-1.71774 2.11374,-0.8881 4.25897,-1.68449 6.36203,-2.59836 1.16227,-0.50382 0.83272,-0.18704 1.22889,-0.60861 0.0235,0.0212 0.32325,-0.31064 0.29978,-0.33184 v 0 c -1.3248,-1.15813 -0.50987,-0.78 -2.54859,-0.87658 -0.70477,0.15676 -1.42356,0.26018 -2.1143,0.47029 -2.88398,0.87727 -5.9702,2.42239 -8.2286,4.44157 -0.31177,0.27874 -0.57155,0.61067 -0.85733,0.91601 -0.0565,0.0624 0.82563,0.86121 0.88212,0.79883 z" />
    <path
       style="opacity:0.65;fill:#000000"
       id="path22"
       d="m 361.15266,171.74289 c 1.03124,-0.73664 1.99676,-1.60011 3.07985,-2.26216 0.83689,-0.51155 2.26579,-1.16437 3.17787,-1.49907 0.52738,-0.19353 1.07341,-0.33183 1.61012,-0.49774 1.51369,-0.3737 0.8962,-0.23162 1.84811,-0.44479 0.0894,0.0311 0.52903,-1.23388 0.43959,-1.26496 v 0 c -2.19542,-0.43272 -1.09543,-0.3906 -3.29964,-0.135 -0.61219,0.18709 -1.24023,0.32855 -1.83656,0.56127 -2.47263,0.96494 -4.85422,2.60771 -5.98957,5.06904 -0.0335,0.0686 0.93675,0.54202 0.97023,0.47341 z" />
    <path
       style="opacity:0.65;fill:#000000"
       id="path23"
       d="m 363.25691,173.84632 c 0.42995,-4.5e-4 0.85994,0.004 1.28985,-0.001 0.61936,-0.008 1.23842,-0.0474 1.85779,-0.0404 6.19109,0.0697 -1.06447,0.0818 4.26838,0.18713 0.77133,0.0152 1.54292,-0.0105 2.31438,-0.0157 0.10352,0.0423 0.70109,-1.42169 0.59757,-1.46394 v 0 c -0.74578,-0.25347 -1.46042,-0.63072 -2.23735,-0.7604 -2.82906,-0.4722 -5.97109,-0.10193 -8.66289,0.86323 -0.0871,0.0405 0.48519,1.27194 0.57227,1.23147 z" />
    <path
       style="opacity:0.65;fill:#000000"
       id="path24"
       d="m 351.76621,178.03413 c -1.49604,1.41205 -2.54825,3.2124 -3.63871,4.93443 -0.54492,0.86053 -1.11073,1.70874 -1.62075,2.5904 -1.28221,2.21651 -1.58259,2.99753 -2.62392,5.25757 -0.21275,0.65568 -0.42551,1.31137 -0.63827,1.96706 -0.0511,0.11544 1.58147,0.83838 1.63259,0.72294 v 0 c 0.44315,-0.55565 0.8863,-1.1113 1.32945,-1.66695 0.4907,-0.79155 1.00764,-1.56742 1.47209,-2.37465 0.82129,-1.4274 2.08506,-3.93627 2.81506,-5.415 0.79854,-1.6176 1.32939,-2.64598 1.91205,-4.31049 0.14031,-0.40086 0.22485,-0.81911 0.33727,-1.22866 0.0337,-0.0691 -0.94315,-0.54572 -0.97686,-0.47665 z" />
    <path
       style="opacity:0.65;fill:#000000"
       id="path25"
       d="m 348.72102,176.35393 c -2.68122,1.57348 -4.74131,4.01743 -6.44051,6.58329 -0.62524,0.94414 -1.22316,1.91159 -1.72438,2.92702 -0.45432,0.92044 -0.75575,1.90874 -1.13363,2.86311 -0.13984,0.79708 -0.27968,1.59415 -0.41952,2.39123 -0.0354,0.12564 1.74144,0.62652 1.77686,0.50088 v 0 c 0.3501,-0.647 0.70021,-1.29399 1.05032,-1.94099 2.45845,-4.26531 4.83034,-8.58926 7.58579,-12.67365 0.046,-0.0491 -0.6489,-0.70003 -0.69493,-0.65089 z" />
    <path
       style="opacity:0.65;fill:#000000"
       id="path26"
       d="m 343.26307,176.90981 c -2.09572,1.91065 -3.97737,4.23746 -5.21225,6.8073 -0.45354,0.94382 -0.74156,1.95858 -1.11234,2.93787 -0.0581,0.14657 2.01461,0.96831 2.07272,0.82174 v 0 c 1.93853,-3.23356 3.83445,-6.52258 5.3021,-10.00143 0.04,-0.0743 -1.01024,-0.63974 -1.05023,-0.56548 z" />
    <path
       style="opacity:0.65;fill:#000000"
       id="path27"
       d="m 292.62699,195.32013 c -0.10109,-1.04944 -0.34672,-2.07746 -0.549,-3.11033 -0.13545,-0.69163 -0.12645,-0.37907 -0.10189,-0.88093 0.48992,0.14795 1.07144,-0.11604 1.55074,-0.21622 1.11073,-0.23218 0.25493,-0.0173 1.38188,-0.32431 0.58661,-0.13441 1.22903,-0.51404 1.85499,-0.36992 0.0279,0.006 -0.0853,0.0457 -0.0609,0.0608 0.1333,0.0825 0.29171,0.11487 0.43757,0.1723 1.29873,0.70419 2.2509,1.87469 3.27487,2.91375 0.96768,1.16884 1.84163,2.40675 2.56581,3.74007 0.07,0.0712 1.00242,1.75953 1.10345,1.78506 0.45766,0.11564 0.93813,0.10599 1.40719,0.15899 1.14353,0.14961 2.25974,0.17999 3.4152,0.14037 1.18676,-0.11386 2.26958,-0.64924 3.42388,-0.90484 0.1187,-0.0362 0.636,-0.048 1.22861,0.13229 1.07799,0.9626 1.95126,2.31143 2.65707,3.56802 0.75792,1.7745 1.44472,3.62784 1.75967,5.53936 0.005,0.82687 -0.0422,0.28603 0.15203,0.22701 0.30799,-0.0206 0.61597,-0.0411 0.92396,-0.0617 0.0346,0.022 0.0643,0.0771 0.10385,0.0661 0.0297,-0.008 -0.007,-0.0614 -0.0105,-0.092 -0.10849,-0.74909 -0.23706,-0.9075 -1.05147,-1.20324 -1.08263,-0.57898 -1.98374,-1.42033 -3.03102,-2.05398 -0.77927,-0.57187 -1.21664,0.43243 -1.34513,1.10348 -0.28879,0.45508 -0.34408,0.19989 -0.1029,0.15709 0.14717,-0.0261 0.29893,0.002 0.44839,0.003 -0.65513,-0.89342 -1.48265,-1.65552 -2.34391,-2.34809 -1.86606,-0.6628 -1.10139,1.43643 -1.01747,1.95143 0.10039,0.61601 0.10051,0.86044 0.14225,1.49374 0.016,0.25472 0.0303,0.50955 0.048,0.76417 0.0142,0.20456 0.032,0.40886 0.0474,0.61333 0.019,0.2509 0.0268,0.49313 0.0533,0.48334 1.32909,-0.48976 1.31627,-0.21102 0.87287,-0.92825 -0.7437,-0.99919 -1.61873,-1.90101 -2.86323,-2.1741 -0.97948,0.1192 -1.7053,0.73757 -2.52091,1.23569 -0.62437,0.47798 -1.15469,1.0556 -1.70823,1.60899 -0.50948,0.24336 -1.08048,0.35923 -1.59978,0.61634 0.11183,-0.1717 -0.61803,0.34136 -0.57517,0.14808 0.0224,-0.10124 0.26298,-0.0247 0.28439,-0.12611 0.0186,-0.0883 -0.15122,-0.0984 -0.22657,-0.14792 -0.55584,-0.36564 -0.28722,-0.15314 -0.81872,-0.69179 -0.9246,-1.0183 -1.3115,-2.30376 -1.61149,-3.61245 -0.14349,-1.00091 0.0221,-1.99388 -0.0864,-3.00135 -0.20109,-1.03403 -0.59591,-1.95429 -1.4565,-2.5904 -0.91206,-0.56234 -1.99684,-0.67753 -2.98177,-1.06275 -0.91033,-0.30882 -1.38411,-0.87539 -1.8127,-1.70171 -0.3047,-0.83467 -0.22506,-1.87443 -0.8705,-2.56488 -0.1451,-0.15522 -0.34266,-0.25133 -0.514,-0.37699 7e-4,-0.0413 -0.58363,-0.0511 -0.58433,-0.01 v 0 c -0.17723,0.1709 -0.40536,0.30137 -0.5317,0.51269 -0.63144,1.05623 0.0884,2.37797 0.50655,3.34792 0.6375,1.08708 1.44595,2.08865 2.65724,2.55325 0.90084,0.38231 1.82581,0.61329 2.79708,0.72789 0.52741,0.26838 0.53809,0.77973 0.70441,1.31192 0.0249,0.4396 0.0862,0.88828 0.0599,1.32903 -0.0373,0.62575 -0.16186,1.24624 -0.0338,1.87447 0.28801,1.72817 0.91274,3.3592 2.13542,4.65241 1.32913,1.08134 2.27098,1.77026 3.99195,0.86107 0.59935,-0.27315 1.22321,-0.56253 1.73224,-0.98303 0.60492,-0.4388 1.06836,-1.03781 1.66142,-1.49151 0.33441,-0.25457 0.65182,-0.5284 0.99168,-0.77524 0.0862,-0.0626 0.17295,-0.12445 0.26039,-0.18532 0.0441,-0.0307 0.18554,-0.0737 0.13415,-0.0893 -0.12699,-0.0386 -0.26539,0.006 -0.39808,0.009 -0.006,-0.0267 -0.0437,-0.0859 -0.017,-0.0802 0.25981,0.0553 1.20121,1.12304 1.40563,1.31396 0.16498,0.15407 0.33472,0.30296 0.50209,0.45444 0.66739,0.66204 0.45072,0.64118 1.91497,0.30811 0.1009,-0.0229 0.0895,-0.18792 0.11577,-0.28801 0.17119,-0.65313 0.12859,-1.34457 0.0847,-2.00879 -0.12115,-0.79522 -0.24905,-1.57983 -0.51958,-2.34137 -0.067,-0.18865 -0.0374,-0.50891 -0.23256,-0.55375 -0.45345,-0.1042 -0.9404,0.0415 -1.38385,0.18231 -0.0779,0.0247 0.0455,0.15692 0.0682,0.23538 0.63892,1.05827 1.61726,1.84351 2.61074,2.55602 0.26642,0.0782 0.52321,0.20477 0.79927,0.23459 0.56183,0.0607 1.0581,-0.86369 1.14187,-1.28741 0.003,-0.0562 0.023,-1.01589 -0.0743,-0.98971 -0.38265,0.10295 -0.65587,0.45458 -1.02045,0.60983 -0.13516,0.0575 -0.32129,-0.43483 -0.0549,0.12269 0.88901,1.13165 2.10358,1.96015 3.42307,2.51601 0.16582,0.0391 0.35881,0.21631 0.49746,0.11731 0.10724,-0.0766 -0.11294,-0.23941 -0.14897,-0.36615 -0.0392,-0.13802 3e-4,-0.30198 -0.0756,-0.42376 -0.0874,-0.14025 -0.067,0.32627 -0.0647,0.4915 10e-4,0.10352 0.0185,0.20624 0.0277,0.30935 0.57609,1.84154 2.28523,0.91488 2.24283,-0.59134 0.0269,-2.23405 -0.70483,-4.36585 -1.71404,-6.3422 -0.95508,-1.59057 -2.053,-3.24011 -3.71019,-4.16632 -0.90806,-0.30334 -1.85653,-0.42905 -2.8133,-0.2898 -1.08796,0.20257 -2.13179,0.64799 -3.24883,0.64823 -1.30031,0.11125 -2.70529,-0.17739 -3.89617,0.50269 0.32936,0.13276 0.66392,0.25326 0.98807,0.39828 0.0226,0.0101 0.042,0.0868 0.0408,0.062 -0.0327,-0.68632 -0.50762,-1.2905 -0.76696,-1.89693 -0.77966,-1.45232 -1.63374,-2.87409 -2.75431,-4.09384 -1.12546,-1.29167 -2.3172,-2.5693 -3.87947,-3.33164 -0.23705,-0.0836 -0.46471,-0.2013 -0.71116,-0.25073 -1.12409,-0.22543 -2.22142,-0.002 -3.31275,0.2679 -0.96982,0.27043 -2.59495,0.5826 -3.2721,1.3862 -0.16712,0.19833 -0.24945,0.45478 -0.37418,0.68217 -0.18504,1.53934 0.24154,3.10408 0.94089,4.47294 0.0251,0.0905 1.30443,-0.26398 1.27937,-0.35445 z" />
    <path
       style="opacity:0.65;fill:#000000"
       id="path28"
       d="m 326.94048,190.47359 c 0.96324,1.49307 2.02997,2.92019 2.99737,4.41312 0.55747,1.04368 1.23574,2.03644 1.69014,3.13207 0.0657,0.23815 -0.0245,-0.0202 0.071,-0.0376 1.14312,-0.20826 1.24945,0.27624 1.10006,-0.37311 0.054,0.52451 0.0152,-0.059 -1.3346,0.35971 -0.005,0.002 0.10171,0.35878 0.30221,0.52666 0.45388,0.38004 0.85405,0.27285 1.4187,0.28931 1.30106,-0.2168 2.58896,-0.49612 3.89785,-0.66984 0.14121,-0.0117 0.28199,-0.0393 0.42362,-0.0351 0.0383,0.001 -0.13243,0.0169 -0.10597,0.0446 0.0669,0.0701 0.1827,0.0689 0.26425,0.12122 0.35518,0.22804 0.65714,0.57533 0.94372,0.87861 0.27587,0.2967 0.54135,0.61083 0.84818,0.87746 0.03,0.026 0.0922,0.10557 0.0989,0.0664 0.0158,-0.0917 -0.0424,-0.18124 -0.0635,-0.27186 0.0482,-0.14439 0.0965,-0.28878 0.14477,-0.43317 0.36199,-0.41554 0.62943,-0.21522 0.80196,0.1498 -0.40194,1.01048 0.0532,0.92597 -0.45951,0.89471 -0.12766,-0.008 0.26605,0.0861 0.0709,-0.064 -0.0115,-0.45142 0.0101,-0.9049 -0.0345,-1.35425 -0.005,-0.0491 -0.14046,-0.01 -0.14271,0.0395 -0.0208,0.45611 0.0506,0.91835 -0.0189,1.36961 -0.0106,0.0686 -0.10717,-0.0964 -0.17435,-0.11398 -0.0233,-0.006 -0.0298,0.0379 -0.0447,0.0568 -0.039,0.15348 -0.11735,1.57388 -0.10536,1.57745 0.042,0.0125 0.0401,-0.0778 0.0601,-0.11674 0.45292,0.0167 0.90748,0.0922 1.35876,0.0502 0.0584,-0.005 -0.006,-0.1172 -0.01,-0.17573 -0.004,-0.0652 0.0399,-0.19707 -0.0253,-0.19425 -0.0222,9.6e-4 -0.0143,0.0422 -0.0215,0.0633 -0.47758,-0.15138 -0.95517,-0.30277 -1.43275,-0.45415 -0.81242,-0.15997 -1.73144,-0.14713 -2.56875,-0.15762 -1.58973,-0.0827 -2.06323,0.14295 -2.41614,1.68205 -0.0136,0.12126 -0.0209,0.24339 -0.0407,0.36378 -0.008,0.0463 0.005,0.12535 -0.0413,0.13461 -0.0405,0.008 -0.052,-0.10065 -0.0171,-0.12284 0.18643,-0.11862 0.74029,-0.17904 0.57646,-0.32732 -0.13667,-0.1237 -0.29622,-0.21948 -0.44433,-0.32923 -0.67584,-0.31693 -1.68831,-1.18643 -2.43898,-1.26722 -0.28532,-0.0307 -0.57395,0.001 -0.86092,0.002 -0.85345,0.62164 -0.71921,1.60484 -0.99436,2.49785 0.17518,-0.29547 0.13862,-0.0367 0.69785,-0.24002 0.0484,-0.0176 -0.086,-0.057 -0.13108,-0.0818 -0.45889,-0.25288 -0.31721,-0.18006 -0.81198,-0.35432 -0.41789,-0.10378 -1.64615,-0.41151 -2.00171,-0.0891 -0.14786,0.13409 -0.25757,0.305 -0.38635,0.4575 -0.16764,0.25342 -0.2202,0.52594 -0.46076,0.72101 0.36903,-0.34737 -0.73726,0.30884 -0.58001,0.29107 0.42308,-0.0478 0.83699,-0.15675 1.25548,-0.23513 -0.81711,-1.77566 -2.09974,-3.32765 -3.43264,-4.74519 -0.71449,-0.705 -1.37958,-1.44997 -1.97419,-2.25853 -0.41536,-0.63847 -1.13642,-0.88872 -1.74147,-1.28825 -0.31548,-0.20832 -0.6019,-0.45782 -0.90966,-0.67739 -0.89972,-0.83026 -1.71969,-1.90168 -2.93172,-2.26353 -0.0896,-0.0796 -1.21603,1.18805 -1.12639,1.2677 v 0 c 0.0142,0.70905 2.07787,2.01844 2.59578,2.49105 0.80589,0.58144 1.68096,0.97235 2.59015,1.34652 0.59115,0.85255 1.06529,1.78937 1.79,2.55097 1.11038,1.4028 2.19475,2.82822 3.41666,4.13841 1.55253,0.56943 1.19459,0.86237 2.12674,0.28868 0.32866,-0.30848 0.49553,-0.67887 0.64772,-1.09357 -0.33638,0.30419 -0.17404,0.28715 -0.57162,0.30824 -0.0548,0.0485 0.89275,0.12817 0.93829,0.17415 0.23196,0.0584 0.47292,0.0785 0.70301,0.14385 0.10291,0.0292 0.18844,0.1144 0.29465,0.12724 0.7589,0.0918 1.04629,0.0619 1.42294,-0.54533 0.0696,-0.1763 0.50701,-1.71111 0.3366,-1.73911 -0.0835,-0.0137 -0.15356,0.0712 -0.23034,0.10677 -0.16552,-0.0192 -0.33288,-0.0889 -0.49657,-0.0577 -0.0775,0.0148 0.14271,0.0687 0.20822,0.11272 0.11751,0.0789 0.22229,0.17574 0.33947,0.25518 0.51657,0.35023 1.05338,0.68696 1.63247,0.92341 0.1686,0.0814 0.33731,0.16267 0.50582,0.24432 0.20275,0.0982 0.3829,0.28466 0.60795,0.29535 0.96108,0.0457 1.34114,-0.46436 1.43734,-1.28556 0.0141,-0.0991 0.0294,-0.19809 0.0423,-0.29738 0.006,-0.0479 -0.0401,-0.10633 -0.0106,-0.14457 0.0145,-0.0188 0.09,-0.0164 0.0673,-0.0232 -0.0472,-0.0142 -0.19493,-0.0157 -0.14789,-9.9e-4 0.14407,0.0452 0.29547,0.0624 0.44321,0.0936 1.41032,0.22529 3.01487,0.36976 4.25291,-0.45896 -0.36319,-0.26107 -0.69962,-0.5641 -1.08956,-0.78321 -0.0444,-0.025 -0.031,0.0971 -0.0437,0.14646 -0.019,0.0742 -0.10689,0.53455 -0.0393,0.56944 0.4378,0.22606 0.93041,0.32466 1.39562,0.48699 0.41434,-0.7224 0.43059,-1.57592 0.29089,-2.38217 -0.055,-0.16184 -0.0765,-0.33926 -0.16496,-0.48553 -0.59518,-0.98425 -0.53123,-0.0761 -0.69344,0.84458 -0.005,0.027 0.0534,0.0129 0.0807,0.016 0.0403,0.005 0.11038,0.0457 0.12136,0.007 0.12639,-0.44901 0.17574,-0.91623 0.2636,-1.37434 -0.2258,-0.12285 -1.00554,-0.22119 -1.10547,-0.10425 -0.23506,0.27508 -0.3983,0.60419 -0.59745,0.90628 0.29212,0.6736 0.9616,0.92194 1.6331,0.48319 0.0915,-0.17804 0.23228,-0.33846 0.27462,-0.53413 0.14235,-0.65771 -0.60262,-1.30387 -0.93367,-1.74269 -1.12691,-1.17332 -1.73614,-1.74279 -3.50657,-1.66868 -1.30336,0.0686 -2.5687,0.35034 -3.81179,0.745 0.22813,0.10821 0.20688,0.34791 0.30496,0.56991 0.0174,0.0394 0.0116,-0.12103 -0.0312,-0.12533 -1.47799,-0.14838 -1.43811,-0.48897 -1.43378,0.10526 0.002,0.0605 0.008,0.42582 0.0591,0.44319 1.17021,0.39865 1.19902,0.57197 1.36754,-0.15708 0.10322,-1.43141 -0.8481,-2.67372 -1.54869,-3.84047 -0.9321,-1.5945 -1.88147,-3.21557 -3.32991,-4.40355 -0.0514,-0.0808 -1.1942,0.6465 -1.14278,0.7273 z" />
    <path
       style="opacity:0.65;fill:#000000"
       id="path29"
       d="m 290.88007,193.94801 c -1.74736,-0.5184 -3.58087,-0.67334 -5.38423,-0.89459 -1.16312,-0.10036 -2.25441,-0.36145 -3.26043,-0.94774 -1.16164,-0.78777 -2.39218,-1.48284 -3.65147,-2.10153 -1.30782,-0.57882 -2.60689,-1.17637 -3.92167,-1.74046 -1.36829,-0.57849 -2.74885,-1.09795 -4.18493,-1.48195 -1.13058,-0.23775 -2.28654,-0.28653 -3.42923,-0.44758 -1.34081,-0.26119 -2.67176,-0.57552 -4.01635,-0.81514 -1.43153,-0.2652 -2.83266,-0.5453 -4.29327,-0.59718 -1.66589,-0.014 -3.33148,0.0314 -4.9987,-9e-4 -1.6585,-0.12368 -3.2451,0.11137 -4.78239,0.73134 -0.84596,0.51264 -1.72653,1.05726 -2.74213,1.06363 -1.40493,-0.17621 -2.8414,-0.0259 -4.25763,-0.0327 -1.95065,0.0869 -3.89054,0.38877 -5.81611,0.70446 -1.40787,0.17186 -2.82125,0.43412 -4.24191,0.4633 -1.45849,-0.14758 -2.87548,0.23351 -4.31458,0.35534 -1.46558,0.005 -2.87545,0.0492 -4.33103,0.25804 -1.31463,0.0792 -2.65732,0.0235 -3.65652,0.0427 -0.38129,0.10481 -0.82026,-0.0721 -1.19685,0.0653 -0.15205,0.0555 0.0762,0.11477 0.004,0.11151 -0.40634,-0.0184 -0.81091,-0.0649 -1.21636,-0.0974 -1.66503,-0.19328 -3.35242,0.007 -5.02016,0.10761 -1.47975,0.10426 -2.7324,0.06 -4.18019,-0.0456 -0.69348,-0.075 -1.28321,-0.41507 -1.97664,-0.51783 -0.30931,-0.0125 -2.10649,-0.0578 -2.32893,0.27449 -0.0752,0.11235 -0.0847,0.25678 -0.12708,0.38517 -0.59428,0.43077 -0.30467,0.17748 -0.85277,0.77781 -0.0688,0.0409 0.50944,1.01435 0.57827,0.97346 v 0 c 0.68007,0.16324 0.36599,0.067 0.94614,0.27561 0.16178,0.11167 0.3056,0.25539 0.48533,0.335 0.15319,0.0679 1.67157,0.0502 0.088,0.028 -0.02,-2.8e-4 0.0386,-0.0105 0.0579,-0.0157 0.56038,0.0392 0.98144,0.46791 1.51425,0.61497 2.21328,0.9469 4.66728,0.85883 7.02127,0.61768 1.58658,-0.16156 3.16025,-0.37574 4.72154,-0.69705 -1.2684,-0.14223 -1.22117,-0.2672 -0.87551,-0.0551 0.41449,0.25429 0.91815,0.19728 1.38301,0.28868 1.94986,0.15228 3.90208,0.11551 5.83185,-0.21457 1.41898,-0.14119 2.84183,-0.228 4.26076,-0.36392 1.39934,-0.19097 2.80507,-0.22817 4.21418,-0.2943 1.49121,-0.17178 2.98603,-0.30858 4.48261,-0.42524 1.81031,-0.23283 3.59422,-0.62219 5.42182,-0.72842 1.52646,-0.0573 3.0623,-0.0852 4.5635,-0.40211 1.09847,-0.29779 2.02899,-0.85338 3.02966,-1.37384 1.34573,-0.3797 2.72907,-0.27785 4.11575,-0.33361 1.2345,-0.085 2.49358,-0.22205 3.41346,-0.23456 1.36616,0.0718 2.72796,0.14931 4.08476,0.30617 1.35821,0.2399 2.71394,0.49276 4.08032,0.68383 0.2363,0.0465 0.46969,0.11174 0.70891,0.13962 0.84994,0.0991 1.71999,-0.12246 2.52905,0.24868 1.33041,0.37999 2.66962,0.73932 3.96345,1.23371 1.28969,0.62172 2.60927,1.17406 3.90407,1.78711 1.26643,0.50983 2.50179,1.11467 3.73713,1.68954 0.45491,0.2554 0.87305,0.57405 1.35611,0.77825 0.77857,0.32913 1.61247,0.52997 2.44067,0.68084 1.83485,0.17768 3.67501,0.24416 5.51711,0.30141 0.10354,0.0426 0.70547,-1.42159 0.60194,-1.46416 z" />
    <circle
       id="path30"
       style="fill:#000000;stroke:#000000"
       cx="204.29211"
       cy="190.54535"
       r="0.048059534" />
    <path
       style="opacity:0.65;fill:#000000"
       id="path31"
       d="m 192.16915,169.97102 c 0.91709,-0.30623 1.81563,-0.66801 2.72906,-0.98445 0.14946,-0.0518 0.37017,-0.003 0.45438,-0.13681 0.0684,-0.10874 -0.25633,0.0171 -0.3845,0.0257 -0.0379,-0.002 -0.10319,-0.0425 -0.11377,-0.006 -0.0272,0.0939 0.0234,0.19423 0.0309,0.29174 0.0115,0.15057 0.0164,0.30158 0.0261,0.45229 0.0428,0.6662 0.0965,1.33165 0.1448,1.99746 0.0316,0.80981 0.17607,1.61196 0.58462,2.31853 -0.007,-0.006 -0.007,-0.0619 -0.03,-0.0257 -0.0594,0.0931 -0.0725,0.33818 -0.0977,0.40908 -0.0498,0.14026 -0.15036,0.2575 -0.2124,0.3928 0.14332,-0.10262 -0.36407,0.57742 -0.21518,0.48306 0.0436,-0.0276 0.0526,-0.13084 0.1021,-0.11633 1.48574,0.43537 1.25002,1.04931 1.44132,0.45371 0.22865,-0.23418 -1.52584,-1.02197 -1.55274,-0.22824 0.0957,-0.34022 0.9676,-0.30368 0.82791,-0.61858 -0.4032,-0.90886 -1.9566,1.67206 -1.97614,1.70296 -0.73564,1.53259 -1.22555,3.19932 -1.52702,4.87162 -0.21854,0.96629 -0.0406,1.94965 -0.10278,2.92285 -0.0287,0.4492 -0.11557,1.12604 -0.16703,1.56107 -0.15104,1.70239 -0.14364,3.40622 -0.12616,5.1124 -0.0771,1.6382 -0.0504,3.28876 0.0819,4.92401 0.17386,1.57539 -0.17728,1.10051 2.17137,0.94793 -0.0768,0.019 0.0541,-0.24132 -0.0248,-0.23599 -2.26016,0.15244 -2.80252,-0.16337 -1.28727,1.32695 1.10537,0.6566 2.38595,0.79077 3.61923,1.04389 1.10206,0.2262 1.11284,0.24254 2.19788,0.51929 1.47523,0.33814 2.93925,0.75075 4.37138,1.24073 1.21278,0.57373 2.53599,0.91561 3.86423,1.08778 1.26052,0.091 1.00769,0.007 1.40104,-2.09447 0.0111,-0.059 -0.65209,-0.19869 -0.7261,-0.21591 -0.87764,-0.0988 -0.32104,-0.0916 -1.04159,1.97032 -0.004,0.0105 0.39417,0.16029 0.39879,0.15316 0.39303,-0.60542 0.70883,-1.25762 1.06324,-1.88643 -0.008,0.0948 -0.17483,-0.15402 -0.2059,-0.0864 -0.28758,0.62604 -0.59942,1.24921 -0.77929,1.91424 -0.0222,0.082 0.16809,0.0368 0.25292,0.0319 0.34051,-0.0198 0.68252,-0.0429 1.01779,-0.10562 0.13008,-0.0243 0.24413,-0.10227 0.36619,-0.15341 0.55961,-0.33506 1.0677,-0.69227 1.73564,-0.70873 0.76244,-0.0376 1.46904,0.0215 2.09907,0.50182 0.18606,0.50784 -0.0213,1.02826 -0.23059,1.49347 -0.17425,0.30742 -0.52623,0.50552 -0.82061,0.71917 -1.28439,0.84763 0.12053,2.10049 0.81404,2.78884 0.53687,0.47576 1.03492,0.99159 1.50851,1.52957 0.0649,0.0737 0.10623,0.17506 0.19132,0.22416 0.0309,0.0178 -1.3e-4,-0.0731 0.0131,-0.10616 0.11929,-0.29731 0.2554,-0.58759 0.3831,-0.88139 0.0994,-0.0444 0.36275,-0.0455 0.29836,-0.13335 -0.13072,-0.17837 -0.39733,-0.19487 -0.60137,-0.28011 -1.15794,-0.4837 -2.38393,-0.78447 -3.59913,-1.0871 -1.01383,-0.19356 -0.88905,-0.13339 -1.25534,1.46251 -0.004,0.0157 0.28241,0.0412 0.6146,0.1597 -0.15211,-0.0272 -0.25525,-0.52661 -0.33878,-0.58428 -0.0698,-0.0482 -0.19783,0.0304 -0.25198,-0.0348 -0.0371,-0.0448 0.0748,-0.0891 0.11216,-0.13367 -0.15989,-0.0212 -0.32055,-0.0371 -0.47966,-0.0635 -0.41685,-0.0692 -0.55709,-0.0961 -0.9364,-0.24881 -0.16761,-0.0675 -0.31427,-0.24563 -0.49364,-0.22392 -0.031,0.004 0.0151,0.0605 0.0226,0.0908 -1.87771,1.28884 -1.14869,0.5806 -1.15988,1.83468 -0.004,0.39385 0.0499,0.25025 -0.0816,0.48188 -0.10424,-0.12342 -0.18384,-0.17854 -0.11862,-0.39672 0.0233,-0.0779 0.22686,-0.11463 0.17112,-0.17382 -0.15445,-0.16401 -1.41046,-0.67022 -1.70967,-0.81914 -0.72107,-0.33702 -0.53536,0.12926 -1.15917,1.23687 -0.0236,0.042 0.11135,0.0293 0.0886,-0.0138 -0.0883,-0.16749 -0.19177,-0.32653 -0.28766,-0.4898 0.19287,-0.70829 0.34815,-0.78528 -0.21967,-0.86126 -1.02861,-0.13765 0.39556,-0.0651 -0.68242,-0.0945 -0.22764,-0.035 -0.35991,-0.0416 -0.58602,-0.15876 -0.1467,-0.076 -0.26897,-0.19283 -0.41166,-0.27615 -0.64872,-0.37878 -1.32979,-0.71457 -1.98779,-1.07805 -1.89614,-1.56217 -3.7233,-3.22285 -5.87285,-4.43405 -0.94171,-0.42903 -1.53085,-0.54748 -2.58452,-0.11998 -0.25503,0.10347 -0.60888,0.63828 -0.92166,0.81862 0.0709,-0.0775 -0.8939,0.0275 -0.81754,-0.0706 0.0863,-0.11092 0.31448,8.2e-4 0.40872,-0.10343 0.0573,-0.0634 -0.16401,-0.0487 -0.24402,-0.0788 -0.099,-0.0372 -0.19497,-0.0818 -0.29245,-0.12271 -0.46623,-0.41427 -0.77164,-0.98482 -1.1568,-1.47277 -0.73179,-1.14817 -1.7021,-2.12261 -2.34472,-3.32571 -0.75272,-0.98123 -1.05736,-2.13322 -1.26886,-3.32808 -0.24117,-1.48369 -0.29368,-2.984 -0.3616,-4.4825 0.0369,-1.08555 0.0978,-2.16988 0.13943,-3.25567 -0.0422,-0.80181 -0.0679,-1.5567 0.15691,-2.32775 0.17589,-0.64122 0.45965,-1.25236 0.72466,-1.86329 0.14012,-0.47647 0.30445,-0.91686 0.47236,-1.38125 0.21234,-0.78402 0.2221,-1.59552 0.0885,-2.39221 0.009,-0.12759 -0.13914,-1.03542 0.002,-1.0272 0.3896,-0.66431 0.49859,-1.43195 0.5249,-2.18998 0.0307,-0.83463 -0.20157,-1.68414 -0.0715,-2.51196 0.11391,-0.60269 0.27629,-1.159 0.57817,-1.694 0.007,-0.008 0.0137,-0.0167 0.0206,-0.0251 0.0225,-0.0607 0.045,-0.12141 0.0674,-0.18212 0.12766,-0.10018 -1.28919,-1.90553 -1.41684,-1.80535 v 0 c -0.92483,0.308 -0.527,0.0712 -1.21137,0.67941 -0.56086,0.82458 -0.89232,1.79054 -1.02438,2.77817 -0.0672,0.90447 0.0434,1.78305 0.0946,2.68492 -0.0139,0.60007 -0.13269,1.13954 -0.38673,1.69498 -0.0962,0.59629 -0.10457,1.18464 -0.0236,1.78445 -0.0199,0.49761 0.009,0.99399 -0.017,1.49056 -0.0664,0.37085 -0.22742,0.69565 -0.40726,1.02183 -0.37082,0.71721 -0.62344,1.49747 -0.87305,2.26326 -0.27023,0.97594 -0.36076,1.94097 -0.30309,2.95346 0.002,1.09107 -0.13372,2.17313 -0.20429,3.26163 -0.11738,1.68074 0.0291,3.3636 0.47299,4.9934 0.29068,1.46709 0.68613,2.91542 1.52401,4.17754 0.82045,1.26246 1.69915,2.47736 2.72984,3.57754 0.6363,0.67911 1.23508,1.39962 1.95122,1.99694 1.54044,0.80582 2.775,0.80091 4.1982,-0.18124 0.10714,-0.11233 0.21587,-0.22317 0.32142,-0.337 0.0724,-0.0781 0.1438,-0.15736 0.21246,-0.23885 0.008,-0.01 0.0293,-0.0334 0.0168,-0.0333 -0.27933,0.002 -0.55793,0.0499 -0.83707,0.0394 -0.0274,-0.001 -0.0621,-0.0875 -0.0393,-0.0723 0.11574,0.0773 0.21633,0.17511 0.32449,0.26266 1.90213,1.66581 3.88806,3.27779 6.12679,4.47172 1.23485,0.69188 2.52184,1.27444 3.9075,1.59211 0.46907,0.0364 2.33094,0.15602 2.71634,-0.33223 0.20934,-0.2652 0.31733,-0.59658 0.47599,-0.89487 -0.10477,-0.22305 -0.17227,-0.46779 -0.31433,-0.66916 -0.0692,-0.0981 -0.18946,-0.15162 -0.2991,-0.20041 -0.79342,-0.35303 -0.97869,0.25424 -1.56378,1.20438 -0.14678,0.23836 0.59305,0.5288 0.49966,0.67497 1.13612,0.84618 2.99351,1.97058 4.36697,0.9699 0.19901,-0.14499 0.29702,-0.39279 0.44553,-0.58918 0.27726,-0.91576 0.30729,-1.61327 -0.21313,-2.46789 -0.0947,-0.15551 -0.14708,-0.46752 -0.3267,-0.43773 -0.57864,0.096 -1.05948,0.50364 -1.58922,0.75546 0.5566,1.17776 1.73684,1.48227 2.94268,1.67106 0.42619,-0.041 0.86001,-0.0327 1.27857,-0.12286 1.16173,-0.25015 1.55533,-1.54745 0.80144,-2.40264 -0.0856,-0.0516 -0.97205,-0.53255 -1.09657,-0.40839 -1.33876,1.33478 -1.4081,1.35128 -0.39012,1.9423 1.74993,0.73987 3.64049,1.259 5.54308,1.32839 0.23972,-0.30814 0.54582,-0.5746 0.71917,-0.92441 0.35214,-0.71062 -1.4415,-2.51454 -1.9003,-2.85351 -0.11307,-0.0769 -1.10206,-0.77477 -1.21918,-0.76909 -0.11573,0.006 -0.0744,0.22004 -0.12431,0.32462 -0.0767,0.16075 -0.21761,0.29552 -0.2547,0.46973 -0.0316,0.14849 0.50792,-0.42368 0.3991,-0.21944 0.50659,-0.33124 0.97869,-0.70625 1.31652,-1.21622 0.64174,-1.10245 0.7621,-2.3178 0.0413,-3.43129 -1.38329,-1.33043 -2.49198,-1.3733 -4.35249,-1.07109 -0.6442,0.20912 -1.24761,0.56236 -1.92131,0.65401 -0.0644,0.004 -0.25755,0.013 -0.19308,0.0118 0.16353,-0.003 0.32803,0.003 0.49036,-0.0172 0.0949,-0.0117 -0.22728,-0.0827 -0.28674,-0.008 -1.13552,1.42984 -1.81255,1.5024 -1.06494,1.99142 0.44604,-0.57732 0.89208,-1.15465 1.33812,-1.73198 0.0226,0.0104 0.043,0.0307 0.0679,0.0311 0.0567,9.3e-4 -0.11533,-0.12793 -0.14905,-0.0823 -0.43353,0.58684 -0.75107,1.25598 -1.20437,1.8277 0.0556,0.0107 0.44156,0.13667 0.45793,0.11312 1.29325,-1.85993 1.80612,-1.80172 0.73158,-2.04049 -1.18392,-0.27564 -2.411,-0.44184 -3.5402,-0.89784 -1.45553,-0.59668 -2.90089,-1.22912 -4.40782,-1.68744 -1.89215,-0.46869 -3.81767,-0.7894 -5.76385,-0.92826 0.007,0.11441 0.0104,0.22917 0.022,0.34323 0.0107,0.10512 0.15014,0.30558 0.0448,0.31381 -1.93111,0.15093 -2.0543,-0.85352 -2.11932,0.12338 2.42427,0.24094 2.00779,0.70217 2.20262,-0.97258 0.11893,-1.63923 0.0954,-3.29443 -0.0233,-4.93253 -0.009,-1.66645 0.0447,-3.33499 0.10615,-5.00016 -0.0246,-1.40885 -0.10701,-2.83 0.0435,-4.23179 0.33005,-1.50552 0.69715,-3.01381 1.24314,-4.45637 0.0734,-0.19037 0.14775,-0.3804 0.22031,-0.57111 0.0119,-0.0313 0.15665,-0.40309 0.14127,-0.40271 -0.21087,0.005 -0.77953,0.2333 -0.62665,0.088 1.55964,-1.48254 0.90248,-0.0957 1.15001,-0.63739 0.30864,-0.76148 -1.45775,-1.39484 -1.56861,-0.51824 -0.20795,0.64069 -0.17894,0.36839 1.2743,1.01687 0.086,0.0384 0.4145,-0.52638 0.43649,-0.56837 0.0528,-0.10077 0.0969,-0.20586 0.14532,-0.30878 0.21681,-0.59758 0.31385,-1.20707 0.12503,-1.82835 -0.12067,-0.62967 -0.27245,-1.25645 -0.21324,-1.90522 -0.0567,-0.91659 -0.11194,-2.62612 -0.59949,-3.40179 -0.14393,-0.22898 -0.3536,-0.40933 -0.5304,-0.61399 -0.35433,-0.0568 -0.70441,-0.15626 -1.06298,-0.17045 -0.20574,-0.008 -0.4078,0.0598 -0.60883,0.10425 -1.04994,0.23239 -2.06817,0.62896 -2.92286,1.29265 -0.0883,0.0752 0.97524,1.32449 1.06358,1.24928 z" />
    <path
       style="opacity:0.65;fill:#000000"
       id="path32"
       d="m 195.62765,175.71885 c 1.42869,-1.07369 2.9535,-1.99605 4.64227,-2.59085 0.68753,-0.19621 1.38732,-0.33217 2.07147,-0.54022 0.33445,-0.10171 0.57925,-0.16444 0.51966,-0.27333 -0.0745,-0.13618 -0.24999,-0.18414 -0.37498,-0.27622 0.048,-0.0985 0.0959,-0.19705 0.14391,-0.29557 2.8e-4,0.009 0.12353,0.005 0.12325,-0.004 v 0 c 0.0451,-0.17555 0.0901,-0.35111 0.13519,-0.52667 -0.28566,-0.16884 -0.55284,-0.39294 -0.90194,-0.41072 -0.92673,-0.0472 -1.80998,0.48283 -2.6978,0.64242 -1.95865,0.65055 -3.79563,1.67081 -4.89955,3.48683 -0.0557,0.0876 1.18278,0.87582 1.23852,0.78824 z" />
    <path
       style="opacity:0.65;fill:#000000"
       id="path33"
       d="m 203.67518,186.99785 c -2.45505,-0.43817 -5.01717,-0.40582 -7.39395,0.37444 -0.58454,0.1556 -2.25079,1.32646 -1.20367,1.98639 0.14113,0.0889 0.31918,0.0972 0.47877,0.14579 0.006,0.0255 0.36683,-0.0599 0.36078,-0.0855 v 0 c 0.17817,-0.11775 0.52043,-0.39074 0.60973,-0.19675 0.16737,0.36358 -0.31288,0.37603 0.17109,0.3058 0.18601,-0.027 0.37276,-0.0486 0.55913,-0.0729 1.99333,-0.22985 3.98443,-0.41942 5.96904,-0.70827 0.12368,0.0318 0.57275,-1.71728 0.44908,-1.74904 z" />
    <path
       style="opacity:0.65;fill:#000000"
       id="path34"
       d="m 174.76331,158.27157 c -0.86389,1.59272 -1.65878,3.24023 -2.19908,4.97277 -0.33638,1.08117 -0.55055,2.16962 -0.14772,3.25164 0.25218,0.54109 0.13067,1.12034 0.0813,1.69442 -0.19136,1.82258 -0.26391,3.65429 -0.21407,5.48588 0.12001,0.69727 -0.053,1.43874 0.24312,2.10768 0.16564,0.37425 0.41313,0.70662 0.61969,1.05993 0.0138,0.0718 1.02914,-0.12274 1.01538,-0.19454 v 0 c 0.13427,-0.98911 0.18752,-1.96607 0.22967,-2.96231 0.0726,-1.82415 0.0639,-3.65074 -0.0126,-5.47469 -0.038,-0.73556 -0.0334,-1.54103 -0.39617,-2.20474 -0.20262,-0.51621 0.37635,-1.76227 0.50004,-2.25012 0.56628,-1.70129 1.41503,-3.30479 1.79723,-5.06569 0.0297,-0.10725 -1.48709,-0.52748 -1.5168,-0.42023 z" />
    <circle
       id="path35"
       style="fill:#000000;stroke:#000000"
       cx="133.64903"
       cy="195.12759"
       r="0.048059534" />
    <path
       style="opacity:0.65;fill:#000000"
       id="path36"
       d="m 169.74006,177.49174 c -3.48939,0.2874 -6.66962,1.9377 -9.68317,3.60189 -2.03191,1.30261 -3.80227,2.94767 -5.72508,4.39838 -1.42603,0.99894 -2.83143,2.03821 -4.21049,3.10551 -0.21565,0.14784 -0.42166,0.31083 -0.64696,0.44352 -0.32292,0.19019 -1.172,0.56275 -1.49088,0.72126 -0.86664,0.43079 -1.71677,0.9007 -2.56572,1.36493 -1.98165,0.98942 -3.90761,2.12455 -5.7192,3.40111 -0.22781,0.12988 -0.82654,0.50038 -1.11303,0.55902 -0.16939,0.0347 -0.34566,-0.0117 -0.51856,-0.0126 -1.10121,-0.005 -2.19455,-0.0518 -3.29584,-0.0968 -3.31479,0.1345 -6.65335,0.51662 -9.84633,1.45702 -1.60678,0.47324 -2.40872,0.88087 -3.88738,1.53774 -1.02915,0.57271 -1.35596,0.68631 -2.21851,1.39317 -0.17318,0.14193 -0.60172,0.67338 -0.91197,0.76669 -0.12492,0.0376 -0.26167,-0.0176 -0.39131,-0.003 -0.23849,0.0265 -0.47257,0.0837 -0.70886,0.12552 -1.75645,0.29316 -3.50476,0.61573 -5.25555,0.94267 -2.15148,0.27382 -4.31511,0.47313 -6.4551,0.82767 -2.12201,0.41928 -4.24089,0.86224 -6.393999,1.08114 -2.54347,0.16075 -5.096875,0.20937 -7.628383,0.51128 -1.529215,0.15829 -2.963299,0.70244 -4.430781,1.10884 -0.536419,0.14856 -1.084803,0.24992 -1.626847,0.37642 -0.25275,0.06 -0.501849,0.13831 -0.758248,0.18009 -0.77144,0.12568 -1.557437,0.14097 -2.331668,0.24813 -1.554054,0.21508 -3.065823,0.60835 -4.59211,0.96081 -1.95864,0.52376 -3.868193,1.21612 -5.678199,2.12862 -1.28184,0.62504 -2.682376,0.98282 -4.02791,1.4546 -0.304573,0.0997 -0.604615,0.21441 -0.913719,0.29898 -0.303069,0.0829 -0.616421,0.12387 -0.920537,0.20286 -0.986254,0.25618 -0.913781,0.29408 -1.87833,0.60484 -2.873352,0.92574 0.978606,-0.37681 -1.990104,0.63845 -1.125281,0.44246 -2.24741,0.94593 -3.306785,1.5298 -0.470651,0.25151 -1.036067,0.42666 -1.316209,0.93057 -0.150622,0.27093 -0.240845,0.57127 -0.361267,0.85691 0.0041,0.21737 -0.02521,0.43798 0.01235,0.65213 0.340077,1.9387 2.922224,1.68931 4.285942,1.69424 2.115772,0.007 4.226659,-0.0612 6.32558,-0.33377 0.277314,-0.0372 0.555444,-0.0687 0.831944,-0.11156 0.600908,-0.0931 0.795885,-0.16498 1.387632,-0.22056 0.636992,-0.0598 1.280755,-0.0154 1.919395,-0.0195 -0.06873,0.003 -0.274999,0.01 -0.206189,0.01 1.86655,-3.7e-4 3.627593,-0.1217 5.448841,-0.53454 0.354833,-0.0703 0.713748,-0.12254 1.064499,-0.21102 0.726704,-0.1833 1.43399,-0.43692 2.155962,-0.63806 1.147117,-0.31957 2.28859,-0.61889 3.419993,-0.99136 1.990559,-0.6741 4.058929,-1.0188 6.120835,-1.38133 2.581778,-0.34108 5.157254,-0.72128 7.747752,-1.00869 2.98751,-0.24545 5.94528,-0.72437 8.93827,-0.90148 2.2001,-0.0976 4.37798,-0.38016 6.50006,-0.98139 0.83111,-0.23547 1.64448,-0.52958 2.46852,-0.78871 0.38297,-0.13504 0.7681,-0.26413 1.14893,-0.40513 0.69609,-0.25772 1.26949,-0.52571 1.98596,-0.73899 1.02265,-0.30444 2.09536,-0.46457 3.13275,-0.7133 1.49729,-0.33876 3.00751,-0.48324 4.5387,-0.47349 2.55563,-0.0248 5.05653,-0.59699 7.49394,-1.32024 1.01322,-0.18792 1.80296,-0.89009 2.78585,-1.13622 1.20967,0.0159 2.33023,-0.43251 3.43538,-0.8848 1.61038,-0.73445 3.0305,-1.82797 4.4853,-2.82629 0.21974,-0.0669 0.54491,-0.462 0.81053,-0.37574 0.0245,0.008 -0.006,0.0718 0.0198,0.0747 0.3441,0.0389 0.68875,-0.0734 1.03212,-0.1182 1.38793,-0.15743 2.72891,-0.52448 4.05168,-0.96193 0.99452,-0.33499 1.73808,-1.05657 2.5688,-1.65306 0.28252,-0.20286 0.87516,-0.56842 1.16703,-0.75166 1.014,-0.735 1.92787,-1.6134 3.08862,-2.11013 0.68843,-0.4049 1.46448,-0.58766 2.22967,-0.78831 0.0302,0.005 0.1212,0.0142 0.0906,0.0155 -0.24319,0.0105 -0.48703,0.0241 -0.73015,0.0121 -0.0559,-0.003 0.10498,-0.0593 0.16025,-0.0503 0.19858,0.0322 0.39232,0.09 0.59046,0.12482 1.34868,0.26851 2.73322,0.20023 4.10059,0.16284 1.38486,0.0266 2.59227,-0.57573 3.71312,-1.32838 1.37989,-1.07032 2.46207,-2.40422 3.28092,-3.93696 0.6248,-1.19562 1.13943,-2.44473 1.93845,-3.53938 0.65675,-0.44834 1.43509,-0.68832 2.14021,-1.06931 0.71966,-0.45471 1.65719,-0.69203 2.28723,-1.28973 0.14659,-0.13907 0.26285,-0.30697 0.39427,-0.46045 0.74823,-1.35986 -0.93294,-2.83399 -2.10355,-1.77727 -0.55829,0.40445 -0.4664,1.37797 0.31474,1.50836 0.21833,0.0365 0.44141,0.0339 0.66211,0.0509 0.37473,-0.0859 1.24775,-0.192 1.21464,-0.76812 -0.005,-0.0906 -0.0835,-0.16121 -0.12529,-0.24182 0.0234,0.0103 0.16911,-0.32107 0.14568,-0.33137 v 0 c -0.59263,-0.31438 -1.0432,-0.57986 -1.67381,-0.24897 0.6292,0.16419 0.12102,-0.0482 0.18624,0.14349 0.26465,0.77794 0.39398,0.45791 0.11268,1.07182 0.0674,0.21076 0.0655,0.11986 -0.42416,0.16529 -0.60455,0.0561 -0.97242,-0.99592 -0.74631,-1.45 0.006,-0.0276 0.0472,-0.0883 0.0194,-0.0827 -0.41458,0.0836 -1.3075,0.62671 -1.70165,0.83217 -0.18948,0.0988 -0.38116,0.19325 -0.57174,0.28987 -0.99467,0.51304 -2.01376,1.00336 -2.81749,1.80306 -1.09822,1.13885 -1.76875,2.54936 -2.45142,3.96185 -0.61694,1.0831 -1.40587,2.1081 -2.40608,2.86338 -0.8311,0.55769 -1.25493,0.66414 -2.27151,0.62389 -1.12336,0.0151 -0.99953,0.0194 -2.15662,0.15001 -0.0469,-0.001 -0.3273,-0.005 -0.38105,-0.0166 -0.13341,-0.0298 -0.43622,-0.17514 -0.55372,-0.18357 -0.91635,-0.0658 -0.91657,-0.0453 -1.55645,0.055 -1.02769,0.17549 -2.01707,0.51007 -2.95174,0.97303 -1.21046,0.65718 -2.295,1.48654 -3.42213,2.27322 -0.97802,0.67349 -1.87041,1.53806 -2.9781,1.98786 -1.25205,0.31762 -2.52537,0.55106 -3.77428,0.88323 -0.41058,0.12288 -0.81166,0.14141 -1.22746,0.25445 -0.55155,0.14995 -1.07076,0.40982 -1.59528,0.62903 -1.41278,0.80907 -2.73861,1.76393 -4.20733,2.47263 -0.98028,0.4608 -1.96207,0.79704 -3.02672,1.00176 -0.89637,0.33316 -1.79913,0.58778 -2.75671,0.69482 -2.35364,0.41282 -4.71179,0.81532 -7.08337,1.11272 -1.62426,0.30228 -3.27259,0.32661 -4.90493,0.57431 -0.82577,0.14835 -1.52396,0.25481 -2.34035,0.48833 -1.41935,0.40599 -2.76696,1.04987 -4.21397,1.37276 -2.72861,0.74842 -5.56796,1.0361 -8.36373,1.42788 -3.06984,0.28474 -6.155753,0.34446 -9.203557,0.84963 -2.571709,0.46365 -5.128692,0.99881 -7.710328,1.41013 -2.167129,0.41226 -4.338661,0.78242 -6.414582,1.56142 -0.654956,0.17764 -1.655645,0.44133 -2.28238,0.64625 -1.364715,0.44622 -2.692295,1.00161 -4.105421,1.294 -0.544492,0.13482 -1.07945,0.28334 -1.636223,0.3613 -0.16779,0.0235 -1.438605,0.11755 -1.613694,0.1587 -0.05304,0.0125 0.203412,0.0654 0.148955,0.0673 -0.484573,0.0169 -0.969629,-0.0145 -1.454444,-0.0217 -1.466673,0.005 -2.915759,0.26289 -4.374135,0.39886 -0.892221,0.0446 -1.772651,-0.0304 -2.664907,-0.0133 -1.166224,0.0223 -2.33215,0.14187 -3.497439,0.18837 -0.199542,0.11886 -0.499256,0.0134 -0.677657,0.16216 -0.07799,0.065 0.08631,0.18391 0.13417,0.27346 0.232106,0.43425 0.402188,0.57306 0.323961,1.04874 -0.09721,0.18896 -0.189469,0.38056 -0.291638,0.56689 -0.04409,0.0804 -0.22088,0.26155 -0.131364,0.24169 0.332695,-0.0738 0.643195,-0.31576 0.964968,-0.42282 1.056267,-0.37078 2.14609,-0.63851 3.206564,-0.99854 0.382342,-0.1343 1.487116,-0.52648 1.872108,-0.64512 1.274251,-0.39267 2.597022,-0.63617 3.816504,-1.19915 1.414144,-0.52216 2.785531,-1.13688 4.175424,-1.71881 1.703815,-0.68856 3.5417,-0.96024 5.325046,-1.36695 2.529968,-0.55078 5.052853,-1.12952 7.564415,-1.75334 1.901851,-0.46978 3.815247,-0.84119 5.759559,-1.0964 2.565359,-0.23193 5.149515,-0.23695 7.694615,-0.64007 2.13604,-0.37298 4.2729,-0.73146 6.40799,-1.10832 2.19826,-0.27504 4.39831,-0.60039 6.57547,-1.0047 1.7971,-0.39603 3.62817,-0.63346 5.40571,-1.12339 0.28704,-0.10226 0.58209,-0.18434 0.86112,-0.30679 2.23649,-0.98151 -0.15563,-0.008 1.34769,-0.74728 0.79271,-0.38993 1.70727,-0.54315 2.52153,-0.86696 4.18862,-1.15263 8.46074,-2.01853 12.74395,-2.73483 2.20226,-0.3463 4.08495,-0.55584 6.03756,-1.7384 1.87789,-1.06688 3.69202,-2.2405 5.5739,-3.30036 1.64603,-0.92335 3.35758,-1.76709 4.77611,-3.03345 1.40584,-1.03904 2.80785,-2.08101 4.1975,-3.14197 0.74607,-0.58121 1.44194,-1.23672 2.21061,-1.78751 1.09001,-0.78105 2.30244,-1.3685 3.46866,-2.02137 2.84559,-1.52849 5.78624,-2.86408 8.62155,-4.40917 0.13656,-0.0785 -0.97326,-2.00965 -1.10981,-1.93118 z" />
    <path
       style="opacity:0.65;fill:#000000"
       id="path37"
       d="m 315.48185,128.4552 c -1.10745,-1.31631 -2.50469,-2.30266 -3.98959,-3.14384 -0.80698,-0.50551 -1.69723,-0.67756 -2.62184,-0.80702 -1.40339,0.0132 -2.8739,-0.20326 -4.26553,0.0781 -0.29598,0.0598 -0.58075,0.16571 -0.87112,0.24856 -1.46295,0.5132 -2.71454,1.3388 -3.75057,2.48177 -0.82682,0.83281 -1.69423,1.62229 -2.47229,2.50172 -0.95255,1.13149 -1.69098,2.42213 -2.39988,3.71448 -0.74516,1.41697 -1.01612,2.65466 -0.99942,4.24041 0.0981,1.6208 0.28341,3.23998 0.29656,4.86427 -0.0978,1.88128 -10e-4,3.73909 0.42954,5.57338 0.36603,1.40951 0.92649,2.73164 1.8406,3.86635 1.2292,1.15233 2.60923,2.15438 4.03214,3.05388 1.88464,1.07186 3.80409,2.12345 5.91987,2.6643 0.46482,0.11882 0.94066,0.18938 1.41099,0.28406 1.41962,0.0247 3.34842,0.41237 4.61297,-0.45051 0.18211,-0.12426 0.31544,-0.30808 0.47316,-0.46212 0.0847,-0.0263 -0.28778,-1.2242 -0.37248,-1.19786 v 0 c -0.24287,-0.13009 -0.47337,-0.28651 -0.72859,-0.39027 -0.87893,-0.35734 -1.82718,-0.29076 -2.74744,-0.43243 -2.35086,-0.35319 -4.60947,-1.05508 -6.67494,-2.25778 -0.8492,-0.46959 -1.71019,-0.92525 -2.54731,-1.41615 -0.36633,-0.21481 -0.69778,-0.48603 -1.06577,-0.69798 -0.13469,-0.0776 -0.2841,-0.12622 -0.42616,-0.18933 -0.0722,-0.0309 -0.16154,-0.0368 -0.21656,-0.0928 -0.46471,-0.47326 -0.76886,-2.10401 -1.0246,-2.72355 -0.20807,-1.10817 -0.43098,-2.22918 -0.44961,-3.36136 -0.005,-0.29406 0.0289,-0.58766 0.0313,-0.88175 0.003,-0.3132 -0.0108,-0.62634 -0.0162,-0.93951 -0.0661,-1.64727 -0.14922,-3.28763 -0.48235,-4.90774 -0.12654,-1.20826 0.29946,-2.10346 0.85468,-3.1639 0.66267,-1.16364 1.24,-2.38816 2.0999,-3.42678 0.73683,-0.86663 1.62725,-1.59168 2.39577,-2.43101 0.85266,-0.80094 1.86717,-1.37325 2.98578,-1.72424 0.72417,-0.12842 1.43018,-0.18609 2.16456,-0.22559 0.44981,-0.0242 0.9032,-0.008 1.34968,-0.0679 0.0194,-0.003 0.009,-0.0382 0.0129,-0.0572 0.69506,-0.0681 1.16285,0.002 1.70375,0.49004 1.3516,0.90169 2.55517,2.00633 3.9475,2.84901 0.10336,0.11034 1.66387,-1.35128 1.56052,-1.46162 z" />
    <path
       style="opacity:0.65;fill:#000000"
       id="path38"
       d="m 315.40267,130.04674 c -1.48266,2.73514 -2.87232,5.58779 -3.62006,8.62616 -0.18257,0.74186 -0.262,1.50535 -0.39301,2.25802 0.0663,0.6703 0.13263,1.3406 0.19894,2.01091 -0.0113,0.0946 1.32682,0.25376 1.33808,0.15915 v 0 c 0.23944,-0.54997 0.47888,-1.09995 0.71832,-1.64992 1.3815,-3.55112 2.70498,-7.22882 3.04066,-11.04888 0.0251,-0.0907 -1.2578,-0.44615 -1.28293,-0.35544 z" />
    <path
       style="opacity:0.65;fill:#000000"
       id="path39"
       d="m 312.24496,130.6822 c -0.85858,-1.12425 -1.96398,-2.16015 -3.31482,-2.65722 -0.25313,-0.0931 -0.52326,-0.13121 -0.78489,-0.19682 -1.27277,-0.12213 -0.5537,-0.15724 -2.13569,0.32161 -0.0757,0.037 0.44789,1.10724 0.52357,1.07022 v 0 c 0.54178,-0.0227 0.23732,-0.0133 0.91353,-0.0228 0.42861,0.12583 0.84353,0.22806 1.24454,0.4382 0.92288,0.48362 1.62835,1.29764 2.48868,1.87293 0.0584,0.0753 1.12349,-0.75085 1.06508,-0.82616 z" />
    <circle
       id="path40"
       style="fill:#000000;stroke:#000000"
       cx="142.81355"
       cy="106.91924"
       r="0.048059534" />
  </g>
</svg>
